<?xml version="1.0" encoding="utf-8"?>
<!-- Generator: Adobe Illustrator 25.0.1, SVG Export Plug-In . SVG Version: 6.00 Build 0)  -->
<svg version="1.1" id="Layer_1" xmlns="http://www.w3.org/2000/svg" xmlns:xlink="http://www.w3.org/1999/xlink" x="0px" y="0px"
	 viewBox="0 0 470.1 114.4" style="enable-background:new 0 0 470.1 114.4;" xml:space="preserve">
<style type="text/css">
	.st0{fill:#22226B;}
	.st1{fill:#FFFFFF;}
</style>
<g id="Layer_2_1_">
	<g id="Layer_1-2">
		<path class="st0" d="M168.9,49.3c-0.1-1.6-0.9-3.2-2.2-4.1c-1.7-0.9-3.6-1.3-5.3-1.2c-1.6-0.1-3.2,0.2-4.6,0.8
			c-1,0.4-1.7,1.5-1.7,2.6c-0.1,1.2,0.6,2.3,1.7,2.8c1.6,0.8,3.3,1.4,4.9,1.9c2.3,0.7,4.4,1.3,6.5,1.8c1.9,0.5,3.6,1,5.4,1.7
			c2,0.7,3.6,2,4.9,3.6c1.3,1.8,1.9,3.9,1.7,6.1c0.1,3.7-1.6,7.4-4.5,9.7c-3,2.4-7.3,3.6-13,3.6c-6.2,0-10.9-1.3-14.2-3.9
			c-3.2-2.4-5-6.1-5.1-10.1h10.9c-0.1,1.8,0.8,3.5,2.2,4.4c1.9,1.1,3.9,1.7,6.1,1.6c1.7,0,3.4-0.3,4.9-0.9c1.3-0.5,2.2-1.8,2.1-3.3
			c0.1-1.3-0.7-2.6-1.9-3.1c-1.5-0.7-3-1.2-4.5-1.6c-3.4-0.8-6.1-1.6-8.2-2.2c-1.9-0.6-3.6-1.4-5.2-2.4c-1.7-1-3.1-2.4-3.9-4
			c-0.7-1.6-1.1-3.3-1.1-4.9c0-1.6,0.3-3.3,0.9-4.7c0.6-1.5,1.7-2.9,3-3.7c1.6-1.2,3.4-2,5.2-2.5c2.6-0.7,5.1-1,7.8-0.9
			c5.8,0,10.1,1.1,12.8,3.4c2.8,2.3,4.2,5.5,4.5,9.9L168.9,49.3z"/>
		<path class="st0" d="M208.8,71.9c-0.8,1.9-2.3,3.4-4.1,4.1c-2.1,1-4.4,1.6-6.7,1.5c-2,0-4-0.3-5.9-1c-1.8-0.7-3.4-1.7-4.6-3
			c-1.3-1.3-2.4-2.9-3.1-4.5c-0.8-1.9-1.2-3.9-1.1-6V37.2h10.6v24.5c0,5,2.3,7.5,6.8,7.5c2.2,0.1,4.3-0.7,5.9-2.2
			c1.5-1.4,2.3-3.4,2.3-5.4V37.2h10.7v41.1c0,2.6-0.5,5.2-1.4,7.6c-0.9,2.2-2.3,4-3.9,5.6c-1.7,1.6-3.7,2.8-5.8,3.6
			c-2.3,0.8-4.7,1.3-7.2,1.2c-5.9,0-10.4-1.5-13.3-4.5c-3-3-4.4-7.1-4.3-12.3h9.9c-0.1,2.1,0.6,4.1,2.1,5.6c1.4,1.4,3.5,2.1,6.2,2.1
			c1,0,1.9-0.2,2.8-0.6c0.9-0.4,1.7-1,2.4-1.7c0.7-0.8,1.3-1.8,1.6-2.8c0.4-1.2,0.6-2.4,0.6-3.6L208.8,71.9L208.8,71.9z"/>
		<path class="st0" d="M271.1,77.2V53c0.1-2.1-0.5-4.1-1.7-5.9c-1.1-1.5-2.8-2.4-4.5-2.3c-1.9,0-3.7,0.9-4.8,2.4
			c-1.3,1.8-2,3.9-2,6.1v24h-10.6V53.2c0-1.4-0.1-2.7-0.3-3.9c-0.2-0.9-0.6-1.8-1.1-2.5c-0.5-0.6-1.2-1.1-2-1.3c-1-0.3-2-0.4-3-0.4
			c-4.3,0-6.4,2.6-6.4,7.8v24.4h-10.7v-40h10v5.9c1-2.3,2.7-4.2,4.8-5.5c2.2-1,4.4-1.6,6.8-1.5c1.2,0,2.5,0.1,3.6,0.3
			c1,0.2,2,0.6,2.9,1.1c0.9,0.6,1.7,1.2,2.4,2c0.8,0.9,1.6,1.9,2.3,3c0.9-2.1,2.4-3.7,4.3-4.8c2-1.1,4.2-1.6,6.5-1.5
			c1.9,0,3.7,0.3,5.5,1c1.6,0.6,3.1,1.6,4.3,2.9c2.5,2.6,3.8,5.9,3.8,9.5v27.8H271.1z"/>
		<path class="st0" d="M285.5,77.2V22.5H296v19.9c2.7-4,7.1-6.4,11.9-6.3c2.5-0.1,4.8,0.5,7,1.5c2.1,1,3.8,2.5,5.1,4.2
			c1.5,2,2.6,4.1,3.3,6.6c0.8,2.8,1.1,5.5,1.1,8.4c0,3.1-0.4,6.1-1.4,9.1c-0.8,2.5-2,4.7-3.6,6.7c-1.5,1.8-3.4,3.3-5.5,4.1
			c-2.2,1-4.5,1.5-6.9,1.5c-5,0-8.7-2-11.1-5.9l-0.1,4.9H285.5z M304.5,69.6c2.6,0,5-1.3,6.5-3.4c1.8-2.6,2.7-5.6,2.6-8.8
			c0-8.3-3.1-12.4-9.1-12.4c-5.9,0-8.9,4.3-8.9,13c-0.1,3,0.8,5.9,2.6,8.3C299.6,68.4,302.1,69.6,304.5,69.6z"/>
		<path class="st0" d="M353.4,77.2c-0.4-1.2-0.6-2.4-0.7-3.6c-1.4,1.5-3.1,2.7-4.9,3.4c-2.3,0.9-4.7,1.3-7.2,1.3
			c-4.6,0-8-1-10.2-3.1c-2.2-2.1-3.4-4.9-3.3-8c-0.1-2.4,0.4-4.7,1.4-6.9c0.9-1.7,2.2-3.1,3.8-4c1.8-1.1,3.7-1.8,5.8-2.2
			c2.3-0.5,4.7-0.9,7.4-1.3c1.9-0.1,3.7-0.7,5.4-1.5c1.6-1.3,1.9-3.6,0.6-5.2c-0.3-0.4-0.6-0.7-1-0.9c-1.5-0.8-3.3-1.2-4.9-1.1
			c-2.5,0-4.1,0.5-5.2,1.7c-1.1,1.2-1.8,2.7-2,4.3h-9.9c0-2,0.4-3.8,1-5.7c0.6-1.7,1.7-3.3,3-4.4c1.6-1.4,3.5-2.4,5.4-2.9
			c2.7-0.7,5.4-1.1,8.2-1c2.7-0.1,5.4,0.3,8,1.1c2,0.6,3.8,1.7,5.3,3.1c1.4,1.4,2.4,3.1,2.9,4.9c0.6,2.2,0.9,4.4,0.9,6.7v25.4
			L353.4,77.2L353.4,77.2z M352.6,57.6c-0.7,0.6-1.5,1.1-2.4,1.3c-1.5,0.4-3,0.8-4.5,1.1c-3.1,0.6-5.1,1.4-6.3,2.3
			c-1.2,1-1.8,2.5-1.7,3.9c0,3,1.7,4.4,5.1,4.4c1.3,0,2.6-0.2,3.8-0.7c1.1-0.4,2.2-1.1,3-1.9c0.9-0.8,1.6-1.8,2.1-2.8
			c0.5-1.1,0.8-2.2,0.8-3.4L352.6,57.6z"/>
		<path class="st0" d="M367.9,77.2V22.5h10.6v54.7H367.9z"/>
		<path class="st0" d="M402.7,78.3c-3,0.1-6-0.5-8.8-1.6c-4.9-1.9-8.8-5.9-10.5-11c-1-2.8-1.4-5.6-1.4-8.6s0.5-5.8,1.5-8.7
			c1.8-5,5.6-9.1,10.6-10.9c2.8-1.1,5.7-1.6,8.7-1.5c2.9,0,5.8,0.5,8.5,1.5c2.4,1,4.6,2.4,6.4,4.2c1.8,1.9,3.2,4.1,4,6.6
			c1,2.8,1.5,5.7,1.4,8.7c0,3-0.4,5.9-1.4,8.7c-0.9,2.5-2.4,4.7-4.1,6.6c-1.8,1.9-4,3.4-6.4,4.2C408.4,77.8,405.6,78.3,402.7,78.3z
			 M402.7,69.4c6.4,0,9.7-4,9.7-12.2s-3.3-12.2-9.7-12.1c-6.4,0-9.7,4-9.7,12.1S396.2,69.3,402.7,69.4z"/>
		<path class="st0" d="M446.6,78.3c-3,0.1-5.9-0.5-8.7-1.6c-2.5-1-4.6-2.5-6.5-4.3c-1.8-1.9-3.2-4.2-4-6.7c-1-2.8-1.4-5.6-1.4-8.6
			s0.4-5.8,1.4-8.7c0.9-2.5,2.3-4.7,4.1-6.7c1.9-1.9,4-3.4,6.5-4.2c2.8-1.1,5.6-1.6,8.6-1.5c2.9,0,5.8,0.5,8.5,1.5
			c4.9,1.9,8.8,5.9,10.5,10.9c1,2.8,1.5,5.7,1.5,8.7c0,3-0.5,5.9-1.5,8.7c-0.9,2.5-2.3,4.7-4,6.6c-1.8,1.9-4,3.4-6.4,4.3
			C452.3,77.8,449.4,78.3,446.6,78.3z M446.6,69.4c6.5,0,9.7-4,9.7-12.2S453,45,446.6,45.1c-6.5,0-9.7,4-9.7,12.1
			S440.1,69.3,446.6,69.4z"/>
		<path class="st0" d="M115.3,56.8c0.4,31-24.3,56.4-55.2,56.8S3.6,89.4,3.2,58.4C2.4,25.2,28.8,1.7,57.5,0.8
			c31.1-0.8,56.9,23.7,57.7,54.7C115.3,55.9,115.3,56.3,115.3,56.8z M8.3,57c0.1,27.6,22.2,50.1,49.8,50.7
			c28.6,0.6,51.6-22.3,52.1-49.7C111,29.9,88.8,6.4,60.6,5.7S9.1,27.1,8.3,55.2C8.3,55.8,8.3,56.4,8.3,57z"/>
		<path class="st1" d="M8.3,57C8,28.9,30.7,5.8,58.8,5.6S110,28,110.2,56.1c0,0.6,0,1.2,0,1.8c-0.5,27.5-23.5,50.4-52.1,49.8
			C30.4,107.2,8.3,84.6,8.3,57z M59.1,10c-25.8,0-46.9,20.9-46.9,46.8c0,0.2,0,0.4,0,0.7c0.1,25.4,21.1,46.4,46.2,46.5
			c25.9,0.2,47.6-20.4,47.7-46.8c0.2-25.8-20.7-47-46.6-47.2C59.5,10,59.3,10,59.1,10z"/>
		<path class="st0" d="M106.2,57.1c-0.1,26.3-21.8,46.9-47.7,46.8c-25.1-0.2-46.1-21.2-46.2-46.6c-0.1-25.9,20.9-47.1,46.9-47.1
			C85.1,10.1,106.1,31.2,106.2,57.1z"/>
		<path class="st1" d="M80.7,49.8c1.2-0.1,2.3,0.8,2.5,2c0,0.2,0,0.3,0,0.5c0,3,0,6,0,9c0.1,1.3-0.9,2.4-2.1,2.5c-0.1,0-0.3,0-0.4,0
			c-3,0.1-6,0.1-9,0c-1.3,0.1-2.5-0.8-2.6-2.2c0-0.2,0-0.3,0-0.5c0-3,0-5.9,0-8.8c0-1.8,0.9-2.6,2.6-2.5h4.3
			C76.3,49.8,79.1,49.8,80.7,49.8z"/>
		<path class="st1" d="M63.9,67c1.3-0.1,2.4,0.8,2.5,2.1c0,0.1,0,0.3,0,0.4c0.1,3,0,6,0,9c0.1,1.3-0.8,2.4-2.1,2.5
			c-0.1,0-0.2,0-0.2,0c-3.2,0.1-6.2,0.1-9.4,0c-1.3,0.1-2.4-0.9-2.4-2.2c0-0.1,0-0.3,0-0.4c0-3,0-5.8,0-8.8c-0.2-1.3,0.7-2.4,2-2.6
			c0.2,0,0.4,0,0.6,0C56.4,67.1,62.3,67,63.9,67z"/>
		<path class="st1" d="M83.2,74.1c0,1.3,0,2.7,0,3.9c0.2,1.3-0.7,2.6-2,2.8c-0.2,0-0.4,0-0.6,0c-2.9,0.1-5.8,0.1-8.7,0
			c-1.4,0.1-2.6-0.8-2.7-2.2c0-0.2,0-0.4,0-0.6c0-2.9,0-5.7,0-8.6c0-1.8,1-2.7,2.8-2.7h8.7c1.3-0.2,2.4,0.7,2.6,2c0,0.2,0,0.4,0,0.6
			C83.2,71,83.2,72.5,83.2,74.1L83.2,74.1z"/>
		<path class="st1" d="M59.2,46.6c-1.5,0-3.1,0-4.5,0c-1.2,0.2-2.3-0.6-2.5-1.8c0-0.2,0-0.4,0-0.6c0-3,0-6,0-9
			c-0.2-1.1,0.6-2.2,1.8-2.4c0.2,0,0.3,0,0.5,0c3.2,0,6.2,0,9.4,0c1.7,0,2.4,1,2.4,2.5c0,3,0.1,5.8,0,8.8c0.1,1.3-0.8,2.4-2,2.6
			c-0.2,0-0.4,0-0.6,0C62.1,46.5,60.7,46.6,59.2,46.6L59.2,46.6z"/>
		<path class="st1" d="M76,46.5c-1.5,0-2.9,0-4.3,0c-1.2,0.2-2.4-0.6-2.6-1.8c0-0.2,0-0.5,0-0.7c0-3,0-5.8,0-8.8
			c0-1.8,0.9-2.6,2.6-2.5c2.9,0,5.8,0,8.7,0c1.8,0,2.7,0.8,2.8,2.7c0,2.9,0,5.7,0,8.6c0,1.8-0.9,2.7-2.7,2.7
			C79,46.5,77.5,46.5,76,46.5L76,46.5z"/>
		<path class="st1" d="M46.8,49.9c1.2-0.1,2.2,0.7,2.4,1.8c0,0.2,0,0.3,0,0.5c0,3,0,6,0.1,9.1c0.2,1.3-0.7,2.4-2,2.6
			c-0.1,0-0.3,0-0.4,0c-3.1,0.1-6.1,0.1-9.2,0c-1.2,0.1-2.3-0.9-2.4-2.1c0-0.2,0-0.3,0-0.5c0-3,0-5.9,0-8.8c0-1.8,0.9-2.6,2.6-2.6
			c1.5,0,3,0,4.3,0C42.3,49.9,46.8,49.9,46.8,49.9z"/>
		<path class="st1" d="M52.2,52.6c0-1.7,0.7-2.7,2.5-2.7h9c1.9,0,2.7,1,2.7,2.8c0,2.8,0,5.6,0,8.4c0.2,1.4-0.8,2.7-2.1,2.9
			c-0.2,0-0.5,0-0.7,0c-2.9,0-5.7,0.1-8.5,0c-1.9,0-2.8-1-2.7-3L52.2,52.6z"/>
		<path class="st1" d="M42,46.6c-1.5,0-3.1,0-4.6,0c-1.1,0.1-2.1-0.7-2.2-1.8c0-0.1,0-0.3,0-0.4c0-3.1,0-6.1,0-9.3
			c-0.2-1.1,0.6-2.2,1.7-2.4c0.2,0,0.4,0,0.5,0h9.4c1.1-0.1,2.1,0.7,2.2,1.8c0,0.2,0,0.3,0,0.5c0,3.2,0,6.3,0,9.5
			c0.1,1.1-0.7,2.1-1.8,2.2c-0.1,0-0.3,0-0.4,0L42,46.6L42,46.6z"/>
		<path class="st1" d="M46.4,67.1c2.1,0,2.9,1,2.9,3c0,2.7,0,5.4,0,8.1c0,2-0.9,2.9-2.8,2.9c-2.9,0-5.6,0-8.5,0
			c-1.3,0.1-2.5-0.8-2.7-2.1c0-0.2,0-0.4,0-0.7c0-2.9,0-5.7,0-8.6c-0.2-1.2,0.7-2.4,1.9-2.6c0.2,0,0.4,0,0.7,0
			C39.4,67.2,44.5,67.1,46.4,67.1z"/>
	</g>
</g>
</svg>
