<svg id="Layer_1" data-name="Layer 1" xmlns="http://www.w3.org/2000/svg" xmlns:xlink="http://www.w3.org/1999/xlink" viewBox="0 0 364.74 250.21">
  <defs>
    <linearGradient id="linear-gradient" x1="320.4" y1="339.6" x2="432.95" y2="339.6" gradientUnits="userSpaceOnUse">
      <stop offset="0" stop-color="#ffe0a9"/>
      <stop offset="0" stop-color="#febe2b"/>
      <stop offset="1" stop-color="#ffd66a"/>
    </linearGradient>
    <linearGradient id="linear-gradient-2" x1="64.28" y1="261.12" x2="405.06" y2="261.12" gradientUnits="userSpaceOnUse">
      <stop offset="0" stop-color="#ffe0a9"/>
      <stop offset="0.58" stop-color="#e8a423"/>
      <stop offset="1" stop-color="#ffd66a"/>
    </linearGradient>
    <linearGradient id="linear-gradient-3" x1="124.6" y1="248.95" x2="379.1" y2="248.95" xlink:href="#linear-gradient-2"/>
  </defs>
  <path d="M355.66,357.7c.94,2.24-3.16,7.14,10.77,13.64-18.17-1.08-19.58-9.67-19.58-9.67l-1.85.61c2.44,4.07,4.49,8.37,11.49,10.93-12.69.49-16.53-6.43-16.53-6.43l-1.23.78c1.3,3.57,4,6.33,8.79,7.53h0c-6.28,1.1-14.22-.62-18.06-4.06l-9.06.54s49-7.49,75.94-67.79c0,0,9.82,26.52,36.61,14.13-7.53,10-24.69,22.86-47.37,14a34.17,34.17,0,0,0,34.3,5.75c-19.45,19.42-41.73,8.43-44.05,5.29-.42-.57.3-.74.49-.06.46,1.65.61,5,5.69,8.15,4.31,2.66,14.17,3.93,19.16,3.17-22.18,8.77-32-2.22-32-2.22-.65.26.66-.21,0,0,0,0-1.35,9.44,17.57,10.53-7.92,4-19.87,3.81-25.88-6.39-.79.13.93-1.11.14-1,.27.82.31,4.38,2.49,7.05a15.37,15.37,0,0,0,10.66,5.69c-16.95-.08-20.46-9-20.46-9" transform="translate(-68.2 -136.01)" style="fill: url(#linear-gradient)"/>
  <path d="M400.68,283.91c-.39,4.41-1,8.81-1.8,13.19a117.76,117.76,0,0,1-3.27,13,104,104,0,0,1-11.32,24.4,101.65,101.65,0,0,1-17.52,20.65,111.2,111.2,0,0,1-22.28,15.47,127,127,0,0,1-25.15,10,148.9,148.9,0,0,1-26.53,5,166.23,166.23,0,0,1-27,.28c-4.49-.32-9-.81-13.41-1.51-2.25-.34-4.4-.75-6.56-1.13s-4.41-.82-6.6-1.3a154.37,154.37,0,0,1-25.69-8.12q-6.21-2.55-12.21-5.44c-4-1.94-7.92-4-11.8-6.07C174.05,354,159.36,344.55,143.53,338A87.27,87.27,0,0,0,119,331.54a65.91,65.91,0,0,0-25,2.23,43.19,43.19,0,0,0-11.31,5.05,23,23,0,0,0-8.13,8.5,15.52,15.52,0,0,0-1.09,11.09,16.32,16.32,0,0,0,2.48,5.13,23.09,23.09,0,0,0,4,4.33C86,373,94.53,374.94,102.65,375c8.17-.08,16.46-2.27,24.31-5.29,15.78-6.16,30.14-15.82,43.38-26.61,6.61-5.44,13-11.2,19.13-17.18s12-12.3,17.81-18.66c11.48-12.83,22.28-26.31,32.61-40.16l7.81-10.48c2.64-3.52,5.24-7.07,8-10.52s5.39-7,8.22-10.35,5.56-6.84,8.47-10.17l4.32-5c1.45-1.67,3-3.28,4.43-4.93l4.45-4.9,4.56-4.81c3-3.23,6.18-6.32,9.28-9.47,1.54-1.58,3.18-3.07,4.78-4.6s3.19-3.06,4.86-4.52q9.78-9,20.28-17.18A254.54,254.54,0,0,1,351.22,155,173.9,173.9,0,0,1,375,142.79a121.69,121.69,0,0,1,12.67-4.42c2.15-.6,4.35-1.11,6.56-1.54,1.11-.2,2.23-.4,3.36-.54a34.19,34.19,0,0,1,3.52-.28l.15,3.68c-.87.12-2,.35-3,.59s-2,.52-3.05.8c-2,.61-4,1.29-6,2.07a118,118,0,0,0-11.67,5.22,179.73,179.73,0,0,0-21.9,13.37,251.25,251.25,0,0,0-20.29,15.84c-6.51,5.62-12.87,11.41-19,17.49a505,505,0,0,0-34.74,38.32c-2.79,3.29-5.45,6.7-8.15,10.08s-5.31,6.82-8,10.24-5.21,6.9-7.79,10.38l-7.82,10.53c-2.61,3.56-5.35,7-8.05,10.5s-5.54,6.88-8.35,10.29-5.71,6.74-8.68,10c-1.48,1.64-2.93,3.31-4.44,4.93l-4.53,4.86a306.52,306.52,0,0,1-39.59,35.52c-14.29,10.57-29.79,19.89-46.89,25.7-8.53,2.87-17.5,4.86-26.83,4.61a49.55,49.55,0,0,1-13.66-2.46,35.44,35.44,0,0,1-12.24-6.94,24.9,24.9,0,0,1-7.77-12.06,20.85,20.85,0,0,1-.56-7.31,20.12,20.12,0,0,1,2.11-7.06A28,28,0,0,1,80.14,335a47.58,47.58,0,0,1,12.5-5.64,68.08,68.08,0,0,1,13.29-2.54,76.2,76.2,0,0,1,13.51-.2,100.66,100.66,0,0,1,26.2,5.91A247.25,247.25,0,0,1,170,343l23.47,11.56c3.9,1.87,7.81,3.68,11.75,5.39s7.87,3.38,11.85,4.89a174.35,174.35,0,0,0,24.32,7.28c2.08.43,4.08.83,6.25,1.17s4.28.81,6.35,1.13c4.17.69,8.37,1.18,12.59,1.52A155.6,155.6,0,0,0,292,375.9a134.62,134.62,0,0,0,48.62-13,104,104,0,0,0,21.07-13.7,94.47,94.47,0,0,0,17-18.51,101,101,0,0,0,11.82-22.43,114,114,0,0,0,3.88-12.21q1.63-6.22,2.65-12.61Z" transform="translate(-68.2 -136.01)" style="fill: url(#linear-gradient-2)"/>
  <path d="M240.35,180.47a46.67,46.67,0,0,1,9.53,27.6c.29,10-2.6,19.87-7.07,28.69A86.49,86.49,0,0,1,235,249.38a96.7,96.7,0,0,1-9.65,11.29,83.54,83.54,0,0,1-24.49,17.15,74,74,0,0,1-14.35,4.87A70.23,70.23,0,0,1,179,284c-1.28.13-2.56.25-3.87.3-.65,0-1.3,0-2,0h-1l-.54,0c-.11,0-.61-.05-.71-.07a51.32,51.32,0,0,1-7.65-1.65,62.88,62.88,0,0,1-7.23-2.7,57.53,57.53,0,0,1-6.84-3.64,49.5,49.5,0,0,1-6.34-4.58,43.5,43.5,0,0,1-10.09-12.1,45.8,45.8,0,0,1-5.13-14.87c-.2-1.29-.38-2.57-.49-3.87l-.13-2,0-2a46.1,46.1,0,0,1,.72-7.88,53.41,53.41,0,0,1,5-14.72c4.67-9.19,11.23-17,18.36-23.9A170.29,170.29,0,0,1,174.2,171.9a219.69,219.69,0,0,1,25.53-14.8c4.61-2.18,9.12-4,13.76-5.67s9.29-3.23,14-4.62C246.34,141.29,266,138,286,138.56a127.1,127.1,0,0,1,29.69,4.3A103.25,103.25,0,0,1,343.44,155a100.5,100.5,0,0,1,22.87,19.9c.84,1,1.63,1.93,2.41,2.92l1.18,1.48.29.37c.14.18.29.39.39.53l.62.92a41.94,41.94,0,0,1,3.72,7.35,42.52,42.52,0,0,1-.17,32,53.91,53.91,0,0,1-8.2,13.64,72.22,72.22,0,0,1-11,10.86c-1,.81-2,1.56-3,2.32s-2.06,1.46-3.12,2.14c-2.09,1.41-4.24,2.69-6.42,3.92l-1.65.89-.82.45-.47.25-.48.24c-1.24.6-2.42,1.09-3.63,1.55a74.94,74.94,0,0,1-7.26,2.37,94.55,94.55,0,0,1-14.84,2.77c-2.49.27-5,.43-7.5.52s-5,.07-7.58-.08c-.53,0-.79-.08-1.16-.13l-1-.19a18.92,18.92,0,0,1-2.09-.54,13.9,13.9,0,0,1-2.22-.93,7.13,7.13,0,0,1-2.41-2.09,5.52,5.52,0,0,1-.91-4.1c0-.16.06-.34.09-.47l.1-.34a5.75,5.75,0,0,1,.21-.67,8,8,0,0,1,.62-1.33,9.1,9.1,0,0,1,4.33-3.76,17.16,17.16,0,0,1,9.29-.87,25.92,25.92,0,0,1,8.3,2.71l1.64.87,1.58.82c1.07.55,2.19,1.12,3.29,1.73a61.35,61.35,0,0,1,6.61,4.19,41.6,41.6,0,0,1,11.15,12.1,46.18,46.18,0,0,1,5.71,15.57c.25,1.34.41,2.68.57,4s.23,2.67.26,4.07a49.75,49.75,0,0,1-.51,8.21,57.24,57.24,0,0,1-4.59,15.4,70.53,70.53,0,0,1-19.1,24.6,82.93,82.93,0,0,1-12.69,8.74c-2.22,1.28-4.52,2.4-6.83,3.47-1.16.53-2.33,1-3.51,1.52s-2.42,1-3.66,1.36a56,56,0,0,1-31,1.73,43.76,43.76,0,0,1-14.56-6.38A29.92,29.92,0,0,1,243,349a21.79,21.79,0,0,1-2.95-3.26c-.22-.31-.44-.66-.66-1l-.55-.94c-.34-.63-.66-1.28-.94-1.94a22.69,22.69,0,0,1-1.32-4.09,24.38,24.38,0,0,1,2.27-16.32,35,35,0,0,1,10.29-11.86,59.15,59.15,0,0,1,13.2-7.35,89.75,89.75,0,0,1,14.14-4.36,148.18,148.18,0,0,1,29-3.26l.1,1.64a159.32,159.32,0,0,0-28.11,5.36,91.48,91.48,0,0,0-13.17,5A53.5,53.5,0,0,0,252.67,314a29.85,29.85,0,0,0-8,10.24,17.49,17.49,0,0,0-1.12,11.81,15.41,15.41,0,0,0,1,2.72c.21.44.45.86.7,1.28l.4.61.37.48a18.61,18.61,0,0,0,4.55,3.75,36.24,36.24,0,0,0,12,4.6,46.84,46.84,0,0,0,25.85-2.61c1-.37,2.05-.83,3.08-1.25s2.06-.95,3.08-1.45c2-1,4-2.09,6-3.28a72.93,72.93,0,0,0,10.83-8A61.74,61.74,0,0,0,327,311.82a45.08,45.08,0,0,0,3.41-12.28,38.1,38.1,0,0,0,.25-6.21c0-1-.15-2.06-.26-3.13s-.29-2.09-.51-3.11a34.15,34.15,0,0,0-4.4-11.35,45.2,45.2,0,0,0-7.91-9.46c-1.58-1.46-3.27-2.89-5.08-4.31l-2.79-2.17-1.47-1.13-.76-.58-.37-.3-.26-.21a16.4,16.4,0,0,0-5-2.75,9.81,9.81,0,0,0-5-.52,2.17,2.17,0,0,0-1.22.65,1.62,1.62,0,0,0-.19.29s-.05.12-.09.18l0,.09s0,0,0,0a2.55,2.55,0,0,0-.05-.35.94.94,0,0,0-.16-.31c-.1-.09,0,.1.29.27a5.46,5.46,0,0,0,1.08.52,12.19,12.19,0,0,0,1.4.42l.74.16a4.62,4.62,0,0,0,.63.09,60.39,60.39,0,0,0,6.87,0,60.75,60.75,0,0,0,13.65-2.28,62.06,62.06,0,0,0,6.54-2.21,65.92,65.92,0,0,0,6.21-2.84c1-.52,2-1.08,2.87-1.63l2.77-1.87c1.89-1.36,3.79-2.69,5.62-4.09s3.6-2.85,5.33-4.33a73.89,73.89,0,0,0,9.47-9.5c5.58-6.8,9.14-14.89,9.14-23.21a33.27,33.27,0,0,0-2.32-12.22,32.9,32.9,0,0,0-2.79-5.53l-.39-.58-.15-.2-.27-.34-1.07-1.35c-.71-.91-1.43-1.8-2.19-2.65A89.91,89.91,0,0,0,338,163.58a93.23,93.23,0,0,0-25-11.13,117.3,117.3,0,0,0-27.36-4.2c-18.63-.71-37.47,2.18-55.65,7.26-4.54,1.28-9.05,2.7-13.5,4.27s-8.9,3.28-13,5.18a207,207,0,0,0-24.58,14,161.38,161.38,0,0,0-22.14,17.37c-6.74,6.41-12.77,13.58-16.9,21.59a45.51,45.51,0,0,0-4.38,12.5,38.38,38.38,0,0,0-.65,6.49l0,1.63.1,1.63c.09,1.09.23,2.2.39,3.29a37.65,37.65,0,0,0,4.14,12.37,36,36,0,0,0,8.24,10,43.18,43.18,0,0,0,11.41,6.8,57,57,0,0,0,6.36,2.22,55.18,55.18,0,0,0,6.44,1.5l.19,0,.37,0,.78,0c.54,0,1.09,0,1.64,0,1.11,0,2.23-.06,3.35-.14a61.88,61.88,0,0,0,6.74-.89,67.73,67.73,0,0,0,13.14-3.93c17.06-7,31.18-20.81,40.67-36.9,4.62-8.11,7.68-17.18,7.94-26.54a46.73,46.73,0,0,0-1.65-13.9,43.85,43.85,0,0,0-2.42-6.63,34.65,34.65,0,0,0-3.49-6.08Z" transform="translate(-68.2 -136.01)" style="fill: url(#linear-gradient-3)"/>
</svg>
