<svg xmlns="http://www.w3.org/2000/svg" xmlns:xlink="http://www.w3.org/1999/xlink" viewBox="0 0 566.93 566.93">
  <defs>
    <linearGradient id="linear-gradient" x1="212.76" y1="467.56" x2="362.26" y2="467.56" gradientUnits="userSpaceOnUse">
      <stop offset="0" stop-color="#ffe0a9"/>
      <stop offset="0.58" stop-color="#e8a423"/>
      <stop offset="1" stop-color="#ffd66a"/>
    </linearGradient>
    <linearGradient id="linear-gradient-15" x1="115.6" y1="439.75" x2="459.42" y2="439.75" xlink:href="#linear-gradient"/>
    <linearGradient id="linear-gradient-16" x1="117.47" y1="416.68" x2="458.87" y2="416.68" xlink:href="#linear-gradient"/>
    <linearGradient id="linear-gradient-30" x1="383.89" y1="325.12" x2="496.44" y2="325.12" gradientTransform="matrix(-1, 0, 0, 1, 861.14, 0)" gradientUnits="userSpaceOnUse">
      <stop offset="0" stop-color="#febe2b"/>
      <stop offset="0.05" stop-color="#fec236"/>
      <stop offset="0.23" stop-color="#ffce58"/>
      <stop offset="0.34" stop-color="#ffd261"/>
      <stop offset="0.51" stop-color="#ffd568"/>
      <stop offset="1" stop-color="#ffd66a"/>
    </linearGradient>
    <linearGradient id="linear-gradient-31" x1="108.58" y1="246.64" x2="449.36" y2="246.64" gradientUnits="userSpaceOnUse">
      <stop offset="0" stop-color="#ffde7f"/>
      <stop offset="0.58" stop-color="#e8a423"/>
      <stop offset="0.65" stop-color="#efb338"/>
      <stop offset="0.76" stop-color="#f8c653"/>
      <stop offset="0.85" stop-color="#fdd264"/>
      <stop offset="0.92" stop-color="#ffd66a"/>
    </linearGradient>
    <linearGradient id="linear-gradient-32" x1="168.9" y1="234.46" x2="423.39" y2="234.46" gradientUnits="userSpaceOnUse">
      <stop offset="0" stop-color="#fd7"/>
      <stop offset="0.58" stop-color="#e8a423"/>
      <stop offset="1" stop-color="#ffd66a"/>
    </linearGradient>
  </defs>
  <g id="Layer_11" data-name="Layer 11">
    <rect width="566.93" height="566.93"/>
  </g>
  <g id="Layer_8" data-name="Layer 8">
    <g id="Layer_10" data-name="Layer 10">
      <g>
        <path d="M232.3,481.32c-.14,0-.17-.1-.08-.32s.17-.41.25-.59a3.21,3.21,0,0,0,.21-1.34,5.75,5.75,0,0,0-.28-1.71,3.77,3.77,0,0,0-1.13-1.65,9,9,0,0,0-2.59-1.68,18.78,18.78,0,0,0-3-1c-1-.25-2.08-.48-3.1-.67a18.42,18.42,0,0,1-2,2.33,8.39,8.39,0,0,1-2.27,1.58,7.52,7.52,0,0,1-1.29.47,5.09,5.09,0,0,1-1.18.15,3.31,3.31,0,0,1-2.19-.7,2.13,2.13,0,0,1-.86-1.67,2.64,2.64,0,0,1,.83-1.79,6.22,6.22,0,0,1,2.75-1.45,11.14,11.14,0,0,1,1.7-.33,17.67,17.67,0,0,1,2-.1c.41,0,.83,0,1.23,0a7.64,7.64,0,0,1,1.14.16,25.41,25.41,0,0,0,1.3-2.2c.4-.76.82-1.59,1.25-2.48a7.63,7.63,0,0,1-3.29-.57,5.1,5.1,0,0,1-2.15-1.64,3.68,3.68,0,0,1-.75-2.21,3.58,3.58,0,0,1,.55-1.88,5.21,5.21,0,0,1,1.74-1.68,9.68,9.68,0,0,1,3-1.19.68.68,0,0,1,.23-.05h.21q.36,0,.36.15c0,.16-.26.27-.77.33a4.38,4.38,0,0,0-2.2.89,5.19,5.19,0,0,0-1.46,1.78,4.51,4.51,0,0,0-.52,2.08,3.62,3.62,0,0,0,.43,1.71,3.22,3.22,0,0,0,1.37,1.28,5.2,5.2,0,0,0,2.43.49,9,9,0,0,0,1.12-.07,7.13,7.13,0,0,0,.33-.78l.51-1.33c.2-.5.38-1,.57-1.44l.63-1.63a20.1,20.1,0,0,1,2.27-4.33,8.19,8.19,0,0,1,2.26-2.22,3.87,3.87,0,0,1,1.95-.65,2.21,2.21,0,0,1,1.55.55,1.83,1.83,0,0,1,.66,1.25,2.55,2.55,0,0,1,0,.31v.24a7.49,7.49,0,0,1-.57,2.83,10.46,10.46,0,0,1-1.56,2.69,13.41,13.41,0,0,1-2.28,2.3,13.8,13.8,0,0,1-2.73,1.73,11,11,0,0,1-2.94,1c-.24.48-.46.91-.64,1.29s-.39.78-.61,1.21-.52,1-.89,1.65c-.11.21-.2.36-.25.45l-.25.39a24.42,24.42,0,0,1,2.61.81,23.73,23.73,0,0,1,2.8,1.22,15.44,15.44,0,0,1,2.46,1.55,6,6,0,0,1,1.91,2.33,5.91,5.91,0,0,1,.56,2.28,2,2,0,0,1-.22,1.05,1.55,1.55,0,0,1-.62.68A1.14,1.14,0,0,1,232.3,481.32Zm-16.82-5.13a4.83,4.83,0,0,0,1.14-.15,6.35,6.35,0,0,0,1.28-.45,10.18,10.18,0,0,0,3.72-3.41,10.23,10.23,0,0,0-1.15-.18q-.6-.06-1.23-.06a12.23,12.23,0,0,0-1.33.07,7.47,7.47,0,0,0-1.33.27,6.73,6.73,0,0,0-2.46,1.1,1.82,1.82,0,0,0-.85,1.37,1.22,1.22,0,0,0,.6,1A2.74,2.74,0,0,0,215.48,476.19Zm10.77-10.59a10.47,10.47,0,0,0,3.19-1.3,13,13,0,0,0,2.81-2.31,11.43,11.43,0,0,0,2-2.95,7.56,7.56,0,0,0,.75-3.25,1,1,0,0,0-.22-.67.74.74,0,0,0-.62-.27,2.77,2.77,0,0,0-1.42.61,10.46,10.46,0,0,0-2,2,26.87,26.87,0,0,0-2.37,3.93l-1.14,2.19C226.92,464.26,226.59,464.92,226.25,465.6Z" style="fill: url(#linear-gradient)"/>
        <path d="M236.6,474.15a1.39,1.39,0,0,1-.6-.12,1.34,1.34,0,0,1-.59-.53,1.94,1.94,0,0,1-.25-1.08,5.72,5.72,0,0,1,.21-1.39c-.19.3-.44.67-.74,1.11a7.64,7.64,0,0,1-1,1.17,3.11,3.11,0,0,1-.86.62,1.73,1.73,0,0,1-.74.19,1.15,1.15,0,0,1-1-.56,2.54,2.54,0,0,1-.39-1.48,6.08,6.08,0,0,1,.48-2.18,9.59,9.59,0,0,1,1.56-2.54,5.52,5.52,0,0,1,1.7-1.36,4.25,4.25,0,0,1,2-.52,3.15,3.15,0,0,1,1.06.18,2.35,2.35,0,0,1,.89.59.53.53,0,0,1,.16.39.31.31,0,0,1-.12.24.33.33,0,0,1-.31,0,1.08,1.08,0,0,0-1.13-.84,2.08,2.08,0,0,0-.93.27,6.15,6.15,0,0,0-1.69,1.42,13.67,13.67,0,0,0-1.53,2c-.06.1-.16.28-.3.56a8.88,8.88,0,0,0-.39.91,4.64,4.64,0,0,0-.27,1c0,.1,0,.17,0,.21v.18c0,.52.2.79.6.79a2.42,2.42,0,0,0,1.63-1.06,14.48,14.48,0,0,0,1.13-1.6c.33-.57.68-1.17,1-1.81a11.08,11.08,0,0,1,.67-1.08,1.06,1.06,0,0,1,.89-.43,2.41,2.41,0,0,1,.53.07,1.26,1.26,0,0,0,.55,0,4.54,4.54,0,0,0-.52.72c-.21.35-.44.75-.68,1.2a14.27,14.27,0,0,0-.65,1.37,8.16,8.16,0,0,0-.41,1.2c0,.09,0,.23-.06.4s0,.31,0,.39c0,.45.13.67.38.67a1.22,1.22,0,0,0,.83-.46,7.16,7.16,0,0,0,.88-1.12c.28-.45.55-.9.79-1.36s.43-.83.57-1.12.16-.24.29-.24.12.06.12.17a.87.87,0,0,1-.07.27c-.19.4-.42.85-.7,1.35a16.79,16.79,0,0,1-.88,1.47,6.63,6.63,0,0,1-1,1.17A1.81,1.81,0,0,1,236.6,474.15Z" style="fill: url(#linear-gradient)"/>
        <path d="M240.41,474.17a2,2,0,0,1-1.67-.61,2.05,2.05,0,0,1-.49-1.28,1.85,1.85,0,0,1,.28-1,.86.86,0,0,1,.66-.48l1-2c.38-.74.73-1.45,1.05-2.14a6.69,6.69,0,0,1,.85-1.34,1.86,1.86,0,0,1,1.14-.75h.24a1.9,1.9,0,0,1,.35,0,1.41,1.41,0,0,1,.32.09.39.39,0,0,1,.26.36c0,.1-.05.15-.16.15a.53.53,0,0,1-.2-.07,1.33,1.33,0,0,0-.5-.12.46.46,0,0,0-.26.07,1.3,1.3,0,0,0-.64.67,2.34,2.34,0,0,0-.18.91,4.13,4.13,0,0,0,.08.78,5,5,0,0,0,.21.71c.17.45.36.89.56,1.32a3.28,3.28,0,0,1,.3,1.39,3,3,0,0,1-.48,1.53,3.94,3.94,0,0,1-1.22,1.28l.17,0,.16,0h.08a1.85,1.85,0,0,0,1-.33,3.69,3.69,0,0,0,.88-.8,12.16,12.16,0,0,0,.87-1.34c.33-.58.65-1.19.95-1.83.05-.08.1-.12.17-.12a.2.2,0,0,1,.18.09.2.2,0,0,1,0,.2c-.21.45-.44.93-.71,1.45a10.73,10.73,0,0,1-.9,1.49,4.37,4.37,0,0,1-1.16,1.15,2.56,2.56,0,0,1-1.48.45l-.41,0a2.36,2.36,0,0,1-.43-.09,4,4,0,0,1-.49.15A2,2,0,0,1,240.41,474.17Zm-.19-.38a.71.71,0,0,0,.26,0l.22-.06a2.47,2.47,0,0,1-.64-.71,2.44,2.44,0,0,1-.32-1.14,1.43,1.43,0,0,0-.43,1,1,1,0,0,0,.24.67A.83.83,0,0,0,240.22,473.79Zm.91-.34a2.88,2.88,0,0,0,.73-1,3.75,3.75,0,0,0,.33-1.7,12,12,0,0,0-.19-2,10.47,10.47,0,0,1-.2-1.87,2.66,2.66,0,0,1,0-.3,1.9,1.9,0,0,1,0-.25l-.72,1.5c-.27.57-.54,1.11-.81,1.64s-.51,1-.7,1.35a.46.46,0,0,1,.38.18.94.94,0,0,1,.1.61,2,2,0,0,0,.28,1.11A1.59,1.59,0,0,0,241.13,473.45Z" style="fill: url(#linear-gradient)"/>
        <path d="M243.72,474.27q1-2.07,2.1-4.33c.73-1.52,1.48-3,2.25-4.58s1.53-3,2.28-4.39a7.86,7.86,0,0,1,.75-1.13,1.17,1.17,0,0,1,.93-.4,2,2,0,0,1,.5.07,1.29,1.29,0,0,0,.55,0,10.8,10.8,0,0,0-.85,1.18c-.36.56-.76,1.23-1.2,2s-.9,1.62-1.39,2.53-1,1.81-1.44,2.73-.91,1.78-1.31,2.58q.48-.61,1-1.17a9.73,9.73,0,0,1,1-1,10.9,10.9,0,0,1,1.33-1,13.11,13.11,0,0,1,1.61-.91,3.19,3.19,0,0,1,1.28-.39.62.62,0,0,1,.24,0c-.35.64-.66,1.2-.92,1.7s-.54,1-.82,1.61-.52,1.12-.73,1.64a7.65,7.65,0,0,0-.41,1.29,4.41,4.41,0,0,0-.07.64.69.69,0,0,0,.15.52.43.43,0,0,0,.31.13,1.34,1.34,0,0,0,.89-.5,7.55,7.55,0,0,0,.93-1.24c.31-.49.58-1,.83-1.43s.44-.82.56-1.08.2-.26.29-.26.15.06.15.19a.91.91,0,0,1-.08.29c-.2.42-.44.88-.7,1.4a13,13,0,0,1-.89,1.49,5.56,5.56,0,0,1-1.08,1.17,2,2,0,0,1-1.26.45,1.82,1.82,0,0,1-1-.33,1.4,1.4,0,0,1-.5-1.23,3.87,3.87,0,0,1,.05-.56,4.9,4.9,0,0,1,.17-.69,4.57,4.57,0,0,1,.48-1.06c.22-.4.51-.89.86-1.48a1.41,1.41,0,0,0,.24-.65.26.26,0,0,0-.29-.29,1.58,1.58,0,0,0-.65.24,6.33,6.33,0,0,0-1,.84,21.77,21.77,0,0,0-1.49,1.68,18.21,18.21,0,0,0-1.89,3.1c-.11.21-.24.32-.37.32l-.54,0-.44,0A.57.57,0,0,0,243.72,474.27Z" style="fill: url(#linear-gradient)"/>
        <path d="M255.75,474.17a2.49,2.49,0,0,1-1.6-.57,2.15,2.15,0,0,1-.71-1.76,5.92,5.92,0,0,1,.53-2.31,7.8,7.8,0,0,1,1.35-2.17,6.22,6.22,0,0,1,1.56-1.35,3.16,3.16,0,0,1,1.63-.53,1.5,1.5,0,0,1,.91.29,1.07,1.07,0,0,1,.41.89,2.47,2.47,0,0,1-.46,1.32,4.92,4.92,0,0,1-1.29,1.34,4.57,4.57,0,0,1-.92.51,9.07,9.07,0,0,1-1.1.4,3.62,3.62,0,0,1-.91.15,4.55,4.55,0,0,0-.23.77,4.6,4.6,0,0,0-.11,1,2.38,2.38,0,0,0,.24,1.08.91.91,0,0,0,.89.48,2.46,2.46,0,0,0,1.44-.45,5.18,5.18,0,0,0,1.15-1.14,9.36,9.36,0,0,0,.85-1.38l.57-1.18c.09-.22.22-.34.38-.34a.11.11,0,0,1,.12.12.49.49,0,0,1-.07.24q-.33.72-.72,1.53a9.61,9.61,0,0,1-.91,1.51,4.27,4.27,0,0,1-1.26,1.14A3.35,3.35,0,0,1,255.75,474.17Zm-.43-4.22a4.63,4.63,0,0,0,1.12-.25,4.12,4.12,0,0,0,1.44-.81,4,4,0,0,0,1-1.21,2.5,2.5,0,0,0,.34-1.12c0-.35-.13-.52-.38-.52a1.47,1.47,0,0,0-.8.38,8.38,8.38,0,0,0-1.24,1.3,11.39,11.39,0,0,0-.87,1.24Q255.49,469.64,255.32,470Z" style="fill: url(#linear-gradient)"/>
        <path d="M260.55,474.17a1.9,1.9,0,0,1-2.16-1.89,1.93,1.93,0,0,1,.27-1,.89.89,0,0,1,.66-.48l1.05-2c.37-.74.72-1.45,1-2.14a7.72,7.72,0,0,1,.85-1.34,1.91,1.91,0,0,1,1.14-.75h.24a1.83,1.83,0,0,1,.35,0,1.48,1.48,0,0,1,.33.09.41.41,0,0,1,.26.36c0,.1-.06.15-.17.15a.5.5,0,0,1-.19-.07,1.33,1.33,0,0,0-.5-.12.5.5,0,0,0-.27.07,1.32,1.32,0,0,0-.63.67,2.34,2.34,0,0,0-.18.91,3.44,3.44,0,0,0,.08.78,5.1,5.1,0,0,0,.2.71q.27.67.57,1.32a3.28,3.28,0,0,1,.3,1.39,3,3,0,0,1-.48,1.53,3.87,3.87,0,0,1-1.23,1.28l.17,0,.17,0h.07a1.81,1.81,0,0,0,1-.33,3.51,3.51,0,0,0,.88-.8,10.75,10.75,0,0,0,.88-1.34c.32-.58.64-1.19.95-1.83a.19.19,0,0,1,.16-.12.2.2,0,0,1,.18.09.2.2,0,0,1,0,.2c-.21.45-.45.93-.71,1.45a13.1,13.1,0,0,1-.9,1.49,4.55,4.55,0,0,1-1.17,1.15,2.55,2.55,0,0,1-1.47.45l-.41,0a2.2,2.2,0,0,1-.43-.09,4.58,4.58,0,0,1-.49.15A2.09,2.09,0,0,1,260.55,474.17Zm-.19-.38a.75.75,0,0,0,.26,0l.22-.06a2.33,2.33,0,0,1-.64-.71,2.44,2.44,0,0,1-.32-1.14,1.44,1.44,0,0,0-.44,1,1,1,0,0,0,.24.67A.85.85,0,0,0,260.36,473.79Zm.91-.34a3,3,0,0,0,.73-1,3.76,3.76,0,0,0,.32-1.7,11.05,11.05,0,0,0-.19-2,10.38,10.38,0,0,1-.19-1.87,2.81,2.81,0,0,1,0-.3,1.87,1.87,0,0,1,0-.25l-.72,1.5c-.27.57-.55,1.11-.82,1.64l-.69,1.35a.48.48,0,0,1,.38.18,1,1,0,0,1,.1.61,2,2,0,0,0,.27,1.11A1.57,1.57,0,0,0,261.27,473.45Z" style="fill: url(#linear-gradient)"/>
        <path d="M277.37,475.16a7.93,7.93,0,0,1-3.38-.64,4.57,4.57,0,0,1-2-1.68,4.1,4.1,0,0,1-.66-2.22,5.11,5.11,0,0,1,.79-2.63,6.77,6.77,0,0,1,2.37-2.25,9.14,9.14,0,0,1,3.85-1.19,3.29,3.29,0,0,1-.5-1.05,3.75,3.75,0,0,1-.17-1.11,3.82,3.82,0,0,1,.72-2.25,6.15,6.15,0,0,1,1.79-1.64,9.39,9.39,0,0,1,4.69-1.37,5.49,5.49,0,0,1,1.37.18,2.58,2.58,0,0,1,1.17.64,1.7,1.7,0,0,1,.48,1.29,2,2,0,0,1-.43,1.25,1.3,1.3,0,0,1-1.06.55,1.11,1.11,0,0,1-.79-.33,1.08,1.08,0,0,1-.33-.77,1.1,1.1,0,0,1,1.12-1.15,1.19,1.19,0,0,1,.5.14.73.73,0,0,1,.34.29.88.88,0,0,0,0-.26,1,1,0,0,0-.53-.92,2.57,2.57,0,0,0-1.13-.26,6.66,6.66,0,0,0-2.23.47,7.88,7.88,0,0,0-2.47,1.52,6.13,6.13,0,0,0-.89,1,7.67,7.67,0,0,0-.77,1.33,3.48,3.48,0,0,0-.31,1.43,2.19,2.19,0,0,0,.19,1c.24,0,.52,0,.83,0s.64,0,1,0a1.69,1.69,0,0,1,1,.26.76.76,0,0,1,.36.6.62.62,0,0,1-.29.46,1.57,1.57,0,0,1-.91.21,2.93,2.93,0,0,1-1.43-.34,4.23,4.23,0,0,1-1-.71,5,5,0,0,0-2.69,1.17,6.65,6.65,0,0,0-1.68,2.27,6.51,6.51,0,0,0-.57,2.61,4.78,4.78,0,0,0,.39,1.92,3.29,3.29,0,0,0,1.22,1.42,3.65,3.65,0,0,0,2.06.54,5.85,5.85,0,0,0,2.36-.46,6.15,6.15,0,0,0,1.84-1.22,5.93,5.93,0,0,0,1.19-1.57,3.44,3.44,0,0,0,.42-1.55,1.37,1.37,0,0,0-.45-1,2.63,2.63,0,0,0-1.16-.62,5.46,5.46,0,0,0-1.54-.21,6.27,6.27,0,0,0-1.66.23,3.66,3.66,0,0,0-1.41.7,1.87,1.87,0,0,0-.69,1.18.43.43,0,0,1,0,.11s0,.08,0,.11a1.66,1.66,0,0,0,.4,1,3.5,3.5,0,0,0,1.23.95.36.36,0,0,1,.22.36q0,.27-.24.15a5.72,5.72,0,0,1-1.93-1.53,2.65,2.65,0,0,1-.61-1.57,2.22,2.22,0,0,1,1.16-1.86,6,6,0,0,1,3.32-.78H284a5.88,5.88,0,0,0,1.14-.17,8.92,8.92,0,0,0,1.55-.49,5.69,5.69,0,0,0,1.36-.77,1.28,1.28,0,0,0,.56-1,1.26,1.26,0,0,0-.22-.67.31.31,0,0,1,0-.17c0-.09,0-.14.12-.14a.19.19,0,0,1,.16.12A1.89,1.89,0,0,1,289,465a1.83,1.83,0,0,1-.46,1.2,4.39,4.39,0,0,1-1.26,1,7.27,7.27,0,0,1-1.77.64,8.75,8.75,0,0,1-2,.19,2.27,2.27,0,0,1,.67.86,2.36,2.36,0,0,1,.22,1,3.64,3.64,0,0,1-.53,1.81,6.08,6.08,0,0,1-1.49,1.71,7.85,7.85,0,0,1-2.24,1.26A8,8,0,0,1,277.37,475.16Zm3.7-9.6c.52,0,.79-.11.79-.32s-.07-.16-.2-.25a1.09,1.09,0,0,0-.55-.15,2.57,2.57,0,0,0-.48,0h-1.32A2.12,2.12,0,0,0,281.07,465.56Z" style="fill: url(#linear-gradient)"/>
        <path d="M305,475.61a1.53,1.53,0,0,1-1.49-.83,4.07,4.07,0,0,1-.43-1.93,7.15,7.15,0,0,1,.27-1.94,4.84,4.84,0,0,1,.66-1.47c-.43.52-1,1.1-1.6,1.76a23.12,23.12,0,0,1-2.12,1.89,12.94,12.94,0,0,1-2.37,1.51,5.51,5.51,0,0,1-2.43.6,4,4,0,0,1-.7-.06,2.86,2.86,0,0,1-.69-.2,2.46,2.46,0,0,1-1.32-1.28,5.2,5.2,0,0,1-.43-2.22,10.33,10.33,0,0,1,.47-2.94,15.69,15.69,0,0,1,1.38-3.21c.29-.52.61-1.05,1-1.57a16.8,16.8,0,0,1,1.16-1.48,8.83,8.83,0,0,1-1.36-.75,5.09,5.09,0,0,1-1.06-.93,2.08,2.08,0,0,1-.43-.79,2.82,2.82,0,0,1-.15-.89,1.13,1.13,0,0,1,.36-1,.34.34,0,0,1,.29-.19c.15,0,.22.08.22.26a.76.76,0,0,1-.1.36,1.62,1.62,0,0,0-.12.57,1.42,1.42,0,0,0,.19.71,3.37,3.37,0,0,0,.46.61,5.8,5.8,0,0,0,2.11,1.52,27.67,27.67,0,0,1,3.37-3.11,16.66,16.66,0,0,1,3.95-2.29,11.56,11.56,0,0,1,4.44-.87,4.93,4.93,0,0,1,3.05.85,2.64,2.64,0,0,1,1.1,2.2,3,3,0,0,1-.38,1.4,4.63,4.63,0,0,1-1.25,1.47,7.66,7.66,0,0,1-2.29,1.22,14.15,14.15,0,0,1-3.54.71l-1.33.11q-.58,0-1.26,0a17.11,17.11,0,0,1-2.41-.16,15.86,15.86,0,0,1-2.32-.53c-.29.4-.65.94-1.09,1.63s-.88,1.43-1.31,2.21a22.44,22.44,0,0,0-1.08,2.23,13.62,13.62,0,0,0-.58,1.84,7.05,7.05,0,0,0-.19,1.47,2.55,2.55,0,0,0,.55,1.77,2,2,0,0,0,1.49.58,5.15,5.15,0,0,0,2.08-.52,11,11,0,0,0,2.43-1.59,25,25,0,0,0,2.49-2.37,31.93,31.93,0,0,0,2.22-2.69,22.36,22.36,0,0,0,1.63-2.52,3.73,3.73,0,0,1,.79-1.09,1.11,1.11,0,0,1,.65-.33.47.47,0,0,1,.41.21.94.94,0,0,1,.14.54,2,2,0,0,1-.6,1.34,11.58,11.58,0,0,0-1.32,1.82,19.45,19.45,0,0,0-1.15,2.28,11.14,11.14,0,0,0-.72,2.36,6.53,6.53,0,0,0-.1.72c0,.22,0,.42,0,.6a2.19,2.19,0,0,0,.28,1.27.85.85,0,0,0,.73.38,2.27,2.27,0,0,0,1.27-.5,7,7,0,0,0,1.39-1.35c.39-.51.76-1.05,1.12-1.63a17.28,17.28,0,0,0,1-1.8.58.58,0,0,1,.21-.25.56.56,0,0,1,.18-.08c.08,0,.12,0,.12.14a1.28,1.28,0,0,1-.07.29c-.15.32-.34.7-.58,1.15s-.5.91-.79,1.38-.59.91-.89,1.31A6.61,6.61,0,0,1,307,475,3.58,3.58,0,0,1,305,475.61Zm-2.62-12.74c.83,0,1.76-.05,2.79-.14a11.29,11.29,0,0,0,3.45-.8,5.74,5.74,0,0,0,2.26-1.58,3.26,3.26,0,0,0,.79-2.14,1.79,1.79,0,0,0-.88-1.61,4.15,4.15,0,0,0-2.22-.55,9.36,9.36,0,0,0-4.06.88,13.16,13.16,0,0,0-3.36,2.29,33.61,33.61,0,0,0-2.9,3A13.24,13.24,0,0,0,302.4,462.87Z" style="fill: url(#linear-gradient)"/>
        <path d="M312.46,474.17a2.39,2.39,0,0,1-1.92-.66,2.43,2.43,0,0,1-.55-1.62,5.91,5.91,0,0,1,.49-2.25,9.23,9.23,0,0,1,1.16-2.09,5.51,5.51,0,0,1,1.54-1.45,3.18,3.18,0,0,1,1.7-.52,1.77,1.77,0,0,1,1.35.46,1.42,1.42,0,0,1,.33,1.22,1.7,1.7,0,0,1-.45.95,1.16,1.16,0,0,1-.82.47.46.46,0,0,1-.34-.15,6.09,6.09,0,0,0,.41-.57,2.39,2.39,0,0,0,.31-.65,1.69,1.69,0,0,0,.1-.58c0-.4-.19-.6-.58-.6a2,2,0,0,0-1.35.66,8.77,8.77,0,0,0-1.24,1.43,6.19,6.19,0,0,0-.51.9,11,11,0,0,0-.54,1.34,4.61,4.61,0,0,0-.24,1.43,2.52,2.52,0,0,0,.32,1.29,1.17,1.17,0,0,0,1.09.56,2.64,2.64,0,0,0,1.81-.66,6.69,6.69,0,0,0,1.35-1.64c.39-.66.75-1.3,1.07-1.92.09-.2.19-.29.28-.29s.12.06.12.19a.56.56,0,0,1-.07.24q-.57,1.24-1.17,2.28a5,5,0,0,1-1.46,1.63A3.71,3.71,0,0,1,312.46,474.17Z" style="fill: url(#linear-gradient)"/>
        <path d="M321.91,474.15a1.45,1.45,0,0,1-.6-.12,1.32,1.32,0,0,1-.58-.53,1.94,1.94,0,0,1-.26-1.08,5.8,5.8,0,0,1,.22-1.39c-.19.3-.44.67-.74,1.11a8.24,8.24,0,0,1-1,1.17,3.11,3.11,0,0,1-.86.62,1.73,1.73,0,0,1-.75.19,1.14,1.14,0,0,1-1-.56,2.54,2.54,0,0,1-.39-1.48,6.08,6.08,0,0,1,.48-2.18,9.59,9.59,0,0,1,1.56-2.54,5.6,5.6,0,0,1,1.69-1.36,4.32,4.32,0,0,1,2-.52,3.15,3.15,0,0,1,1.06.18,2.24,2.24,0,0,1,.88.59.5.5,0,0,1,.17.39.31.31,0,0,1-.12.24.33.33,0,0,1-.31,0,1.09,1.09,0,0,0-1.13-.84,2.08,2.08,0,0,0-.93.27,6.33,6.33,0,0,0-1.7,1.42,14.31,14.31,0,0,0-1.52,2c-.06.1-.16.28-.3.56a8.81,8.81,0,0,0-.4.91,5.27,5.27,0,0,0-.26,1,1,1,0,0,0,0,.21v.18c0,.52.2.79.6.79a2.42,2.42,0,0,0,1.63-1.06,16,16,0,0,0,1.13-1.6c.33-.57.68-1.17,1-1.81a11.08,11.08,0,0,1,.67-1.08,1,1,0,0,1,.89-.43,2.49,2.49,0,0,1,.53.07,1.26,1.26,0,0,0,.55,0,4.54,4.54,0,0,0-.52.72c-.21.35-.44.75-.68,1.2a14.27,14.27,0,0,0-.65,1.37,8.16,8.16,0,0,0-.41,1.2c0,.09,0,.23-.06.4s0,.31,0,.39c0,.45.12.67.38.67A1.22,1.22,0,0,0,323,473a7.14,7.14,0,0,0,.87-1.12c.29-.45.56-.9.8-1.36s.43-.83.57-1.12.16-.24.29-.24.12.06.12.17a.87.87,0,0,1-.07.27c-.19.4-.43.85-.7,1.35a16.89,16.89,0,0,1-.89,1.47,6.6,6.6,0,0,1-1,1.17A1.83,1.83,0,0,1,321.91,474.15Z" style="fill: url(#linear-gradient)"/>
        <path d="M330.48,474.08a1.28,1.28,0,0,1-1.08-.65,2.06,2.06,0,0,1-.21-.51,2.13,2.13,0,0,1-.1-.69c0-.15,0-.29,0-.45a2.72,2.72,0,0,1,.1-.46c-.22.35-.48.74-.78,1.16a5.6,5.6,0,0,1-1,1.1,1.86,1.86,0,0,1-1.26.47,1.77,1.77,0,0,1-.5-.07,1.54,1.54,0,0,1-.93-.67,2.33,2.33,0,0,1-.27-1.15,5.2,5.2,0,0,1,.3-1.64,9.74,9.74,0,0,1,.77-1.72,8.79,8.79,0,0,1,1-1.44,5.9,5.9,0,0,1,1.65-1.35,4.06,4.06,0,0,1,1.9-.5,3.15,3.15,0,0,1,1.63.45c.24-.44.5-.94.77-1.5s.54-1.1.82-1.64.51-1,.72-1.5.36-.8.48-1a2.56,2.56,0,0,1,.68-1.07,1.35,1.35,0,0,1,.78-.23,3.28,3.28,0,0,1,.59.06,2.7,2.7,0,0,0,.63,0,6.84,6.84,0,0,0-.58.82q-.45.69-1.05,1.74c-.4.71-.83,1.48-1.28,2.32s-.91,1.69-1.35,2.54-.84,1.67-1.22,2.43-.68,1.41-.9,1.95a6.88,6.88,0,0,0-.28.78,3.66,3.66,0,0,0-.18,1,1,1,0,0,0,.15.54.51.51,0,0,0,.48.22,1.31,1.31,0,0,0,.92-.47,6.57,6.57,0,0,0,.9-1.15,14.3,14.3,0,0,0,.77-1.34c.22-.44.39-.79.5-1.05s.18-.26.29-.26.15.07.15.22v.08a.27.27,0,0,1-.05.13c-.15.34-.34.75-.59,1.25a12.89,12.89,0,0,1-.88,1.49,5.14,5.14,0,0,1-1.12,1.23A2.15,2.15,0,0,1,330.48,474.08Zm-4.15-.72a1.58,1.58,0,0,0,.84-.38,4.9,4.9,0,0,0,1.08-1.18c.45-.64,1-1.44,1.54-2.4s1.14-2,1.7-3a1,1,0,0,0-.72-.29,2.56,2.56,0,0,0-1.5.63,9.18,9.18,0,0,0-1.61,1.58,12.49,12.49,0,0,0-1.31,1.94,6,6,0,0,0-.51,1.23,3.36,3.36,0,0,0-.16,1C325.68,473,325.9,473.36,326.33,473.36Z" style="fill: url(#linear-gradient)"/>
        <path d="M335.74,474.17a2.49,2.49,0,0,1-1.6-.57,2.15,2.15,0,0,1-.71-1.76,5.92,5.92,0,0,1,.53-2.31,7.8,7.8,0,0,1,1.35-2.17,6.35,6.35,0,0,1,1.55-1.35,3.22,3.22,0,0,1,1.64-.53,1.5,1.5,0,0,1,.91.29,1.07,1.07,0,0,1,.41.89,2.56,2.56,0,0,1-.46,1.32,5.07,5.07,0,0,1-1.29,1.34,4.87,4.87,0,0,1-.92.51,9.73,9.73,0,0,1-1.1.4,3.62,3.62,0,0,1-.91.15,4.55,4.55,0,0,0-.23.77,4.6,4.6,0,0,0-.11,1,2.38,2.38,0,0,0,.24,1.08.91.91,0,0,0,.89.48,2.46,2.46,0,0,0,1.44-.45,5.18,5.18,0,0,0,1.15-1.14,9.36,9.36,0,0,0,.85-1.38l.57-1.18c.09-.22.22-.34.38-.34a.11.11,0,0,1,.12.12.49.49,0,0,1-.07.24c-.23.48-.46,1-.72,1.53a9.61,9.61,0,0,1-.91,1.51,4.54,4.54,0,0,1-1.26,1.14A3.35,3.35,0,0,1,335.74,474.17Zm-.43-4.22a4.63,4.63,0,0,0,1.12-.25,4.12,4.12,0,0,0,1.44-.81,4,4,0,0,0,1-1.21,2.5,2.5,0,0,0,.34-1.12c0-.35-.13-.52-.39-.52a1.48,1.48,0,0,0-.79.38,8.84,8.84,0,0,0-1.25,1.3,12.91,12.91,0,0,0-.86,1.24Q335.48,469.64,335.31,470Z" style="fill: url(#linear-gradient)"/>
        <path d="M337.73,474.2q.88-1.71,1.68-3.42c.53-1.15,1.06-2.23,1.61-3.26a6.55,6.55,0,0,1,.8-1.21,1.16,1.16,0,0,1,.88-.35,1.49,1.49,0,0,1,.4.06,1.67,1.67,0,0,0,.44.06.62.62,0,0,0,.21,0,3.32,3.32,0,0,0-.86.95q-.52.75-1.08,1.74c-.37.65-.7,1.27-1,1.85.31-.37.62-.74.95-1.11a9.88,9.88,0,0,1,1.09-1.05c.36-.31.73-.64,1.12-1a9.14,9.14,0,0,1,1.16-.92,1.9,1.9,0,0,1,1-.39.51.51,0,0,1,.22,0,.63.63,0,0,1,.45.62,1.23,1.23,0,0,1-.12.43,10.54,10.54,0,0,1-.8,1.67c-.33.57-.64,1.14-.92,1.72l.9-1.06a11.21,11.21,0,0,1,2.43-2.11,14.77,14.77,0,0,1,1.61-.91,3.11,3.11,0,0,1,1.27-.39.7.7,0,0,1,.24,0c-.35.62-.66,1.18-.92,1.69s-.53,1-.81,1.61-.51,1.11-.73,1.63a7.4,7.4,0,0,0-.42,1.31,2.39,2.39,0,0,0-.07.57.69.69,0,0,0,.14.51.49.49,0,0,0,.32.12,1.43,1.43,0,0,0,1-.51,7.23,7.23,0,0,0,1-1.21c.31-.47.59-.94.83-1.39s.42-.8.53-1.05.19-.26.29-.26.14.06.14.19a.6.6,0,0,1-.07.27l-.69,1.32a12.94,12.94,0,0,1-.9,1.5,5.69,5.69,0,0,1-1.11,1.22,2.06,2.06,0,0,1-1.31.49,1.87,1.87,0,0,1-1-.33,1.4,1.4,0,0,1-.52-1.25,4.58,4.58,0,0,1,.22-1.23,6.56,6.56,0,0,1,.52-1.1c.23-.41.51-.9.85-1.44a1.41,1.41,0,0,0,.24-.65.26.26,0,0,0-.29-.29,1.61,1.61,0,0,0-.66.24,5.58,5.58,0,0,0-1,.84,9.8,9.8,0,0,0-.9,1q-.53.65-1.05,1.38a15,15,0,0,0-.91,1.46,4.91,4.91,0,0,0-.5,1.28.68.68,0,0,1-.58-.3,1.22,1.22,0,0,1-.22-.71v-.15a.55.55,0,0,1,0-.16,6.86,6.86,0,0,1,.38-1.4c.18-.43.38-.88.6-1.34s.35-.7.53-1.09a2.33,2.33,0,0,0,.26-.9c0-.13,0-.19-.14-.19a1.2,1.2,0,0,0-.55.25,9.4,9.4,0,0,0-1.06.87,17.93,17.93,0,0,0-1.45,1.66,18.4,18.4,0,0,0-1.86,3.07.63.63,0,0,1-.34.33,2.11,2.11,0,0,1-.6.06h-.44A.92.92,0,0,0,337.73,474.2Z" style="fill: url(#linear-gradient)"/>
        <path d="M349,481.73a2.6,2.6,0,0,1-1.78-.49,1.55,1.55,0,0,1-.52-1.16,2,2,0,0,1,.09-.63c.07-.17.16-.4.29-.67a3.63,3.63,0,0,1,.94-1.2,5.17,5.17,0,0,1,1.29-.81,13.81,13.81,0,0,1,2.85-.94c1.06-.24,2.08-.51,3.06-.79a13.93,13.93,0,0,0,.84-1.81c.25-.69.48-1.35.69-2l.51-1.59c-.2.35-.44.78-.74,1.28a13.63,13.63,0,0,1-1,1.48,6.45,6.45,0,0,1-1.19,1.2,2.17,2.17,0,0,1-1.33.48,2.14,2.14,0,0,1-.64-.12,1.42,1.42,0,0,1-.65-.45,1.48,1.48,0,0,1-.27-1,2.61,2.61,0,0,1,.3-1.21c.2-.39.39-.77.56-1.14a.3.3,0,0,1-.15-.05A.15.15,0,0,1,352,470a.49.49,0,0,1,.05-.2c.06-.12.14-.26.22-.4a3.82,3.82,0,0,0,.21-.46c.24-.5.48-1,.72-1.43s.45-.86.63-1.21a.93.93,0,0,1,.91-.53h1.49l-.42.33a1.69,1.69,0,0,0-.47.54c-.43.73-.81,1.44-1.13,2.12l-1,2.17a5.72,5.72,0,0,0-.39,1,3.16,3.16,0,0,0-.12.79c0,.53.18.79.53.79s.85-.31,1.39-.93A16.6,16.6,0,0,0,356,470.7q.69-1.08,1.32-2.25c.42-.78.8-1.49,1.12-2.15a.94.94,0,0,1,.93-.53h1.32A3.24,3.24,0,0,0,359.6,467c-.24.51-.52,1.17-.82,2s-.66,1.79-.95,2.72-.63,1.88-1,2.82a10.73,10.73,0,0,0,1.79-.81,4.92,4.92,0,0,0,1.69-1.59,15.28,15.28,0,0,0,.95-1.57l.56-1.09q.1-.24.27-.24c.11,0,.17.07.17.21a.63.63,0,0,1-.08.27q-.62,1.25-1.11,2.1a7.68,7.68,0,0,1-1.08,1.46,5.9,5.9,0,0,1-1.43,1.08,15.56,15.56,0,0,1-2.14.95c-.38.69-.82,1.4-1.3,2.15a15.08,15.08,0,0,1-1.66,2.09,8.48,8.48,0,0,1-2,1.58A5,5,0,0,1,349,481.73Zm-.58-.48a3.31,3.31,0,0,0,1.64-.48,8.92,8.92,0,0,0,1.63-1.21,18.38,18.38,0,0,0,1.45-1.49,16.85,16.85,0,0,0,1.07-1.33,3.72,3.72,0,0,0,.26-.43c.1-.18.19-.35.29-.51l-2.58.69a16.09,16.09,0,0,0-2.44.83,4.2,4.2,0,0,0-1.81,1.37,2.75,2.75,0,0,0-.66,1.58,1,1,0,0,0,.28.71A1.21,1.21,0,0,0,348.38,481.25Z" style="fill: url(#linear-gradient)"/>
      </g>
    </g>
    <g id="Layer_9" data-name="Layer 9">
      <rect x="115.6" y="439.1" width="343.83" height="1.3" style="fill: url(#linear-gradient-15)"/>
    </g>
    <g>
      <path d="M121.11,408.63c0-3.1-.17-3.9-2.06-4.07l-1.34-.13a.67.67,0,0,1,0-1.05c2.27-.21,5.12-.33,9-.33a16.08,16.08,0,0,1,7.06,1.17,5.53,5.53,0,0,1,3.19,5.25c0,3-1.76,4.58-4.28,5.76,0,.42.33.54.79.63a7,7,0,0,1,5.63,7c0,4.88-3.61,8.15-11.17,8.15-1.22,0-3.28-.12-5-.12s-3.28.08-4.83.12a.82.82,0,0,1-.09-1l.76-.12c2.23-.38,2.31-.84,2.31-5.25Zm3.44,5.59c0,1.18,0,1.26,2.19,1.18,4.28-.17,6.59-1.43,6.59-5.38,0-4.12-3.06-5.67-6.26-5.67a5.15,5.15,0,0,0-1.93.25c-.42.13-.59.34-.59,1.09Zm0,9.75c0,1.51.09,3.65.89,4.58a4.08,4.08,0,0,0,3.32,1.17c3.73,0,6.59-1.68,6.59-5.88,0-3.32-1.68-7.18-8.36-7.18-2.27,0-2.44.25-2.44,1.09Z" style="fill: url(#linear-gradient-16)"/>
      <path d="M146.52,409.47c0-4.37-.08-5-2.56-5.29l-.68-.08c-.25-.17-.16-.93.09-1.05,1.81.08,3.23.12,5,.12h7.89c2.69,0,5.17,0,5.67-.12a45.62,45.62,0,0,1,.68,5.58.82.82,0,0,1-1,.09c-.63-2-1-3.45-3.2-4a20,20,0,0,0-4.07-.25h-3c-1.26,0-1.26.08-1.26,1.68v8.4c0,1.17.13,1.17,1.39,1.17h2.44a15.56,15.56,0,0,0,3.57-.25c.5-.17.8-.42,1-1.47l.33-1.72c.21-.25.93-.25,1.09,0,0,1-.16,2.65-.16,4.24s.16,3.11.16,4c-.16.29-.88.29-1.09,0l-.38-1.64a1.78,1.78,0,0,0-1.3-1.6,14.49,14.49,0,0,0-3.23-.21h-2.44c-1.26,0-1.39.05-1.39,1.14v5.92c0,2.23.13,3.66.8,4.37.51.5,1.39,1,5.08,1,3.24,0,4.46-.17,5.38-.63.76-.42,1.89-1.89,3-4.08a.77.77,0,0,1,1.05.3,35.9,35.9,0,0,1-1.89,5.83c-3.78-.08-7.52-.12-11.25-.12h-3.78c-1.81,0-3.24,0-5.72.12a.82.82,0,0,1-.08-1l1.38-.12c2.4-.21,2.61-.84,2.61-5.25Z" style="fill: url(#linear-gradient-16)"/>
      <path d="M171.05,409.47c0-4.41-.09-5.08-2.73-5.29l-1-.08c-.26-.17-.17-.93.08-1.05,2.35.08,3.78.12,5.46.12s3.07,0,5.17-.12c.25.12.33.88.08,1.05l-1,.08c-2.47.21-2.56.88-2.56,5.29v14.62c0,2.65.13,3.74.88,4.54.47.46,1.26,1,4.58,1,3.57,0,4.46-.17,5.13-.55a9,9,0,0,0,2.77-4.16c.25-.21,1.05,0,1.05.25a34.28,34.28,0,0,1-1.76,5.88c-2.15-.08-6.14-.12-10.46-.12h-3.87c-1.76,0-3.11,0-5.46.12a.81.81,0,0,1-.08-1l1.26-.12c2.43-.25,2.52-.84,2.52-5.25Z" style="fill: url(#linear-gradient-16)"/>
      <path d="M194.27,409.47c0-4.41-.08-5.08-2.73-5.29l-1-.08a.82.82,0,0,1,.09-1.05c2.35.08,3.78.12,5.46.12s3.06,0,5.16-.12a.82.82,0,0,1,.09,1.05l-1,.08c-2.48.21-2.56.88-2.56,5.29v14.62c0,2.65.12,3.74.88,4.54.46.46,1.26,1,4.58,1,3.57,0,4.45-.17,5.12-.55a9,9,0,0,0,2.78-4.16c.25-.21,1,0,1,.25a33.54,33.54,0,0,1-1.77,5.88c-2.14-.08-6.13-.12-10.46-.12H196c-1.77,0-3.11,0-5.46.12-.26-.12-.34-.79-.09-1l1.26-.12c2.44-.25,2.52-.84,2.52-5.25Z" style="fill: url(#linear-gradient-16)"/>
      <path d="M217.5,409.47c0-4.37-.09-5-2.56-5.29l-.68-.08c-.25-.17-.16-.93.09-1.05,1.8.08,3.23.12,5,.12h7.9c2.69,0,5.17,0,5.67-.12a45.62,45.62,0,0,1,.68,5.58.82.82,0,0,1-1.05.09c-.63-2-1-3.45-3.2-4a20,20,0,0,0-4.07-.25h-3c-1.26,0-1.26.08-1.26,1.68v8.4c0,1.17.13,1.17,1.39,1.17h2.44a15.56,15.56,0,0,0,3.57-.25c.5-.17.8-.42,1-1.47l.34-1.72c.21-.25.93-.25,1.09,0,0,1-.16,2.65-.16,4.24s.16,3.11.16,4c-.16.29-.88.29-1.09,0L229.3,419a1.78,1.78,0,0,0-1.3-1.6,14.55,14.55,0,0,0-3.23-.21h-2.44c-1.26,0-1.39.05-1.39,1.14v5.92c0,2.23.13,3.66.8,4.37.51.5,1.39,1,5.08,1,3.24,0,4.46-.17,5.38-.63.76-.42,1.89-1.89,3-4.08a.77.77,0,0,1,1,.3,35.9,35.9,0,0,1-1.89,5.83c-3.78-.08-7.52-.12-11.25-.12H219.3c-1.8,0-3.23,0-5.71.12a.82.82,0,0,1-.08-1l1.38-.12c2.4-.21,2.61-.84,2.61-5.25Z" style="fill: url(#linear-gradient-16)"/>
      <path d="M251.44,411.91c2.18-3.11,3.4-4.7,4.07-6a2.76,2.76,0,0,0,.51-1.14c0-.21-.42-.33-1.52-.33h-6.26c-3.36,0-5.25.29-6.25,1.38a11.48,11.48,0,0,0-1.85,2.86.82.82,0,0,1-1-.3c.5-1.47,1.21-4,1.72-6.3a.74.74,0,0,1,.71,0c.13,1,.76,1.05,4.16,1.05h11.09a45.55,45.55,0,0,0,4.83-.12.36.36,0,0,1,.25.38c-1.13,1-4.7,5.83-6.88,9l-6.94,10c-.46.67-4.15,5.88-4.15,6.51,0,.42.42.51,1.17.59,1.09.09,3.28.09,6.22.09,2.69,0,6.17-.09,7.77-1a8.1,8.1,0,0,0,2.94-3.86c.38-.13.93-.09,1,.29a23.93,23.93,0,0,1-1.89,6c-2.31-.08-4.7-.12-7.64-.12H242.7c-2.23,0-3.74.08-4.71.12a.53.53,0,0,1-.21-.5,52.4,52.4,0,0,0,4.58-5.71Z" style="fill: url(#linear-gradient-16)"/>
      <path d="M281.17,421.15c-.29-.92-.46-1-1.72-1h-6.34c-1.05,0-1.31.13-1.6,1L270,425.52a16,16,0,0,0-.92,3.49c0,.5.21.75,1.21.84l1.39.12a.68.68,0,0,1-.08,1c-1.1-.08-2.4-.08-4.37-.12-1.39,0-2.9.08-4,.12a.82.82,0,0,1-.09-1l1.39-.12a2.81,2.81,0,0,0,2.52-2.06c.75-1.93,1.93-4.66,3.69-9.37L275,407.08c.59-1.51.84-2.31.71-3a4.73,4.73,0,0,0,2.19-1.6.59.59,0,0,1,.63.38c.54,1.85,1.22,3.78,1.85,5.63l5.75,16.88c1.22,3.62,1.77,4.25,3.57,4.46l1.14.12a.83.83,0,0,1,0,1c-1.73-.08-3.2-.12-5.09-.12s-3.61.08-4.83.12a.7.7,0,0,1-.08-1l1.22-.12c.88-.09,1.47-.34,1.47-.76a8.55,8.55,0,0,0-.55-2.23Zm-8.31-3.74c-.34,1-.3,1,.88,1h5.16c1.22,0,1.31-.17.93-1.3l-2.27-6.85a25.7,25.7,0,0,0-1-2.64h-.08a23.38,23.38,0,0,0-1,2.47Z" style="fill: url(#linear-gradient-16)"/>
      <path d="M310.15,431.57A13.13,13.13,0,0,1,303.6,430a19.45,19.45,0,0,1-1.14-5.89c.21-.29.84-.37,1-.12.63,2.14,2.35,6.26,7.23,6.26,3.53,0,5.25-2.31,5.25-4.83,0-1.85-.38-3.91-3.45-5.88l-4-2.61c-2.1-1.39-4.53-3.78-4.53-7.22,0-4,3.1-7.23,8.56-7.23a15.9,15.9,0,0,1,3.91.55,5.61,5.61,0,0,0,1.47.25,18.29,18.29,0,0,1,.76,5.12c-.17.26-.84.38-1.05.13-.55-2-1.68-4.75-5.72-4.75s-5,2.73-5,4.67c0,2.43,2,4.2,3.57,5.16l3.36,2.1c2.64,1.64,5.25,4.08,5.25,8.07C319.1,428.42,315.61,431.57,310.15,431.57Z" style="fill: url(#linear-gradient-16)"/>
      <path d="M336.74,424.6c0,4.41.08,5,2.52,5.25l1.34.12c.25.17.17.93-.08,1-2.4-.08-3.82-.12-5.5-.12s-3.16,0-5.84.12a.72.72,0,0,1,0-1l1.51-.12c2.39-.21,2.6-.84,2.6-5.25V405.82c0-1.3,0-1.34-1.26-1.34h-2.31c-1.8,0-4.11.08-5.16,1a7.57,7.57,0,0,0-1.89,2.89.81.81,0,0,1-1.1-.29,44,44,0,0,0,1.6-6.26,1.06,1.06,0,0,1,.8,0c.25,1.35,1.64,1.3,3.57,1.3h17c2.27,0,2.65-.08,3.28-1.17.21-.09.67-.05.75.12a25.88,25.88,0,0,0-.63,6.39c-.16.33-.88.33-1.09.08-.12-1-.42-2.6-1.05-3.06-1-.72-2.56-1-4.87-1h-3c-1.26,0-1.22,0-1.22,1.42Z" style="fill: url(#linear-gradient-16)"/>
      <path d="M363.62,424.51c0,4.5.25,5.17,2.52,5.34l1.59.12a.81.81,0,0,1-.08,1c-2.61-.08-4-.12-5.71-.12s-3.28,0-5.51.12a.82.82,0,0,1-.08-1l1.3-.12c2.44-.25,2.52-.84,2.52-5.34v-2.14a8.44,8.44,0,0,0-1.34-5.21l-5-9.66c-1.43-2.77-2.06-3-3.32-3.19l-1.17-.21a.76.76,0,0,1,.08-1.05c1.34.08,2.86.12,4.87.12s3.45,0,4.5-.12c.38.12.38.8.12,1.05l-.54.08c-1.47.21-1.77.42-1.77.76a20.84,20.84,0,0,0,1.31,3.23c1.55,3.11,3.1,6.43,4.74,9.33,1.3-2.23,2.69-4.67,3.95-7.1,1.18-2.19,2.73-5,2.73-5.55,0-.25-.76-.54-1.76-.67l-.76-.08a.7.7,0,0,1,.08-1.05c1.52.08,2.73.12,4,.12s2.48,0,3.9-.12a.7.7,0,0,1,.09,1.05l-1.18.21c-2.18.38-3.44,3-5.54,6.63l-2.65,4.58c-1.85,3.2-2,3.57-2,6.81Z" style="fill: url(#linear-gradient-16)"/>
      <path d="M379,409.47c0-4.41-.09-5.08-2.73-5.29l-1.05-.08c-.26-.17-.17-.93.08-1.05,2.35.08,3.78.12,5.46.12s3.07,0,5.17-.12c.25.12.33.88.08,1.05l-1,.08c-2.48.21-2.56.88-2.56,5.29v14.62c0,2.65.13,3.74.88,4.54.47.46,1.26,1,4.58,1,3.57,0,4.45-.17,5.13-.55a9,9,0,0,0,2.77-4.16c.25-.21,1,0,1,.25a33.54,33.54,0,0,1-1.77,5.88c-2.14-.08-6.13-.12-10.46-.12h-3.86c-1.76,0-3.11,0-5.46.12a.81.81,0,0,1-.08-1l1.26-.12c2.43-.25,2.52-.84,2.52-5.25Z" style="fill: url(#linear-gradient-16)"/>
      <path d="M402.21,409.56c0-4.46-.08-5.17-2.56-5.38l-1-.08c-.25-.17-.17-.93.08-1.05,2.1.08,3.53.12,5.3.12s3.1,0,5.21-.12c.25.12.33.88.08,1.05l-1,.08c-2.48.21-2.56.92-2.56,5.38v14.95c0,4.46.08,5,2.56,5.34l1,.12c.25.17.17.93-.08,1-2.11-.08-3.53-.12-5.21-.12s-3.2,0-5.3.12a.82.82,0,0,1-.08-1l1-.12c2.48-.3,2.56-.88,2.56-5.34Z" style="fill: url(#linear-gradient-16)"/>
      <path d="M420.44,431.57a13.13,13.13,0,0,1-6.55-1.55,19.45,19.45,0,0,1-1.14-5.89c.21-.29.84-.37,1-.12.63,2.14,2.35,6.26,7.23,6.26,3.53,0,5.25-2.31,5.25-4.83,0-1.85-.38-3.91-3.45-5.88l-4-2.61c-2.1-1.39-4.53-3.78-4.53-7.22,0-4,3.1-7.23,8.56-7.23a15.9,15.9,0,0,1,3.91.55,5.61,5.61,0,0,0,1.47.25,18.29,18.29,0,0,1,.76,5.12c-.17.26-.84.38-1.05.13-.55-2-1.68-4.75-5.72-4.75s-5,2.73-5,4.67c0,2.43,2,4.2,3.57,5.16l3.36,2.1c2.64,1.64,5.25,4.08,5.25,8.07C429.39,428.42,425.9,431.57,420.44,431.57Z" style="fill: url(#linear-gradient-16)"/>
      <path d="M447,424.6c0,4.41.08,5,2.52,5.25l1.34.12c.25.17.17.93-.08,1-2.4-.08-3.82-.12-5.5-.12s-3.15,0-5.84.12a.72.72,0,0,1,0-1l1.51-.12c2.39-.21,2.6-.84,2.6-5.25V405.82c0-1.3,0-1.34-1.26-1.34H440c-1.8,0-4.11.08-5.16,1a7.57,7.57,0,0,0-1.89,2.89.81.81,0,0,1-1.1-.29,44,44,0,0,0,1.6-6.26,1.06,1.06,0,0,1,.8,0c.25,1.35,1.64,1.3,3.57,1.3h17c2.27,0,2.65-.08,3.28-1.17.21-.09.67-.05.75.12a25.88,25.88,0,0,0-.63,6.39c-.16.33-.88.33-1.09.08-.12-1-.42-2.6-1-3.06-1-.72-2.56-1-4.87-1h-3c-1.26,0-1.22,0-1.22,1.42Z" style="fill: url(#linear-gradient-16)"/>
    </g>
  </g>
  <g id="Layer_12" data-name="Layer 12">
    <g id="Layer_14" data-name="Layer 14">
      <path d="M400,343.22c.95,2.24-3.15,7.14,10.78,13.64-18.17-1.09-19.58-9.67-19.58-9.67l-1.85.61c2.44,4.07,4.49,8.37,11.49,10.93-12.69.49-16.54-6.43-16.54-6.43l-1.22.78c1.3,3.57,4,6.32,8.78,7.53h0c-6.27,1.1-14.21-.62-18.05-4.06l-9.06.54s48.95-7.49,75.94-67.79c0,0,9.82,26.52,36.61,14.13-7.53,10-24.69,22.86-47.37,14.05a34.19,34.19,0,0,0,34.3,5.75c-19.46,19.42-41.73,8.43-44.05,5.29-.42-.57.3-.75.49-.06.45,1.65.61,5,5.69,8.15,4.31,2.65,14.17,3.93,19.16,3.17-22.18,8.77-32-2.22-32-2.22-.66.25.65-.21,0,0,0,0-1.35,9.44,17.56,10.53-7.91,4-19.87,3.81-25.87-6.39-.79.13.93-1.11.14-1,.27.82.31,4.38,2.49,7.05a15.37,15.37,0,0,0,10.65,5.69c-16.94-.08-20.45-9-20.45-9" style="fill: url(#linear-gradient-30)"/>
    </g>
    <path d="M445,269.43c-.39,4.41-1,8.81-1.8,13.18a119.64,119.64,0,0,1-3.27,13A104,104,0,0,1,428.59,320a102,102,0,0,1-17.52,20.65,111.9,111.9,0,0,1-22.28,15.47,127,127,0,0,1-25.15,10,149.8,149.8,0,0,1-26.53,5,166.25,166.25,0,0,1-27,.28q-6.73-.48-13.41-1.51c-2.26-.34-4.4-.75-6.56-1.13s-4.42-.83-6.6-1.3a154.37,154.37,0,0,1-25.69-8.12q-6.21-2.55-12.21-5.44c-4-1.94-7.92-4-11.8-6.07-15.53-8.29-30.22-17.7-46-24.22a87.27,87.27,0,0,0-24.52-6.48,65.89,65.89,0,0,0-25,2.23,42.86,42.86,0,0,0-11.31,5,23,23,0,0,0-8.13,8.5,15.47,15.47,0,0,0-1.09,11.09,16.32,16.32,0,0,0,2.48,5.13,22.41,22.41,0,0,0,4,4.32c6.12,5.14,14.61,7.08,22.73,7.18,8.17-.08,16.46-2.27,24.31-5.29,15.78-6.16,30.14-15.82,43.38-26.61,6.61-5.44,13-11.2,19.13-17.19s12-12.3,17.81-18.65c11.48-12.83,22.28-26.31,32.61-40.16l7.8-10.48c2.65-3.52,5.25-7.07,8-10.52s5.4-7,8.23-10.35,5.56-6.84,8.47-10.17l4.32-5c1.45-1.67,3-3.28,4.43-4.93l4.45-4.9,4.56-4.81c3-3.23,6.18-6.32,9.28-9.47,1.54-1.58,3.18-3.07,4.78-4.6s3.19-3.06,4.86-4.52q9.78-9,20.28-17.18a253,253,0,0,1,21.88-15.19,173.9,173.9,0,0,1,23.74-12.23,122.33,122.33,0,0,1,12.66-4.42c2.16-.6,4.36-1.11,6.57-1.54,1.11-.2,2.22-.4,3.36-.54a34,34,0,0,1,3.52-.28l.15,3.68c-.87.12-2,.35-3,.59s-2,.51-3.05.8c-2,.61-4,1.29-6,2.07a114.75,114.75,0,0,0-11.67,5.22,178.49,178.49,0,0,0-21.9,13.37,247.31,247.31,0,0,0-20.29,15.84c-6.51,5.61-12.87,11.4-19,17.49a502.89,502.89,0,0,0-34.74,38.32c-2.79,3.29-5.45,6.7-8.15,10.08s-5.31,6.82-8,10.23-5.21,6.91-7.78,10.39l-7.82,10.53c-2.61,3.56-5.35,7-8.05,10.5s-5.54,6.88-8.35,10.29-5.71,6.74-8.68,10c-1.49,1.64-2.93,3.31-4.44,4.93l-4.53,4.86a307.26,307.26,0,0,1-39.59,35.52c-14.29,10.57-29.79,19.89-46.89,25.7-8.53,2.87-17.51,4.86-26.83,4.61a47.87,47.87,0,0,1-6.92-.75,46.91,46.91,0,0,1-6.74-1.72,35.42,35.42,0,0,1-12.24-6.93,24.83,24.83,0,0,1-7.77-12.06,20.85,20.85,0,0,1-.56-7.31,20.12,20.12,0,0,1,2.11-7.06,28,28,0,0,1,9.72-10.26,47.79,47.79,0,0,1,12.5-5.65,68.81,68.81,0,0,1,13.29-2.53,76.17,76.17,0,0,1,13.51-.2,100.66,100.66,0,0,1,26.2,5.91,247.25,247.25,0,0,1,24.37,10.54l23.47,11.56c3.9,1.87,7.81,3.68,11.74,5.39s7.88,3.38,11.86,4.88a173.06,173.06,0,0,0,24.32,7.29c2.08.43,4.07.83,6.25,1.17s4.28.81,6.34,1.13c4.17.68,8.38,1.18,12.6,1.51a155.61,155.61,0,0,0,25.36-.06,134.62,134.62,0,0,0,48.62-13,104.51,104.51,0,0,0,21.07-13.7,94.83,94.83,0,0,0,17-18.52,100.67,100.67,0,0,0,11.82-22.42,111.73,111.73,0,0,0,3.87-12.21A128.35,128.35,0,0,0,441.32,269Z" style="fill: url(#linear-gradient-31)"/>
    <g id="Layer_13" data-name="Layer 13">
      <path d="M284.65,166a46.59,46.59,0,0,1,9.52,27.6c.3,10-2.59,19.87-7.06,28.69a87.36,87.36,0,0,1-7.82,12.62,95.84,95.84,0,0,1-9.66,11.29,83.36,83.36,0,0,1-24.48,17.15,74,74,0,0,1-14.35,4.87,70.23,70.23,0,0,1-7.54,1.29c-1.28.13-2.56.24-3.87.3-.65,0-1.3,0-2,0h-1l-.54,0c-.11,0-.61-.05-.71-.07a51.05,51.05,0,0,1-7.65-1.65,62.88,62.88,0,0,1-7.23-2.7,57.53,57.53,0,0,1-6.84-3.64,49.5,49.5,0,0,1-6.34-4.58A43.47,43.47,0,0,1,177,245.07a45.56,45.56,0,0,1-5.13-14.87c-.2-1.29-.38-2.57-.49-3.87l-.13-2,0-2a46.1,46.1,0,0,1,.72-7.88,53.41,53.41,0,0,1,5-14.72c4.66-9.19,11.22-17,18.36-23.9a170.29,170.29,0,0,1,23.17-18.44A219.69,219.69,0,0,1,244,142.62c4.61-2.18,9.12-4,13.76-5.67s9.28-3.23,14-4.63c18.84-5.51,38.54-8.83,58.49-8.24a126.57,126.57,0,0,1,29.69,4.3,103.36,103.36,0,0,1,27.77,12.08,100.76,100.76,0,0,1,22.87,19.91c.84.95,1.63,1.93,2.41,2.92l1.17,1.48.3.37.39.53.62.92a42.64,42.64,0,0,1,3.72,7.35,42.52,42.52,0,0,1-.17,32,53.91,53.91,0,0,1-8.2,13.64,72.22,72.22,0,0,1-11,10.86c-1,.81-2,1.56-3,2.32s-2.06,1.46-3.12,2.14c-2.09,1.41-4.24,2.69-6.42,3.91l-1.65.9-.82.45-.47.25-.49.24c-1.23.6-2.42,1.08-3.62,1.55a74.24,74.24,0,0,1-7.27,2.37,94.21,94.21,0,0,1-14.83,2.77c-2.5.27-5,.43-7.5.51s-5,.08-7.59-.07a9,9,0,0,1-1.15-.14c-.35,0-.69-.11-1-.18a18.92,18.92,0,0,1-2.09-.54,13.12,13.12,0,0,1-2.22-.94,7,7,0,0,1-2.41-2.08,5.52,5.52,0,0,1-.91-4.1c0-.16.06-.34.09-.47l.09-.34a5.25,5.25,0,0,1,.22-.67,8,8,0,0,1,.62-1.33,9.18,9.18,0,0,1,4.33-3.77,17.22,17.22,0,0,1,9.28-.86,25.73,25.73,0,0,1,8.31,2.71l1.64.87,1.58.82c1.07.55,2.18,1.12,3.29,1.73a61.35,61.35,0,0,1,6.61,4.19,41.43,41.43,0,0,1,11.14,12.1,46.23,46.23,0,0,1,5.72,15.56c.25,1.35.41,2.69.57,4s.23,2.67.26,4.07a49.75,49.75,0,0,1-.51,8.21,56.9,56.9,0,0,1-4.6,15.4,70.39,70.39,0,0,1-19.09,24.6,83.92,83.92,0,0,1-12.69,8.74c-2.22,1.28-4.52,2.4-6.83,3.47-1.16.53-2.33,1-3.51,1.52s-2.42,1-3.66,1.36a55.94,55.94,0,0,1-31,1.72,43.94,43.94,0,0,1-14.56-6.37,31.2,31.2,0,0,1-3.24-2.57,21.74,21.74,0,0,1-2.95-3.26c-.23-.31-.45-.66-.66-1l-.55-.94c-.34-.63-.66-1.28-.94-1.94a22.69,22.69,0,0,1-1.32-4.09A24.41,24.41,0,0,1,283.12,307a35,35,0,0,1,10.29-11.85,59.15,59.15,0,0,1,13.2-7.35,87.39,87.39,0,0,1,14.14-4.36,147.4,147.4,0,0,1,29-3.26l.11,1.64a158.42,158.42,0,0,0-28.11,5.36,91,91,0,0,0-13.17,5A53.5,53.5,0,0,0,297,299.56a29.85,29.85,0,0,0-8,10.24,17.4,17.4,0,0,0-1.12,11.8,15.22,15.22,0,0,0,1,2.73c.21.44.45.86.7,1.28l.4.61.37.48a18.61,18.61,0,0,0,4.55,3.75,36.24,36.24,0,0,0,12,4.6,46.85,46.85,0,0,0,25.85-2.61c1-.37,2-.83,3.08-1.25s2.06-.95,3.07-1.45c2-1,4-2.09,5.95-3.28a73,73,0,0,0,10.84-8,61.74,61.74,0,0,0,15.54-21.13,45.44,45.44,0,0,0,3.41-12.28,38.1,38.1,0,0,0,.25-6.21c0-1-.15-2.06-.26-3.13s-.29-2.09-.51-3.11a34.15,34.15,0,0,0-4.4-11.35,45.2,45.2,0,0,0-7.91-9.46c-1.58-1.46-3.27-2.89-5.08-4.31L354,245.32l-1.47-1.13-.76-.59-.37-.29-.26-.21a16.19,16.19,0,0,0-5-2.75,9.84,9.84,0,0,0-5-.52,2.11,2.11,0,0,0-1.21.65,1.62,1.62,0,0,0-.19.29s-.05.12-.09.17l0,.1s0,0,0,0a2.55,2.55,0,0,0-.05-.35.84.84,0,0,0-.16-.31c-.1-.09,0,.1.29.27a5.75,5.75,0,0,0,1.08.52,10.79,10.79,0,0,0,1.39.41c.25.06.5.12.75.16a5.07,5.07,0,0,0,.63.1,60.39,60.39,0,0,0,6.87.05,60.75,60.75,0,0,0,13.65-2.28,62.06,62.06,0,0,0,6.54-2.21,65.92,65.92,0,0,0,6.21-2.84c1-.52,2-1.08,2.87-1.63l2.77-1.87c1.89-1.36,3.79-2.69,5.62-4.09s3.6-2.85,5.33-4.33a73.89,73.89,0,0,0,9.47-9.5c5.58-6.8,9.14-14.89,9.14-23.21a33.23,33.23,0,0,0-2.32-12.22,32.21,32.21,0,0,0-2.8-5.53l-.38-.58-.15-.2-.27-.34L405,169.68c-.71-.91-1.43-1.8-2.19-2.65a89.91,89.91,0,0,0-20.56-17.93,93.23,93.23,0,0,0-25-11.13,117.3,117.3,0,0,0-27.36-4.2c-18.63-.71-37.48,2.18-55.65,7.26-4.54,1.28-9.05,2.7-13.5,4.27s-8.9,3.28-13,5.18a208.28,208.28,0,0,0-24.58,14A162.22,162.22,0,0,0,201,181.82c-6.74,6.41-12.77,13.58-16.9,21.59a45.54,45.54,0,0,0-4.39,12.5,39.42,39.42,0,0,0-.64,6.49l0,1.63.1,1.62c.08,1.1.23,2.21.39,3.3a37.94,37.94,0,0,0,4.13,12.37,36.17,36.17,0,0,0,8.25,10,43.18,43.18,0,0,0,11.41,6.8,56.28,56.28,0,0,0,6.36,2.22,55.18,55.18,0,0,0,6.44,1.5l.19,0,.36,0,.79,0c.54,0,1.09,0,1.64,0,1.11,0,2.23-.06,3.35-.14a59.55,59.55,0,0,0,6.74-.9A67,67,0,0,0,242.42,257c17.06-7,31.18-20.82,40.67-36.9A57.41,57.41,0,0,0,291,193.59a46.69,46.69,0,0,0-1.65-13.9,45,45,0,0,0-2.42-6.63,35.11,35.11,0,0,0-3.49-6.09Z" style="fill: url(#linear-gradient-32)"/>
    </g>
  </g>
</svg>
