<?xml version="1.0" encoding="utf-8"?>
<!-- Generator: Adobe Illustrator 24.1.2, SVG Export Plug-In . SVG Version: 6.00 Build 0)  -->
<svg version="1.1" xmlns="http://www.w3.org/2000/svg" xmlns:xlink="http://www.w3.org/1999/xlink" x="0px" y="0px"
	 viewBox="0 0 655.4 164.4" style="enable-background:new 0 0 655.4 164.4;" xml:space="preserve">
<style type="text/css">
	.st0{display:none;}
</style>
<g id="Layer_1" class="st0">
	<image style="display:inline;overflow:visible;" width="1268" height="748" xlink:href="DF196C2.jpg" >
	</image>
</g>
<g id="Layer_2">
	<g>
		<g>
			<path d="M433.6,18.2c-7.8,0-14,6.3-14,14s6.3,14,14,14c7.8,0,14-6.3,14-14C447.2,24.5,440.9,18.2,433.6,18.2 M433.6,49.2
				c-9.2,0-17-7.8-17-17s7.8-17,17-17s17,7.8,17,17C450.2,41.4,442.8,49.2,433.6,49.2"/>
		</g>
		<rect x="426.2" y="24.8" width="3.3" height="15.1"/>
		<g>
			<path d="M435.8,37c0.7,0,1.1-0.4,1.5-0.7c0.4-0.4,0.7-1.1,0.7-1.8c0-0.7-0.4-1.1-0.7-1.8c-0.4-0.4-0.7-0.7-1.5-0.7
				s-1.1,0.4-1.5,0.7c-0.4,0.4-0.7,1.1-0.7,1.8c0,0.7,0.4,1.1,0.7,1.8C434.7,36.6,435,37,435.8,37 M435,39.6c-1.5,0-2.6-0.4-3.3-1.5
				c-0.7-1.1-1.5-2.2-1.5-3.7c0-1.5,0.4-2.6,1.5-3.7c0.7-1.1,1.8-1.5,3.3-1.5c1.1,0,2.2,0.4,2.6,1.1l0,0v-0.7h3.3v10h-3v-1.1l0,0
				C437.2,39.2,436.1,39.6,435,39.6"/>
		</g>
		<rect x="32" y="31.1" width="17.7" height="83.5"/>
		<g>
			<path d="M89.7,100.2c3.3,0,5.9-1.1,8.1-3.7c2.2-2.6,3.3-5.5,3.3-9.6c0-3.7-1.1-7-3.3-9.6c-2.2-2.6-5.2-3.7-8.5-3.7
				c-3.3,0-6.3,1.1-8.5,3.7c-2.2,2.6-3.3,5.5-3.3,9.6s1.1,7,3.3,9.6C83.4,99.1,86,100.2,89.7,100.2 M86,115.7
				c-7.8,0-14-2.6-18.8-8.1c-4.8-5.2-7.4-12.2-7.4-20.7s2.2-15.1,7.4-20.7c4.8-5.5,10.7-8.1,18.1-8.1c6.3,0,11.5,2.2,15.5,7h0.4
				v-5.9h17.7v55.4h-17v-5.9h-0.4C97.8,113.5,92.6,115.7,86,115.7"/>
			<path d="M148.8,115.7c-8.9,0-16.6-2.6-22.5-8.1l8.1-11.5c4.4,4.1,9.6,6.3,14.4,6.3c3.7,0,5.2-1.1,5.2-3.3c0-0.7-0.7-1.8-1.8-2.6
				c-1.1-0.7-3.3-1.5-7-2.6c-5.5-1.8-9.6-3.7-12.9-6.6s-4.1-6.3-4.1-11.5c0-5.5,1.8-9.6,5.9-12.9c4.1-3.3,8.9-4.8,14.8-4.8
				c7.8,0,14.8,2.2,21.1,7l-8.5,12.6c-3.7-3.7-8.1-5.9-12.6-5.9c-1.1,0-2.2,0.4-3,0.7c-0.7,0.4-1.5,1.1-1.5,2.2
				c0,1.5,2.6,3.3,7.8,4.8c7,2.2,11.8,4.8,14.8,7c3,2.2,4.4,6.3,4.4,11.1c0,5.5-1.8,9.6-5.9,12.9
				C161.7,114.2,156.2,115.7,148.8,115.7"/>
			<path d="M180.2,115V31.1h17.7v34.4h0.4c4.4-4.8,10-7.4,17-7.4c13.3,0,19.9,7.8,19.9,22.9v34h-17.7V85.8c0-4.4-0.7-7.4-2.2-9.2
				c-1.5-1.8-3.7-2.6-7-2.6s-5.9,1.1-7.8,3.3s-2.6,5.2-2.6,9.6V115H180.2z"/>
			<path d="M301.7,100.2c3.3,0,5.9-1.1,8.1-3.7c2.2-2.6,3.3-5.5,3.3-9.6c0-3.7-1.1-7-3.3-9.6c-2.2-2.6-5.2-3.7-8.5-3.7
				c-3.3,0-6.3,1.1-8.5,3.7c-2.2,2.6-3.3,5.5-3.3,9.6s1.1,7,3.3,9.6C295,99.1,298,100.2,301.7,100.2 M298,115.7
				c-7.8,0-14-2.6-18.8-8.1c-4.8-5.2-7.4-12.2-7.4-20.7s2.6-15.1,7.4-20.7c4.8-5.5,10.7-8.1,18.1-8.1c6.3,0,11.5,2.2,15.5,7h0.4
				v-5.9h17.7v55.4h-17v-5.9h-0.4C309.4,113.5,304.3,115.7,298,115.7"/>
			<path d="M342.3,115V59.5H360v7.4h0.4c4.1-5.9,9.6-8.9,15.9-8.9h0.7v19.2c-2.2,0-3.7-0.4-4.1-0.4c-4.1,0-7.4,1.1-9.6,3.3
				c-2.2,2.2-3.3,5.5-3.3,9.2V115H342.3z"/>
			<path d="M402.5,115.7c-5.2,0-8.9-1.5-11.8-4.8c-3-3.3-4.4-7.8-4.4-13.7V73.6H380V59.2h6.3V41.4l17.7-1.8v19.6h13.3v14.4H404v20.3
				c0,4.1,1.5,6.3,4.1,6.3c1.8,0,3.7-0.4,5.5-1.1L418,112C414,114.6,408.4,115.7,402.5,115.7"/>
			<path d="M483.8,100.2c3.3,0,6.3-1.1,8.5-3.7c2.2-2.6,3.3-5.5,3.3-9.6s-1.1-7-3.3-9.6s-5.2-3.7-8.5-3.7c-3.7,0-6.6,1.1-8.9,3.7
				s-3.3,5.5-3.3,9.6s1.1,7,3.7,9.6C477.5,99.1,480.5,100.2,483.8,100.2 M454.6,137.5V59.2h17.7v5.9h0.4c4.1-4.8,9.2-7,15.9-7
				c7.4,0,13.3,2.6,18.1,8.1c4.8,5.5,7.4,12.2,7.4,20.7s-2.6,15.5-7.4,20.7c-4.8,5.2-11.1,8.1-18.8,8.1c-6.3,0-11.1-2.2-14.8-6.6
				h-0.4v27.7h-18.1V137.5z"/>
			<path d="M523.3,115V59.5H541v7.4h0.4c4.1-5.9,9.6-8.9,15.9-8.9h0.7v19.2c-2.2,0-3.7-0.4-4.1-0.4c-4.1,0-7.4,1.1-9.6,3.3
				s-3.3,5.5-3.3,9.2V115H523.3z"/>
			<path d="M593.1,100.2c3.3,0,6.3-1.1,8.5-3.7c2.2-2.6,3.3-5.5,3.3-9.2s-1.1-7-3.3-9.6s-5.2-3.7-8.5-3.7c-3.7,0-6.6,1.1-8.9,3.7
				c-2.2,2.6-3.3,5.5-3.3,9.2s1.1,6.6,3.3,9.2C586.8,99.1,589.4,100.2,593.1,100.2 M593.1,115.7c-8.9,0-16.3-2.6-21.8-8.1
				c-5.5-5.2-8.5-12.2-8.5-20.7s3-15.5,8.5-20.7c5.5-5.5,12.9-8.1,21.8-8.1c8.9,0,15.9,2.6,21.4,8.1c5.5,5.2,8.5,12.2,8.5,20.7
				c0,8.5-3,15.5-8.5,20.7C609,113.1,602,115.7,593.1,115.7"/>
		</g>
	</g>
</g>
</svg>
