<svg id="Layer_2" data-name="Layer 2" xmlns="http://www.w3.org/2000/svg" viewBox="0 0 883.34 182.74">
  <g>
    <path d="M632.16,19.64a21,21,0,1,0,21,21c-.55-11.6-9.94-21-21-21m0,46.37a25.68,25.68,0,0,1-25.39-25.39,25.4,25.4,0,1,1,50.79,0C657,54.42,646,66,632.16,66" transform="translate(-32.05 -15.22)" style="fill: #fff"/>
    <rect x="589.07" y="14.35" width="4.97" height="22.64" style="fill: #fff"/>
    <path d="M635.47,47.79a2.86,2.86,0,0,0,2.21-1.1,4.18,4.18,0,0,0,1.11-2.76c0-1.1-.55-1.66-1.11-2.76a2.76,2.76,0,0,0-4.41,0,4.18,4.18,0,0,0-1.11,2.76c0,1.1.55,1.66,1.11,2.76a2.86,2.86,0,0,0,2.2,1.1m-1.1,3.87c-2.21,0-3.86-.55-5-2.21s-2.21-3.31-2.21-5.52a7.11,7.11,0,0,1,2.21-5.52c1.11-1.66,2.76-2.21,5-2.21,1.66,0,3.31.55,3.87,1.66h0V36.75h5V51.66h-4.41V50h0a6.26,6.26,0,0,1-4.42,1.66" transform="translate(-32.05 -15.22)" style="fill: #fff"/>
    <rect y="23.74" width="26.5" height="124.77" style="fill: #fff"/>
    <g>
      <path d="M118.17,142.2a14.9,14.9,0,0,0,12.15-5.52c3.31-3.86,5-8.28,5-14.35a21.66,21.66,0,0,0-5-14.36,16,16,0,0,0-12.7-5.52,16,16,0,0,0-12.7,5.52c-3.31,3.87-5,8.28-5,14.36s1.66,10.49,5,14.35a17.11,17.11,0,0,0,13.25,5.52m-5.52,23.19c-11.59,0-21-3.87-28.16-12.15-7.17-7.73-11-18.22-11-30.91s3.32-22.64,11-30.92c7.18-8.28,16-12.15,27.06-12.15,9.38,0,17.11,3.32,23.18,10.49h.56V80.92h26.5v82.81h-25.4V154.9h-.55c-5.52,7.18-13.25,10.49-23.19,10.49" transform="translate(-32.05 -15.22)" style="fill: #fff"/>
      <path d="M206.5,165.39c-13.25,0-24.84-3.87-33.67-12.15L185,136.13c6.63,6.07,14.36,9.38,21.53,9.38,5.53,0,7.73-1.65,7.73-5,0-1.11-1.1-2.77-2.76-3.87s-5-2.21-10.49-3.86c-8.28-2.76-14.35-5.52-19.32-9.94s-6.07-9.39-6.07-17.12c0-8.28,2.76-14.35,8.83-19.32s13.25-7.18,22.08-7.18A50.29,50.29,0,0,1,238,89.75l-12.69,18.77c-5.53-5.52-12.15-8.83-18.78-8.83a10.26,10.26,0,0,0-4.41,1.11,3.71,3.71,0,0,0-2.21,3.31c0,2.21,3.86,5,11.59,7.17,10.49,3.32,17.67,7.18,22.09,10.49s6.62,9.39,6.62,16.57c0,8.28-2.76,14.35-8.83,19.32-5.52,5.52-13.8,7.73-24.85,7.73" transform="translate(-32.05 -15.22)" style="fill: #fff"/>
      <path d="M253.43,164.28V39h26.5V90.31h.55a33,33,0,0,1,25.4-11c19.88,0,29.81,11.6,29.81,34.23v50.79h-26.5V120.67c0-6.62-1.1-11-3.31-13.8S300.36,103,295.39,103s-8.83,1.66-11.59,5-3.87,7.73-3.87,14.36v42Z" transform="translate(-32.05 -15.22)" style="fill: #fff"/>
      <path d="M435.07,142.2a14.87,14.87,0,0,0,12.14-5.52c3.32-3.86,5-8.28,5-14.35a21.61,21.61,0,0,0-5-14.36,17.36,17.36,0,0,0-25.39,0c-3.31,3.87-5,8.28-5,14.36s1.66,10.49,5,14.35,7.73,5.52,13.25,5.52m-5.52,23.19c-11.6,0-21-3.87-28.16-12.15-7.18-7.73-11-18.22-11-30.91s3.86-22.64,11-30.92,16-12.15,27.05-12.15c9.39,0,17.12,3.32,23.19,10.49h.55V80.92h26.5v82.81H453.29V154.9h-.56c-6.07,7.18-13.8,10.49-23.18,10.49" transform="translate(-32.05 -15.22)" style="fill: #fff"/>
      <path d="M495.8,164.28V81.47h26.5v11h.55c6.07-8.83,14.35-13.25,23.74-13.25h1.1V108a44.09,44.09,0,0,1-6.07-.55c-6.07,0-11,1.66-14.35,5s-5,8.28-5,13.8v38.09Z" transform="translate(-32.05 -15.22)" style="fill: #fff"/>
      <path d="M585.79,165.39c-7.73,0-13.25-2.21-17.67-7.18s-6.62-11.59-6.62-20.43V102.45h-9.39V80.92h9.39V54.42L588,51.66V80.92h19.87v21.53H588v30.37c0,6.07,2.2,9.38,6.07,9.38a22.22,22.22,0,0,0,8.28-1.65L609,159.87c-6.07,3.86-14.35,5.52-23.18,5.52" transform="translate(-32.05 -15.22)" style="fill: #fff"/>
      <path d="M707.25,142.2a16,16,0,0,0,12.69-5.52c3.32-3.86,5-8.28,5-14.35s-1.65-10.49-5-14.36a16,16,0,0,0-12.69-5.52c-5.52,0-9.94,1.66-13.25,5.52s-5,8.28-5,14.36,1.65,10.49,5.52,14.35a16,16,0,0,0,12.7,5.52M663.63,198v-117h26.5v8.83h.55c6.08-7.17,13.81-10.49,23.74-10.49,11,0,19.88,3.87,27.06,12.15s11,18.22,11,30.92-3.87,23.18-11,30.91a37.09,37.09,0,0,1-28.16,12.15c-9.39,0-16.56-3.31-22.08-9.94h-.56v41.41h-27Z" transform="translate(-32.05 -15.22)" style="fill: #fff"/>
      <path d="M766.32,164.28V81.47h26.5v11h.55c6.07-8.83,14.36-13.25,23.74-13.25h1.11V108a44.12,44.12,0,0,1-6.08-.55c-6.07,0-11,1.66-14.35,5s-5,8.28-5,13.8v38.09Z" transform="translate(-32.05 -15.22)" style="fill: #fff"/>
      <path d="M870.66,142.2a16,16,0,0,0,12.7-5.52,20.19,20.19,0,0,0,5-13.8,21.66,21.66,0,0,0-5-14.36,16,16,0,0,0-12.7-5.52c-5.52,0-9.93,1.66-13.25,5.52a21.66,21.66,0,0,0,0,27.61c3.87,4.42,7.73,6.07,13.25,6.07m0,23.19c-13.25,0-24.29-3.87-32.57-12.15-8.28-7.73-12.7-18.22-12.7-30.91s4.42-23.19,12.7-30.92c8.28-8.28,19.32-12.15,32.57-12.15s23.74,3.87,32,12.15c8.29,7.73,12.7,18.22,12.7,30.92s-4.41,23.18-12.7,30.91c-8.28,8.28-18.77,12.15-32,12.15" transform="translate(-32.05 -15.22)" style="fill: #fff"/>
    </g>
  </g>
</svg>
