<svg xmlns="http://www.w3.org/2000/svg" xmlns:xlink="http://www.w3.org/1999/xlink" viewBox="0 0 566.93 566.93">
  <defs>
    <clipPath id="clip-path">
      <ellipse cx="283.46" cy="283.59" rx="276.25" ry="276.04" style="fill: none"/>
    </clipPath>
    <linearGradient id="linear-gradient" x1="283.57" y1="5.05" x2="283.57" y2="562.13" gradientUnits="userSpaceOnUse">
      <stop offset="0" stop-color="#e5a946"/>
      <stop offset="0.54" stop-color="#eac166"/>
      <stop offset="0.69" stop-color="#eab74d"/>
      <stop offset="0.89" stop-color="#eaab30"/>
      <stop offset="1" stop-color="#eaa625"/>
    </linearGradient>
    <linearGradient id="linear-gradient-2" x1="190.03" y1="460.93" x2="376.9" y2="460.93" gradientUnits="userSpaceOnUse">
      <stop offset="0" stop-color="#ffe0a9"/>
      <stop offset="0.58" stop-color="#e8a423"/>
      <stop offset="1" stop-color="#ffd66a"/>
    </linearGradient>
    <linearGradient id="linear-gradient-16" x1="108.6" y1="425.75" x2="452.42" y2="425.75" xlink:href="#linear-gradient-2"/>
    <linearGradient id="linear-gradient-17" x1="110.47" y1="402.68" x2="451.87" y2="402.68" xlink:href="#linear-gradient-2"/>
    <linearGradient id="linear-gradient-31" x1="393.89" y1="311.12" x2="506.44" y2="311.12" gradientTransform="matrix(-1, 0, 0, 1, 861.14, 0)" gradientUnits="userSpaceOnUse">
      <stop offset="0" stop-color="#febe2b"/>
      <stop offset="0.05" stop-color="#fec236"/>
      <stop offset="0.23" stop-color="#ffce58"/>
      <stop offset="0.34" stop-color="#ffd261"/>
      <stop offset="0.51" stop-color="#ffd568"/>
      <stop offset="1" stop-color="#ffd66a"/>
    </linearGradient>
    <linearGradient id="linear-gradient-32" x1="98.58" y1="232.64" x2="439.36" y2="232.64" gradientUnits="userSpaceOnUse">
      <stop offset="0" stop-color="#ffde7f"/>
      <stop offset="0.58" stop-color="#e8a423"/>
      <stop offset="0.65" stop-color="#efb338"/>
      <stop offset="0.76" stop-color="#f8c653"/>
      <stop offset="0.85" stop-color="#fdd264"/>
      <stop offset="0.92" stop-color="#ffd66a"/>
    </linearGradient>
    <linearGradient id="linear-gradient-33" x1="158.9" y1="220.46" x2="413.39" y2="220.46" gradientUnits="userSpaceOnUse">
      <stop offset="0" stop-color="#fd7"/>
      <stop offset="0.58" stop-color="#e8a423"/>
      <stop offset="1" stop-color="#ffd66a"/>
    </linearGradient>
  </defs>
  <g id="Layer_11" data-name="Layer 11">
    <g style="clip-path: url(#clip-path)">
      <rect width="566.93" height="566.93"/>
    </g>
  </g>
  <g id="Layer_15" data-name="Layer 15">
    <ellipse cx="283.57" cy="283.59" rx="276.25" ry="276.04" style="fill: none;stroke-miterlimit: 10;stroke-width: 5px;stroke: url(#linear-gradient)"/>
  </g>
  <g id="Layer_8" data-name="Layer 8">
    <g id="Layer_10" data-name="Layer 10">
      <g>
        <path d="M214.45,478.14c-.18,0-.21-.14-.1-.41s.21-.51.31-.73a3.94,3.94,0,0,0,.27-1.68,7.1,7.1,0,0,0-.36-2.13,4.63,4.63,0,0,0-1.41-2.07,11.57,11.57,0,0,0-3.24-2.1,23.38,23.38,0,0,0-3.76-1.26c-1.31-.32-2.61-.6-3.89-.84a21.67,21.67,0,0,1-2.5,2.91,10.28,10.28,0,0,1-2.84,2,9.07,9.07,0,0,1-1.62.58,6.09,6.09,0,0,1-1.47.2,4.14,4.14,0,0,1-2.74-.89,2.64,2.64,0,0,1-1.07-2.08,3.29,3.29,0,0,1,1-2.24,7.75,7.75,0,0,1,3.43-1.81,13.65,13.65,0,0,1,2.13-.41,21.22,21.22,0,0,1,2.43-.13c.52,0,1,0,1.55,0a8.67,8.67,0,0,1,1.42.2c.58-.88,1.12-1.8,1.62-2.75s1-2,1.56-3.1a9.54,9.54,0,0,1-4.11-.71,6.42,6.42,0,0,1-2.68-2,4.44,4.44,0,0,1-.26-5.12,6.57,6.57,0,0,1,2.18-2.1,12.23,12.23,0,0,1,3.79-1.48.79.79,0,0,1,.29-.06h.25q.45,0,.45.18t-1,.42a5.33,5.33,0,0,0-2.74,1.11,6.49,6.49,0,0,0-1.83,2.22,5.79,5.79,0,0,0-.65,2.61,4.38,4.38,0,0,0,.54,2.13,4,4,0,0,0,1.71,1.6,6.5,6.5,0,0,0,3,.62,11.87,11.87,0,0,0,1.41-.09c.08-.16.22-.49.41-1l.64-1.66c.24-.62.48-1.22.71-1.8s.49-1.26.79-2A24.6,24.6,0,0,1,211,446.8a10.24,10.24,0,0,1,2.82-2.77,4.9,4.9,0,0,1,2.44-.81,2.79,2.79,0,0,1,1.94.69,2.28,2.28,0,0,1,.82,1.56q0,.27,0,.39v.3a9.5,9.5,0,0,1-.7,3.54,13.6,13.6,0,0,1-2,3.36,17.85,17.85,0,0,1-6.27,5,14.27,14.27,0,0,1-3.68,1.2l-.79,1.6c-.23.47-.49,1-.77,1.52s-.65,1.23-1.11,2.07c-.14.26-.24.44-.31.55l-.32.5a30.15,30.15,0,0,1,3.27,1,30.69,30.69,0,0,1,3.5,1.53A19.43,19.43,0,0,1,213,470a7.47,7.47,0,0,1,2.39,2.91,7.29,7.29,0,0,1,.7,2.85,2.6,2.6,0,0,1-.27,1.32,2,2,0,0,1-.78.84A1.42,1.42,0,0,1,214.45,478.14Zm-21-6.42a6.29,6.29,0,0,0,1.43-.18,8.36,8.36,0,0,0,1.6-.57,12.63,12.63,0,0,0,4.65-4.26,12.74,12.74,0,0,0-1.44-.23c-.5-.05-1-.07-1.53-.07a15.81,15.81,0,0,0-1.66.09,9.31,9.31,0,0,0-1.67.33,8.55,8.55,0,0,0-3.07,1.38,2.29,2.29,0,0,0-1.07,1.71,1.52,1.52,0,0,0,.75,1.27A3.44,3.44,0,0,0,193.42,471.72Zm13.47-13.23a13.11,13.11,0,0,0,4-1.64,16.14,16.14,0,0,0,3.51-2.88,14.44,14.44,0,0,0,2.49-3.69,9.51,9.51,0,0,0,.93-4.06,1.28,1.28,0,0,0-.27-.84,1,1,0,0,0-.78-.33,3.35,3.35,0,0,0-1.77.76,12.59,12.59,0,0,0-2.46,2.55,31.89,31.89,0,0,0-3,4.91L208.14,456C207.73,456.8,207.31,457.63,206.89,458.49Z" style="fill: url(#linear-gradient-2)"/>
        <path d="M219.82,469.17a1.57,1.57,0,0,1-.75-.15,1.68,1.68,0,0,1-.73-.66A2.45,2.45,0,0,1,218,467a7,7,0,0,1,.27-1.74c-.24.38-.55.84-.93,1.39a9.39,9.39,0,0,1-1.23,1.46,4.26,4.26,0,0,1-1.08.78,2.21,2.21,0,0,1-.93.24,1.47,1.47,0,0,1-1.26-.71,3.2,3.2,0,0,1-.48-1.84,7.6,7.6,0,0,1,.6-2.73,12.09,12.09,0,0,1,2-3.18,6.77,6.77,0,0,1,2.12-1.7,5.26,5.26,0,0,1,2.44-.64,3.89,3.89,0,0,1,1.32.22,2.82,2.82,0,0,1,1.11.74.66.66,0,0,1,.21.48.37.37,0,0,1-.15.3.43.43,0,0,1-.39.06,1.36,1.36,0,0,0-1.41-1.05,2.68,2.68,0,0,0-1.17.33,7.89,7.89,0,0,0-2.11,1.77,18,18,0,0,0-1.91,2.55c-.08.12-.2.35-.37.69s-.34.72-.5,1.14a5.93,5.93,0,0,0-.33,1.23,1.75,1.75,0,0,0,0,.25v.23q0,1,.75,1a3,3,0,0,0,2-1.32,17.3,17.3,0,0,0,1.41-2q.63-1.05,1.29-2.25a13.7,13.7,0,0,1,.84-1.35,1.29,1.29,0,0,1,1.11-.54,2.5,2.5,0,0,1,.66.09,1.6,1.6,0,0,0,.69,0,5.39,5.39,0,0,0-.64.9c-.27.44-.56.94-.86,1.5s-.57,1.13-.81,1.71a10.25,10.25,0,0,0-.51,1.5c0,.12,0,.29-.07.51a4.3,4.3,0,0,0,0,.48q0,.84.48.84a1.55,1.55,0,0,0,1-.57,9,9,0,0,0,1.09-1.41c.36-.56.69-1.13,1-1.7s.54-1,.72-1.39q.12-.3.36-.3t.15.21a1.17,1.17,0,0,1-.09.33c-.24.5-.53,1.06-.87,1.69a21.21,21.21,0,0,1-1.11,1.83,8.12,8.12,0,0,1-1.24,1.47A2.29,2.29,0,0,1,219.82,469.17Z" style="fill: url(#linear-gradient-2)"/>
        <path d="M224.59,469.2a2.4,2.4,0,0,1-2.7-2.37,2.39,2.39,0,0,1,.35-1.26,1.06,1.06,0,0,1,.82-.6l1.31-2.55c.47-.92.9-1.81,1.3-2.67a9,9,0,0,1,1.07-1.68,2.28,2.28,0,0,1,1.42-.93h.3a2.94,2.94,0,0,1,.44,0,1.64,1.64,0,0,1,.4.12.48.48,0,0,1,.33.45q0,.18-.21.18a.51.51,0,0,1-.24-.09,1.68,1.68,0,0,0-.63-.15.63.63,0,0,0-.33.09,1.65,1.65,0,0,0-.79.84,2.94,2.94,0,0,0-.23,1.14,4.65,4.65,0,0,0,.11,1,6,6,0,0,0,.25.89c.22.56.46,1.11.71,1.65a4.09,4.09,0,0,1,.37,1.74,3.72,3.72,0,0,1-.6,1.9,4.82,4.82,0,0,1-1.53,1.61l.21,0,.21,0H227a2.35,2.35,0,0,0,1.31-.41,4.69,4.69,0,0,0,1.09-1,13.27,13.27,0,0,0,1.1-1.68c.41-.72.8-1.48,1.18-2.28a.25.25,0,0,1,.21-.15.24.24,0,0,1,.24.36c-.26.56-.55,1.16-.88,1.81a14.63,14.63,0,0,1-1.13,1.86,5.66,5.66,0,0,1-1.45,1.44,3.25,3.25,0,0,1-1.85.56l-.51,0a2.62,2.62,0,0,1-.54-.12,4.31,4.31,0,0,1-.61.19A2.6,2.6,0,0,1,224.59,469.2Zm-.24-.48a1.14,1.14,0,0,0,.33-.05l.27-.07a3.13,3.13,0,0,1-.79-.89,3.05,3.05,0,0,1-.41-1.42,1.76,1.76,0,0,0-.54,1.23,1.27,1.27,0,0,0,.3.84A1,1,0,0,0,224.35,468.72Zm1.14-.42a3.73,3.73,0,0,0,.92-1.23,4.79,4.79,0,0,0,.4-2.13,14,14,0,0,0-.24-2.49,13.26,13.26,0,0,1-.24-2.34c0-.14,0-.27,0-.38a2.91,2.91,0,0,1,0-.31l-.9,1.87c-.34.71-.68,1.4-1,2.06L223.6,465a.64.64,0,0,1,.48.22,1.26,1.26,0,0,1,.12.77,2.51,2.51,0,0,0,.35,1.39A2,2,0,0,0,225.49,468.3Z" style="fill: url(#linear-gradient-2)"/>
        <path d="M228.73,469.32q1.26-2.58,2.63-5.42t2.8-5.71q1.44-2.88,2.85-5.49a9.19,9.19,0,0,1,1-1.41,1.43,1.43,0,0,1,1.15-.51,2.64,2.64,0,0,1,.63.09,1.62,1.62,0,0,0,.69,0,11.56,11.56,0,0,0-1.06,1.47q-.68,1-1.5,2.52c-.55,1-1.13,2-1.74,3.16s-1.21,2.27-1.8,3.42-1.14,2.23-1.64,3.23q.6-.78,1.23-1.47a15,15,0,0,1,2.9-2.46,17.07,17.07,0,0,1,2-1.14,4,4,0,0,1,1.6-.48,1.05,1.05,0,0,1,.3,0c-.44.8-.82,1.51-1.15,2.13s-.67,1.29-1,2-.66,1.4-.92,2.05a9.19,9.19,0,0,0-.51,1.61,4.52,4.52,0,0,0-.09.81.86.86,0,0,0,.18.64.57.57,0,0,0,.39.17,1.65,1.65,0,0,0,1.11-.63,9.63,9.63,0,0,0,1.17-1.55c.38-.61.73-1.2,1-1.78s.54-1,.7-1.35.24-.33.36-.33.18.08.18.24a1.15,1.15,0,0,1-.09.36l-.88,1.75a15.74,15.74,0,0,1-1.11,1.86,6.58,6.58,0,0,1-1.35,1.46,2.54,2.54,0,0,1-1.58.57,2.22,2.22,0,0,1-1.23-.42,1.7,1.7,0,0,1-.63-1.53,4.53,4.53,0,0,1,.06-.71,6.14,6.14,0,0,1,.21-.85,6.56,6.56,0,0,1,.6-1.34c.28-.49.64-1.1,1.08-1.84a1.76,1.76,0,0,0,.3-.81.32.32,0,0,0-.36-.36,1.76,1.76,0,0,0-.81.3,7.6,7.6,0,0,0-1.29,1.05,23,23,0,0,0-1.86,2.1,22.56,22.56,0,0,0-2.37,3.87c-.14.26-.29.39-.46.4l-.68.05-.54,0A.75.75,0,0,0,228.73,469.32Z" style="fill: url(#linear-gradient-2)"/>
        <path d="M243.76,469.2a3.07,3.07,0,0,1-2-.72,2.66,2.66,0,0,1-.89-2.19,7.42,7.42,0,0,1,.66-2.9,10.15,10.15,0,0,1,1.68-2.71,8.13,8.13,0,0,1,1.95-1.68,3.94,3.94,0,0,1,2-.66,1.85,1.85,0,0,1,1.14.36,1.31,1.31,0,0,1,.51,1.11,3.15,3.15,0,0,1-.57,1.65,6.39,6.39,0,0,1-1.62,1.68,5.94,5.94,0,0,1-1.14.63,10.85,10.85,0,0,1-1.38.49,4.41,4.41,0,0,1-1.14.2,6.06,6.06,0,0,0-.28,1,5.59,5.59,0,0,0-.14,1.23,3,3,0,0,0,.3,1.35,1.13,1.13,0,0,0,1.11.6,3.06,3.06,0,0,0,1.8-.57,6.3,6.3,0,0,0,1.44-1.43,11.84,11.84,0,0,0,1.07-1.72c.29-.58.52-1.07.7-1.47s.28-.42.48-.42a.13.13,0,0,1,.15.15.71.71,0,0,1-.09.3l-.9,1.9a11.3,11.3,0,0,1-1.14,1.89,5.34,5.34,0,0,1-1.57,1.43A4.22,4.22,0,0,1,243.76,469.2Zm-.54-5.28a5.53,5.53,0,0,0,1.41-.32,5.09,5.09,0,0,0,3-2.52,3.2,3.2,0,0,0,.42-1.39q0-.66-.48-.66a1.89,1.89,0,0,0-1,.48,10.25,10.25,0,0,0-1.56,1.62,15.31,15.31,0,0,0-1.08,1.56Q243.43,463.53,243.22,463.92Z" style="fill: url(#linear-gradient-2)"/>
        <path d="M249.76,469.2a2.4,2.4,0,0,1-2.7-2.37,2.39,2.39,0,0,1,.35-1.26,1.06,1.06,0,0,1,.82-.6l1.31-2.55c.47-.92.9-1.81,1.3-2.67a8.48,8.48,0,0,1,1.07-1.68,2.28,2.28,0,0,1,1.42-.93h.3a2.94,2.94,0,0,1,.44,0,1.64,1.64,0,0,1,.4.12.48.48,0,0,1,.33.45q0,.18-.21.18a.51.51,0,0,1-.24-.09,1.68,1.68,0,0,0-.63-.15.63.63,0,0,0-.33.09,1.65,1.65,0,0,0-.79.84,2.94,2.94,0,0,0-.23,1.14,4.65,4.65,0,0,0,.11,1,6,6,0,0,0,.25.89c.22.56.46,1.11.71,1.65a4.09,4.09,0,0,1,.37,1.74,3.72,3.72,0,0,1-.6,1.9,4.82,4.82,0,0,1-1.53,1.61l.21,0,.21,0h.09a2.35,2.35,0,0,0,1.31-.41,4.69,4.69,0,0,0,1.09-1,13.27,13.27,0,0,0,1.1-1.68c.4-.72.8-1.48,1.18-2.28a.25.25,0,0,1,.21-.15.24.24,0,0,1,.24.36c-.26.56-.55,1.16-.88,1.81a14.63,14.63,0,0,1-1.13,1.86,5.66,5.66,0,0,1-1.45,1.44,3.28,3.28,0,0,1-1.85.56l-.51,0a2.62,2.62,0,0,1-.54-.12,4.31,4.31,0,0,1-.61.19A2.6,2.6,0,0,1,249.76,469.2Zm-.24-.48a1.14,1.14,0,0,0,.33-.05l.27-.07a3,3,0,0,1-.79-.89,3.05,3.05,0,0,1-.41-1.42,1.76,1.76,0,0,0-.54,1.23,1.27,1.27,0,0,0,.3.84A1,1,0,0,0,249.52,468.72Zm1.14-.42a3.73,3.73,0,0,0,.92-1.23,4.79,4.79,0,0,0,.4-2.13,14,14,0,0,0-.24-2.49,13.26,13.26,0,0,1-.24-2.34c0-.14,0-.27,0-.38a2.91,2.91,0,0,1,0-.31l-.9,1.87c-.34.71-.68,1.4-1,2.06l-.87,1.68a.64.64,0,0,1,.48.22,1.26,1.26,0,0,1,.12.77,2.51,2.51,0,0,0,.35,1.39A2,2,0,0,0,250.66,468.3Z" style="fill: url(#linear-gradient-2)"/>
        <path d="M270.79,470.43a9.88,9.88,0,0,1-4.23-.8,5.77,5.77,0,0,1-2.5-2.1,5,5,0,0,1-.83-2.77,6.31,6.31,0,0,1,1-3.29,8.39,8.39,0,0,1,3-2.82,11.55,11.55,0,0,1,4.81-1.48,4.08,4.08,0,0,1-.63-1.31,5,5,0,0,1-.21-1.39,4.87,4.87,0,0,1,.9-2.81,7.58,7.58,0,0,1,2.23-2.05,11.59,11.59,0,0,1,2.93-1.28,11,11,0,0,1,2.94-.43,6.8,6.8,0,0,1,1.71.22,3.29,3.29,0,0,1,1.47.8,2.13,2.13,0,0,1,.6,1.62,2.47,2.47,0,0,1-.54,1.56,1.62,1.62,0,0,1-1.32.69,1.35,1.35,0,0,1-1-.42,1.32,1.32,0,0,1-.42-1,1.42,1.42,0,0,1,.41-1,1.35,1.35,0,0,1,1-.4,1.41,1.41,0,0,1,.62.18,1,1,0,0,1,.43.36,1.42,1.42,0,0,0,0-.33,1.17,1.17,0,0,0-.66-1.14,3.11,3.11,0,0,0-1.41-.33,8.23,8.23,0,0,0-2.79.58,9.88,9.88,0,0,0-3.09,1.91,8,8,0,0,0-1.11,1.26,8.85,8.85,0,0,0-1,1.66,4.41,4.41,0,0,0-.39,1.79,2.79,2.79,0,0,0,.24,1.2c.3,0,.65,0,1-.05s.79,0,1.21,0a2,2,0,0,1,1.23.33.93.93,0,0,1,.45.75.74.74,0,0,1-.36.57,1.91,1.91,0,0,1-1.14.27,3.64,3.64,0,0,1-1.78-.44,5.52,5.52,0,0,1-1.25-.88,6.29,6.29,0,0,0-3.36,1.47,8.21,8.21,0,0,0-2.82,6.09,5.67,5.67,0,0,0,.5,2.4,4.08,4.08,0,0,0,1.51,1.78,4.58,4.58,0,0,0,2.58.68,7.31,7.31,0,0,0,3-.59,7.67,7.67,0,0,0,2.29-1.51,7.48,7.48,0,0,0,1.49-2,4.41,4.41,0,0,0,.52-1.93,1.77,1.77,0,0,0-.55-1.31A3.52,3.52,0,0,0,276,462a7,7,0,0,0-1.92-.25A7.91,7.91,0,0,0,272,462a4.79,4.79,0,0,0-1.75.87,2.37,2.37,0,0,0-.87,1.49.62.62,0,0,1,0,.13.78.78,0,0,0,0,.14,2.13,2.13,0,0,0,.5,1.3,4.5,4.5,0,0,0,1.54,1.19.45.45,0,0,1,.27.45q0,.33-.3.18a7,7,0,0,1-2.41-1.91,3.35,3.35,0,0,1-.77-2,2.8,2.8,0,0,1,1.46-2.33,7.43,7.43,0,0,1,4.15-1h5.31a7.25,7.25,0,0,0,1.43-.21,12,12,0,0,0,1.93-.62,7.06,7.06,0,0,0,1.7-1,1.59,1.59,0,0,0,.7-1.27,1.65,1.65,0,0,0-.27-.84.37.37,0,0,1-.06-.21q0-.18.15-.18a.25.25,0,0,1,.21.15,2.37,2.37,0,0,1,.45,1.35,2.23,2.23,0,0,1-.59,1.5,5.11,5.11,0,0,1-1.57,1.21,8.69,8.69,0,0,1-2.2.8,10.28,10.28,0,0,1-2.48.24,3,3,0,0,1,1.11,2.34,4.53,4.53,0,0,1-.66,2.26,7.67,7.67,0,0,1-1.86,2.13,9.89,9.89,0,0,1-2.8,1.58A10.06,10.06,0,0,1,270.79,470.43Zm4.62-12q1,0,1-.39c0-.1-.08-.21-.25-.32a1.44,1.44,0,0,0-.68-.19,4.14,4.14,0,0,0-.6,0h-1.65A2.65,2.65,0,0,0,275.41,458.43Z" style="fill: url(#linear-gradient-2)"/>
        <path d="M305.35,471a1.93,1.93,0,0,1-1.86-1,5.13,5.13,0,0,1-.54-2.41,8.75,8.75,0,0,1,.34-2.43,5.6,5.6,0,0,1,.83-1.83q-.81,1-2,2.19a27.71,27.71,0,0,1-2.64,2.37,16.46,16.46,0,0,1-3,1.89,6.84,6.84,0,0,1-3,.75,5.26,5.26,0,0,1-.89-.08,3.75,3.75,0,0,1-.85-.25,3.06,3.06,0,0,1-1.65-1.61,6.49,6.49,0,0,1-.54-2.77,12.93,12.93,0,0,1,.58-3.68,19.84,19.84,0,0,1,1.73-4,21.76,21.76,0,0,1,1.21-2,18.72,18.72,0,0,1,1.46-1.84,11.64,11.64,0,0,1-1.71-1,6.49,6.49,0,0,1-1.32-1.15,2.79,2.79,0,0,1-.54-1,3.68,3.68,0,0,1-.18-1.11,1.43,1.43,0,0,1,.45-1.26.43.43,0,0,1,.36-.24q.27,0,.27.33a1,1,0,0,1-.12.45,2,2,0,0,0-.15.72,1.69,1.69,0,0,0,.24.88,4.64,4.64,0,0,0,.57.77,7.23,7.23,0,0,0,2.64,1.89,33.87,33.87,0,0,1,4.21-3.89,20.9,20.9,0,0,1,4.94-2.86,14.52,14.52,0,0,1,5.55-1.08,6.1,6.1,0,0,1,3.81,1.06,3.32,3.32,0,0,1,1.38,2.75,3.89,3.89,0,0,1-.48,1.75,5.87,5.87,0,0,1-1.56,1.83,9.74,9.74,0,0,1-2.87,1.53,17.91,17.91,0,0,1-4.42.89c-.62.06-1.18.1-1.67.13s-1,.05-1.57.05a21.16,21.16,0,0,1-3-.21,18.54,18.54,0,0,1-2.89-.66c-.36.5-.82,1.18-1.37,2s-1.09,1.78-1.63,2.76a27,27,0,0,0-1.35,2.79,17.8,17.8,0,0,0-.72,2.29,8.31,8.31,0,0,0-.24,1.85,3.1,3.1,0,0,0,.69,2.2,2.43,2.43,0,0,0,1.86.74,6.38,6.38,0,0,0,2.59-.66,13.77,13.77,0,0,0,3.05-2,31.78,31.78,0,0,0,3.1-3,40.53,40.53,0,0,0,2.78-3.36,27.41,27.41,0,0,0,2-3.15,4.7,4.7,0,0,1,1-1.37,1.37,1.37,0,0,1,.81-.4.58.58,0,0,1,.51.25,1.16,1.16,0,0,1,.18.68,2.54,2.54,0,0,1-.75,1.68,14.63,14.63,0,0,0-1.65,2.28,22.36,22.36,0,0,0-1.44,2.85,14.5,14.5,0,0,0-.9,2.94,8,8,0,0,0-.12.9q0,.42,0,.75a2.8,2.8,0,0,0,.34,1.59,1.08,1.08,0,0,0,.92.48,2.9,2.9,0,0,0,1.59-.63,8.53,8.53,0,0,0,1.74-1.68c.48-.64.94-1.32,1.39-2a24.46,24.46,0,0,0,1.25-2.25.68.68,0,0,1,.25-.32.54.54,0,0,1,.23-.1q.15,0,.15.18a1.15,1.15,0,0,1-.09.36q-.27.6-.72,1.44c-.3.56-.63,1.13-1,1.72a19.51,19.51,0,0,1-1.11,1.64,8,8,0,0,1-2,1.8A4.42,4.42,0,0,1,305.35,471Zm-3.27-15.93q1.56,0,3.48-.18a14,14,0,0,0,4.32-1,7.26,7.26,0,0,0,2.82-2,4.09,4.09,0,0,0,1-2.67,2.24,2.24,0,0,0-1.1-2,5.1,5.1,0,0,0-2.77-.69,11.68,11.68,0,0,0-5.09,1.09,16.74,16.74,0,0,0-4.2,2.87,42.13,42.13,0,0,0-3.61,3.81A16.48,16.48,0,0,0,302.08,455.07Z" style="fill: url(#linear-gradient-2)"/>
        <path d="M314.65,469.2a3,3,0,0,1-2.4-.83,3,3,0,0,1-.69-2,7.44,7.44,0,0,1,.61-2.82,11.59,11.59,0,0,1,1.46-2.61,7,7,0,0,1,1.92-1.82,4,4,0,0,1,2.13-.64,2.22,2.22,0,0,1,1.68.57,1.79,1.79,0,0,1,.42,1.53,2.13,2.13,0,0,1-.57,1.18,1.42,1.42,0,0,1-1,.59.58.58,0,0,1-.42-.18,8.64,8.64,0,0,0,.51-.72,3.32,3.32,0,0,0,.39-.81,2.27,2.27,0,0,0,.12-.72q0-.75-.72-.75a2.57,2.57,0,0,0-1.7.82,10.81,10.81,0,0,0-1.54,1.79,7.29,7.29,0,0,0-.65,1.12,13.06,13.06,0,0,0-.67,1.68,5.74,5.74,0,0,0-.3,1.79,3.14,3.14,0,0,0,.4,1.6,1.46,1.46,0,0,0,1.37.71,3.32,3.32,0,0,0,2.26-.83,8.42,8.42,0,0,0,1.68-2.05c.49-.82.94-1.62,1.34-2.4q.18-.36.36-.36t.15.24a.71.71,0,0,1-.09.3q-.72,1.56-1.47,2.85a6.35,6.35,0,0,1-1.82,2A4.65,4.65,0,0,1,314.65,469.2Z" style="fill: url(#linear-gradient-2)"/>
        <path d="M326.47,469.17a1.57,1.57,0,0,1-.75-.15,1.7,1.7,0,0,1-.74-.66,2.45,2.45,0,0,1-.31-1.35,7,7,0,0,1,.27-1.74c-.24.38-.55.84-.93,1.39a9.39,9.39,0,0,1-1.23,1.46,4.26,4.26,0,0,1-1.08.78,2.21,2.21,0,0,1-.93.24,1.47,1.47,0,0,1-1.26-.71,3.2,3.2,0,0,1-.48-1.84,7.6,7.6,0,0,1,.6-2.73,12.09,12.09,0,0,1,1.95-3.18,6.74,6.74,0,0,1,2.11-1.7,5.3,5.3,0,0,1,2.45-.64,3.89,3.89,0,0,1,1.32.22,2.82,2.82,0,0,1,1.11.74.66.66,0,0,1,.21.48.37.37,0,0,1-.15.3.43.43,0,0,1-.39.06,1.36,1.36,0,0,0-1.41-1.05,2.68,2.68,0,0,0-1.17.33,7.92,7.92,0,0,0-2.12,1.77,17.94,17.94,0,0,0-1.9,2.55,7.2,7.2,0,0,0-.38.69c-.17.34-.33.72-.49,1.14a5.93,5.93,0,0,0-.33,1.23,1.75,1.75,0,0,0,0,.25v.23q0,1,.75,1a3,3,0,0,0,2-1.32,17.3,17.3,0,0,0,1.41-2q.63-1.05,1.29-2.25a13.7,13.7,0,0,1,.84-1.35,1.29,1.29,0,0,1,1.11-.54,2.5,2.5,0,0,1,.66.09,1.6,1.6,0,0,0,.69,0,5.3,5.3,0,0,0-.65.9c-.27.44-.55.94-.85,1.5s-.57,1.13-.81,1.71a10.25,10.25,0,0,0-.51,1.5c0,.12-.05.29-.08.51a3.74,3.74,0,0,0,0,.48q0,.84.48.84a1.53,1.53,0,0,0,1-.57,9,9,0,0,0,1.1-1.41c.36-.56.69-1.13,1-1.7s.54-1,.72-1.39q.12-.3.36-.3t.15.21a1.17,1.17,0,0,1-.09.33c-.24.5-.53,1.06-.87,1.69a21.21,21.21,0,0,1-1.11,1.83,8.15,8.15,0,0,1-1.25,1.47A2.27,2.27,0,0,1,326.47,469.17Z" style="fill: url(#linear-gradient-2)"/>
        <path d="M337.18,469.08a1.59,1.59,0,0,1-1.35-.81,2.7,2.7,0,0,1-.27-.63,3,3,0,0,1-.12-.87,5.4,5.4,0,0,1,0-.56,3.15,3.15,0,0,1,.12-.58c-.28.44-.61.92-1,1.45a7,7,0,0,1-1.26,1.38,2.35,2.35,0,0,1-2.2.5,1.88,1.88,0,0,1-1.16-.84,2.84,2.84,0,0,1-.34-1.44,6.4,6.4,0,0,1,.37-2,12.94,12.94,0,0,1,1-2.16,11.5,11.5,0,0,1,1.22-1.8,7.22,7.22,0,0,1,2.07-1.68,5,5,0,0,1,2.37-.63,3.93,3.93,0,0,1,2,.57c.3-.56.62-1.19,1-1.88l1-2.05c.34-.68.64-1.31.9-1.88l.6-1.3a3.29,3.29,0,0,1,.85-1.34,1.66,1.66,0,0,1,1-.28,4,4,0,0,1,.73.07,3.11,3.11,0,0,0,.8.05,8.2,8.2,0,0,0-.74,1c-.37.57-.8,1.3-1.3,2.18s-1,1.84-1.61,2.89-1.13,2.11-1.68,3.18-1.06,2.08-1.53,3-.84,1.77-1.12,2.45a7.24,7.24,0,0,0-.35,1,4.46,4.46,0,0,0-.22,1.28,1.22,1.22,0,0,0,.18.67.66.66,0,0,0,.6.29,1.67,1.67,0,0,0,1.15-.59,8.29,8.29,0,0,0,1.13-1.44q.54-.86,1-1.68c.28-.55.49-1,.63-1.3s.22-.33.36-.33.18.09.18.27v.1a.32.32,0,0,1-.06.17c-.18.42-.43.94-.74,1.56a16.34,16.34,0,0,1-1.09,1.86,6.78,6.78,0,0,1-1.41,1.54A2.67,2.67,0,0,1,337.18,469.08Zm-5.19-.9a1.94,1.94,0,0,0,1.05-.47,6.47,6.47,0,0,0,1.35-1.48q.84-1.2,1.92-3t2.13-3.81a1.29,1.29,0,0,0-.9-.36,3.25,3.25,0,0,0-1.88.78,11.68,11.68,0,0,0-2,2,15.41,15.41,0,0,0-1.63,2.43,7.83,7.83,0,0,0-.65,1.53,4.48,4.48,0,0,0-.19,1.2Q331.18,468.18,332,468.18Z" style="fill: url(#linear-gradient-2)"/>
        <path d="M343.75,469.2a3.09,3.09,0,0,1-2-.72,2.65,2.65,0,0,1-.88-2.19,7.42,7.42,0,0,1,.66-2.9,10.15,10.15,0,0,1,1.68-2.71,8.13,8.13,0,0,1,2-1.68,3.94,3.94,0,0,1,2-.66,1.85,1.85,0,0,1,1.14.36,1.31,1.31,0,0,1,.51,1.11,3.15,3.15,0,0,1-.57,1.65,6.39,6.39,0,0,1-1.62,1.68,5.94,5.94,0,0,1-1.14.63,10.85,10.85,0,0,1-1.38.49,4.41,4.41,0,0,1-1.14.2,5.94,5.94,0,0,0-.29,1,5.58,5.58,0,0,0-.13,1.23,3,3,0,0,0,.3,1.35,1.13,1.13,0,0,0,1.11.6,3.06,3.06,0,0,0,1.8-.57,6.3,6.3,0,0,0,1.44-1.43,11.75,11.75,0,0,0,1.06-1.72c.29-.58.53-1.07.71-1.47s.28-.42.48-.42a.13.13,0,0,1,.15.15.71.71,0,0,1-.09.3l-.9,1.9a11.3,11.3,0,0,1-1.14,1.89,5.37,5.37,0,0,1-1.58,1.43A4.18,4.18,0,0,1,343.75,469.2Zm-.54-5.28a5.53,5.53,0,0,0,1.41-.32,5.09,5.09,0,0,0,3-2.52,3.2,3.2,0,0,0,.42-1.39q0-.66-.48-.66a1.89,1.89,0,0,0-1,.48,10.25,10.25,0,0,0-1.56,1.62,15.31,15.31,0,0,0-1.08,1.56Q343.42,463.53,343.21,463.92Z" style="fill: url(#linear-gradient-2)"/>
        <path d="M346.24,469.23q1.11-2.13,2.1-4.28t2-4.06a8.39,8.39,0,0,1,1-1.52,1.43,1.43,0,0,1,1.1-.43,1.89,1.89,0,0,1,.51.07,2,2,0,0,0,.54.08.91.91,0,0,0,.27,0,4.13,4.13,0,0,0-1.08,1.18c-.44.63-.89,1.36-1.35,2.18s-.87,1.59-1.23,2.31c.38-.46.77-.92,1.18-1.38a13.24,13.24,0,0,1,1.37-1.32c.44-.38.9-.8,1.39-1.25a12,12,0,0,1,1.46-1.15,2.38,2.38,0,0,1,1.26-.48.75.75,0,0,1,.27,0,.81.81,0,0,1,.57.78,1.58,1.58,0,0,1-.15.54,14.64,14.64,0,0,1-1,2.08c-.41.71-.79,1.43-1.15,2.15.3-.36.67-.8,1.12-1.32a13.76,13.76,0,0,1,1.37-1.38,13.07,13.07,0,0,1,1.68-1.26,18.84,18.84,0,0,1,2-1.14,3.93,3.93,0,0,1,1.59-.48,1.05,1.05,0,0,1,.3,0c-.44.78-.83,1.48-1.16,2.11s-.66,1.3-1,2-.65,1.39-.92,2a8.3,8.3,0,0,0-.52,1.64,3.22,3.22,0,0,0-.09.72.82.82,0,0,0,.18.63.6.6,0,0,0,.39.15,1.79,1.79,0,0,0,1.23-.63,9.73,9.73,0,0,0,1.21-1.52c.39-.59.74-1.17,1-1.74s.52-1,.66-1.3.24-.33.36-.33.18.08.18.24a.75.75,0,0,1-.09.33l-.86,1.65a17.12,17.12,0,0,1-1.12,1.87,7.15,7.15,0,0,1-1.4,1.53,2.56,2.56,0,0,1-1.63.62,2.34,2.34,0,0,1-1.28-.42,1.72,1.72,0,0,1-.64-1.56,5.48,5.48,0,0,1,.27-1.53,9,9,0,0,1,.64-1.38c.29-.52.65-1.12,1.07-1.8a1.76,1.76,0,0,0,.3-.81.32.32,0,0,0-.36-.36,1.86,1.86,0,0,0-.83.3,7.23,7.23,0,0,0-1.3,1.05,12.61,12.61,0,0,0-1.13,1.24c-.43.53-.86,1.11-1.3,1.73a17,17,0,0,0-1.14,1.83,6.35,6.35,0,0,0-.63,1.59.85.85,0,0,1-.72-.38,1.46,1.46,0,0,1-.27-.88v-.18a.88.88,0,0,1,0-.21,8,8,0,0,1,.48-1.74q.33-.81.75-1.68c.22-.42.44-.88.66-1.37a3,3,0,0,0,.33-1.12q0-.24-.18-.24a1.54,1.54,0,0,0-.69.31,11.34,11.34,0,0,0-1.32,1.1,20.87,20.87,0,0,0-1.82,2.07,23.53,23.53,0,0,0-2.32,3.84.76.76,0,0,1-.42.4,2.69,2.69,0,0,1-.75.08h-.56A1.21,1.21,0,0,0,346.24,469.23Z" style="fill: url(#linear-gradient-2)"/>
        <path d="M360.28,478.65a3.22,3.22,0,0,1-2.22-.62,1.91,1.91,0,0,1-.66-1.45,2.28,2.28,0,0,1,.12-.78q.12-.33.36-.84a4.49,4.49,0,0,1,1.17-1.5,6.9,6.9,0,0,1,1.62-1,17.81,17.81,0,0,1,3.55-1.17c1.33-.3,2.61-.63,3.83-1A15.53,15.53,0,0,0,369.1,468q.48-1.27.87-2.49c.26-.81.47-1.47.63-2-.24.44-.55,1-.92,1.6a18.09,18.09,0,0,1-1.24,1.85,7.84,7.84,0,0,1-1.49,1.5,2.46,2.46,0,0,1-2.46.45,1.78,1.78,0,0,1-.81-.56,1.82,1.82,0,0,1-.34-1.21,3.31,3.31,0,0,1,.37-1.52c.25-.49.49-1,.71-1.42a.41.41,0,0,1-.2-.06.19.19,0,0,1-.1-.18.53.53,0,0,1,.06-.24l.27-.51a5,5,0,0,0,.27-.57c.3-.62.6-1.22.9-1.79s.56-1.07.78-1.51a1.17,1.17,0,0,1,1.14-.66h1.86c-.14.12-.32.25-.53.4a2.22,2.22,0,0,0-.58.68c-.54.92-1,1.8-1.41,2.65l-1.29,2.72a7.23,7.23,0,0,0-.48,1.26,4,4,0,0,0-.15,1q0,1,.66,1t1.74-1.17a20.4,20.4,0,0,0,1.69-2.36q.85-1.37,1.65-2.82c.53-1,1-1.86,1.4-2.68a1.19,1.19,0,0,1,1.17-.66h1.65a4,4,0,0,0-1.34,1.56c-.31.64-.65,1.46-1,2.46s-.82,2.23-1.19,3.4-.78,2.35-1.24,3.53a13.53,13.53,0,0,0,2.23-1,6.14,6.14,0,0,0,2.12-2,20.47,20.47,0,0,0,1.18-2c.33-.63.57-1.08.71-1.36s.19-.3.33-.3.21.09.21.27a.75.75,0,0,1-.09.33c-.52,1-1,1.91-1.4,2.62a9.44,9.44,0,0,1-1.35,1.83,7.51,7.51,0,0,1-1.78,1.35,19.44,19.44,0,0,1-2.67,1.19c-.48.86-1,1.75-1.64,2.68a18.54,18.54,0,0,1-2.07,2.61,10.43,10.43,0,0,1-2.55,2A6.27,6.27,0,0,1,360.28,478.65Zm-.72-.6a4.11,4.11,0,0,0,2-.6,11.25,11.25,0,0,0,2-1.52,24.21,24.21,0,0,0,1.81-1.86c.55-.63,1-1.18,1.34-1.66a5.37,5.37,0,0,0,.33-.54q.18-.33.36-.63l-3.23.85a20.61,20.61,0,0,0-3,1,5.29,5.29,0,0,0-2.27,1.71,3.46,3.46,0,0,0-.82,2,1.18,1.18,0,0,0,.34.88A1.51,1.51,0,0,0,359.56,478.05Z" style="fill: url(#linear-gradient-2)"/>
      </g>
    </g>
    <g id="Layer_9" data-name="Layer 9">
      <rect x="108.6" y="425.1" width="343.83" height="1.3" style="fill: url(#linear-gradient-16)"/>
    </g>
    <g>
      <path d="M114.11,394.63c0-3.1-.17-3.9-2.06-4.07l-1.34-.13a.67.67,0,0,1,0-1.05c2.27-.21,5.12-.33,9-.33a16.08,16.08,0,0,1,7.06,1.17,5.53,5.53,0,0,1,3.19,5.25c0,3-1.76,4.58-4.28,5.76,0,.42.33.54.79.63a7,7,0,0,1,5.63,7c0,4.88-3.61,8.15-11.17,8.15-1.22,0-3.28-.12-5-.12s-3.28.08-4.83.12a.82.82,0,0,1-.09-1l.76-.12c2.23-.38,2.31-.84,2.31-5.25Zm3.44,5.59c0,1.18,0,1.26,2.19,1.18,4.28-.17,6.59-1.43,6.59-5.38,0-4.12-3.06-5.67-6.26-5.67a5.15,5.15,0,0,0-1.93.25c-.42.13-.59.34-.59,1.09Zm0,9.75c0,1.51.09,3.65.89,4.58a4.08,4.08,0,0,0,3.32,1.17c3.73,0,6.59-1.68,6.59-5.88,0-3.32-1.68-7.18-8.36-7.18-2.27,0-2.44.25-2.44,1.09Z" style="fill: url(#linear-gradient-17)"/>
      <path d="M139.52,395.47c0-4.37-.08-5-2.56-5.29l-.68-.08c-.25-.17-.16-.93.09-1.05,1.81.08,3.23.12,5,.12h7.89c2.69,0,5.17,0,5.67-.12a45.62,45.62,0,0,1,.68,5.58.82.82,0,0,1-1,.09c-.63-2-1-3.45-3.2-4a20,20,0,0,0-4.07-.25h-3c-1.26,0-1.26.08-1.26,1.68v8.4c0,1.17.13,1.17,1.39,1.17h2.44a15.56,15.56,0,0,0,3.57-.25c.5-.17.8-.42,1-1.47l.33-1.72c.21-.25.93-.25,1.09,0,0,1-.16,2.65-.16,4.24s.16,3.11.16,4c-.16.29-.88.29-1.09,0l-.38-1.64a1.78,1.78,0,0,0-1.3-1.6,14.49,14.49,0,0,0-3.23-.21h-2.44c-1.26,0-1.39.05-1.39,1.14v5.92c0,2.23.13,3.66.8,4.37.51.5,1.39,1,5.08,1,3.24,0,4.46-.17,5.38-.63.76-.42,1.89-1.89,3-4.08a.77.77,0,0,1,1.05.3,35.9,35.9,0,0,1-1.89,5.83c-3.78-.08-7.52-.12-11.25-.12h-3.78c-1.81,0-3.24,0-5.72.12a.82.82,0,0,1-.08-1l1.38-.12c2.4-.21,2.61-.84,2.61-5.25Z" style="fill: url(#linear-gradient-17)"/>
      <path d="M164.05,395.47c0-4.41-.09-5.08-2.73-5.29l-1-.08c-.26-.17-.17-.93.08-1.05,2.35.08,3.78.12,5.46.12s3.07,0,5.17-.12c.25.12.33.88.08,1.05l-1,.08c-2.47.21-2.56.88-2.56,5.29v14.62c0,2.65.13,3.74.88,4.54.47.46,1.26,1,4.58,1,3.57,0,4.46-.17,5.13-.55a9,9,0,0,0,2.77-4.16c.25-.21,1.05,0,1.05.25a34.28,34.28,0,0,1-1.76,5.88c-2.15-.08-6.14-.12-10.46-.12h-3.87c-1.76,0-3.11,0-5.46.12a.81.81,0,0,1-.08-1l1.26-.12c2.43-.25,2.52-.84,2.52-5.25Z" style="fill: url(#linear-gradient-17)"/>
      <path d="M187.27,395.47c0-4.41-.08-5.08-2.73-5.29l-1-.08a.82.82,0,0,1,.09-1.05c2.35.08,3.78.12,5.46.12s3.06,0,5.16-.12a.82.82,0,0,1,.09,1.05l-1,.08c-2.48.21-2.56.88-2.56,5.29v14.62c0,2.65.12,3.74.88,4.54.46.46,1.26,1,4.58,1,3.57,0,4.45-.17,5.12-.55a9,9,0,0,0,2.78-4.16c.25-.21,1,0,1,.25a33.54,33.54,0,0,1-1.77,5.88c-2.14-.08-6.13-.12-10.46-.12H189c-1.77,0-3.11,0-5.46.12-.26-.12-.34-.79-.09-1l1.26-.12c2.44-.25,2.52-.84,2.52-5.25Z" style="fill: url(#linear-gradient-17)"/>
      <path d="M210.5,395.47c0-4.37-.09-5-2.56-5.29l-.68-.08c-.25-.17-.16-.93.09-1.05,1.8.08,3.23.12,5,.12h7.9c2.69,0,5.17,0,5.67-.12a45.62,45.62,0,0,1,.68,5.58.82.82,0,0,1-1.05.09c-.63-2-1-3.45-3.2-4a20,20,0,0,0-4.07-.25h-3c-1.26,0-1.26.08-1.26,1.68v8.4c0,1.17.13,1.17,1.39,1.17h2.44a15.56,15.56,0,0,0,3.57-.25c.5-.17.8-.42,1-1.47l.34-1.72c.21-.25.93-.25,1.09,0,0,1-.16,2.65-.16,4.24s.16,3.11.16,4c-.16.29-.88.29-1.09,0L222.3,405a1.78,1.78,0,0,0-1.3-1.6,14.55,14.55,0,0,0-3.23-.21h-2.44c-1.26,0-1.39.05-1.39,1.14v5.92c0,2.23.13,3.66.8,4.37.51.5,1.39,1,5.08,1,3.24,0,4.46-.17,5.38-.63.76-.42,1.89-1.89,3-4.08a.77.77,0,0,1,1,.3,35.9,35.9,0,0,1-1.89,5.83c-3.78-.08-7.52-.12-11.25-.12H212.3c-1.8,0-3.23,0-5.71.12a.82.82,0,0,1-.08-1l1.38-.12c2.4-.21,2.61-.84,2.61-5.25Z" style="fill: url(#linear-gradient-17)"/>
      <path d="M244.44,397.91c2.18-3.11,3.4-4.7,4.07-6a2.76,2.76,0,0,0,.51-1.14c0-.21-.42-.33-1.52-.33h-6.26c-3.36,0-5.25.29-6.25,1.38a11.48,11.48,0,0,0-1.85,2.86.82.82,0,0,1-1-.3c.5-1.47,1.21-4,1.72-6.3a.74.74,0,0,1,.71,0c.13,1,.76,1.05,4.16,1.05h11.09a45.55,45.55,0,0,0,4.83-.12.36.36,0,0,1,.25.38c-1.13,1-4.7,5.83-6.88,9l-6.94,10c-.46.67-4.15,5.88-4.15,6.51,0,.42.42.51,1.17.59,1.09.09,3.28.09,6.22.09,2.69,0,6.17-.09,7.77-1a8.1,8.1,0,0,0,2.94-3.86c.38-.13.93-.09,1,.29a23.93,23.93,0,0,1-1.89,6c-2.31-.08-4.7-.12-7.64-.12H235.7c-2.23,0-3.74.08-4.71.12a.53.53,0,0,1-.21-.5,52.4,52.4,0,0,0,4.58-5.71Z" style="fill: url(#linear-gradient-17)"/>
      <path d="M274.17,407.15c-.29-.92-.46-1-1.72-1h-6.34c-1.05,0-1.31.13-1.6,1L263,411.52a16,16,0,0,0-.92,3.49c0,.5.21.75,1.21.84l1.39.12a.68.68,0,0,1-.08,1c-1.1-.08-2.4-.08-4.37-.12-1.39,0-2.9.08-4,.12a.82.82,0,0,1-.09-1l1.39-.12a2.81,2.81,0,0,0,2.52-2.06c.75-1.93,1.93-4.66,3.69-9.37L268,393.08c.59-1.51.84-2.31.71-3a4.73,4.73,0,0,0,2.19-1.6.59.59,0,0,1,.63.38c.54,1.85,1.22,3.78,1.85,5.63l5.75,16.88c1.22,3.62,1.77,4.25,3.57,4.46l1.14.12a.83.83,0,0,1,0,1c-1.73-.08-3.2-.12-5.09-.12s-3.61.08-4.83.12a.7.7,0,0,1-.08-1l1.22-.12c.88-.09,1.47-.34,1.47-.76a8.55,8.55,0,0,0-.55-2.23Zm-8.31-3.74c-.34,1-.3,1,.88,1h5.16c1.22,0,1.31-.17.93-1.3l-2.27-6.85a25.7,25.7,0,0,0-1-2.64h-.08a23.38,23.38,0,0,0-1,2.47Z" style="fill: url(#linear-gradient-17)"/>
      <path d="M303.15,417.57A13.13,13.13,0,0,1,296.6,416a19.45,19.45,0,0,1-1.14-5.89c.21-.29.84-.37,1-.12.63,2.14,2.35,6.26,7.23,6.26,3.53,0,5.25-2.31,5.25-4.83,0-1.85-.38-3.91-3.45-5.88l-4-2.61c-2.1-1.39-4.53-3.78-4.53-7.22,0-4,3.1-7.23,8.56-7.23a15.9,15.9,0,0,1,3.91.55,5.61,5.61,0,0,0,1.47.25,18.29,18.29,0,0,1,.76,5.12c-.17.26-.84.38-1.05.13-.55-2-1.68-4.75-5.72-4.75s-5,2.73-5,4.67c0,2.43,2,4.2,3.57,5.16l3.36,2.1c2.64,1.64,5.25,4.08,5.25,8.07C312.1,414.42,308.61,417.57,303.15,417.57Z" style="fill: url(#linear-gradient-17)"/>
      <path d="M329.74,410.6c0,4.41.08,5,2.52,5.25l1.34.12c.25.17.17.93-.08,1-2.4-.08-3.82-.12-5.5-.12s-3.16,0-5.84.12a.72.72,0,0,1,0-1l1.51-.12c2.39-.21,2.6-.84,2.6-5.25V391.82c0-1.3,0-1.34-1.26-1.34h-2.31c-1.8,0-4.11.08-5.16,1a7.57,7.57,0,0,0-1.89,2.89.81.81,0,0,1-1.1-.29,44,44,0,0,0,1.6-6.26,1.06,1.06,0,0,1,.8,0c.25,1.35,1.64,1.3,3.57,1.3h17c2.27,0,2.65-.08,3.28-1.17.21-.09.67-.05.75.12a25.88,25.88,0,0,0-.63,6.39c-.16.33-.88.33-1.09.08-.12-1-.42-2.6-1.05-3.06-1-.72-2.56-1-4.87-1h-3c-1.26,0-1.22,0-1.22,1.42Z" style="fill: url(#linear-gradient-17)"/>
      <path d="M356.62,410.51c0,4.5.25,5.17,2.52,5.34l1.59.12a.81.81,0,0,1-.08,1c-2.61-.08-4-.12-5.71-.12s-3.28,0-5.51.12a.82.82,0,0,1-.08-1l1.3-.12c2.44-.25,2.52-.84,2.52-5.34v-2.14a8.44,8.44,0,0,0-1.34-5.21l-5-9.66c-1.43-2.77-2.06-3-3.32-3.19l-1.17-.21a.76.76,0,0,1,.08-1.05c1.34.08,2.86.12,4.87.12s3.45,0,4.5-.12c.38.12.38.8.12,1.05l-.54.08c-1.47.21-1.77.42-1.77.76a20.84,20.84,0,0,0,1.31,3.23c1.55,3.11,3.1,6.43,4.74,9.33,1.3-2.23,2.69-4.67,3.95-7.1,1.18-2.19,2.73-5,2.73-5.55,0-.25-.76-.54-1.76-.67l-.76-.08a.7.7,0,0,1,.08-1.05c1.52.08,2.73.12,4,.12s2.48,0,3.9-.12a.7.7,0,0,1,.09,1.05l-1.18.21c-2.18.38-3.44,3-5.54,6.63l-2.65,4.58c-1.85,3.2-2,3.57-2,6.81Z" style="fill: url(#linear-gradient-17)"/>
      <path d="M372,395.47c0-4.41-.09-5.08-2.73-5.29l-1.05-.08c-.26-.17-.17-.93.08-1.05,2.35.08,3.78.12,5.46.12s3.07,0,5.17-.12c.25.12.33.88.08,1.05l-1,.08c-2.48.21-2.56.88-2.56,5.29v14.62c0,2.65.13,3.74.88,4.54.47.46,1.26,1,4.58,1,3.57,0,4.45-.17,5.13-.55a9,9,0,0,0,2.77-4.16c.25-.21,1,0,1,.25a33.54,33.54,0,0,1-1.77,5.88c-2.14-.08-6.13-.12-10.46-.12h-3.86c-1.76,0-3.11,0-5.46.12a.81.81,0,0,1-.08-1l1.26-.12c2.43-.25,2.52-.84,2.52-5.25Z" style="fill: url(#linear-gradient-17)"/>
      <path d="M395.21,395.56c0-4.46-.08-5.17-2.56-5.38l-1-.08c-.25-.17-.17-.93.08-1.05,2.1.08,3.53.12,5.3.12s3.1,0,5.21-.12c.25.12.33.88.08,1.05l-1,.08c-2.48.21-2.56.92-2.56,5.38v14.95c0,4.46.08,5,2.56,5.34l1,.12c.25.17.17.93-.08,1-2.11-.08-3.53-.12-5.21-.12s-3.2,0-5.3.12a.82.82,0,0,1-.08-1l1-.12c2.48-.3,2.56-.88,2.56-5.34Z" style="fill: url(#linear-gradient-17)"/>
      <path d="M413.44,417.57a13.13,13.13,0,0,1-6.55-1.55,19.45,19.45,0,0,1-1.14-5.89c.21-.29.84-.37,1-.12.63,2.14,2.35,6.26,7.23,6.26,3.53,0,5.25-2.31,5.25-4.83,0-1.85-.38-3.91-3.45-5.88l-4-2.61c-2.1-1.39-4.53-3.78-4.53-7.22,0-4,3.1-7.23,8.56-7.23a15.9,15.9,0,0,1,3.91.55,5.61,5.61,0,0,0,1.47.25,18.29,18.29,0,0,1,.76,5.12c-.17.26-.84.38-1.05.13-.55-2-1.68-4.75-5.72-4.75s-5,2.73-5,4.67c0,2.43,2,4.2,3.57,5.16l3.36,2.1c2.64,1.64,5.25,4.08,5.25,8.07C422.39,414.42,418.9,417.57,413.44,417.57Z" style="fill: url(#linear-gradient-17)"/>
      <path d="M440,410.6c0,4.41.08,5,2.52,5.25l1.34.12c.25.17.17.93-.08,1-2.4-.08-3.82-.12-5.5-.12s-3.15,0-5.84.12a.72.72,0,0,1,0-1l1.51-.12c2.39-.21,2.6-.84,2.6-5.25V391.82c0-1.3,0-1.34-1.26-1.34H433c-1.8,0-4.11.08-5.16,1a7.57,7.57,0,0,0-1.89,2.89.81.81,0,0,1-1.1-.29,44,44,0,0,0,1.6-6.26,1.06,1.06,0,0,1,.8,0c.25,1.35,1.64,1.3,3.57,1.3h17c2.27,0,2.65-.08,3.28-1.17.21-.09.67-.05.75.12a25.88,25.88,0,0,0-.63,6.39c-.16.33-.88.33-1.09.08-.12-1-.42-2.6-1-3.06-1-.72-2.56-1-4.87-1h-3c-1.26,0-1.22,0-1.22,1.42Z" style="fill: url(#linear-gradient-17)"/>
    </g>
  </g>
  <g id="Layer_12" data-name="Layer 12">
    <g id="Layer_14" data-name="Layer 14">
      <path d="M390,329.22c.95,2.24-3.15,7.14,10.78,13.64-18.17-1.09-19.58-9.67-19.58-9.67l-1.85.61c2.44,4.07,4.49,8.37,11.49,10.93-12.69.49-16.54-6.43-16.54-6.43l-1.22.78c1.3,3.57,4,6.32,8.78,7.53h0c-6.27,1.1-14.21-.62-18.05-4.06l-9.06.54s48.95-7.49,75.94-67.79c0,0,9.82,26.52,36.61,14.13-7.53,10-24.69,22.86-47.37,14.05a34.19,34.19,0,0,0,34.3,5.75c-19.46,19.42-41.73,8.43-44.05,5.29-.42-.57.3-.75.49-.06.45,1.65.61,5,5.69,8.15,4.31,2.65,14.17,3.93,19.16,3.17-22.18,8.77-32-2.22-32-2.22-.66.25.65-.21,0,0,0,0-1.35,9.44,17.56,10.53-7.91,4-19.87,3.81-25.87-6.39-.79.13.93-1.11.14-1,.27.82.31,4.38,2.49,7.05a15.37,15.37,0,0,0,10.65,5.69c-16.94-.08-20.45-9-20.45-9" style="fill: url(#linear-gradient-31)"/>
    </g>
    <path d="M435,255.43c-.39,4.41-1,8.81-1.8,13.18a119.64,119.64,0,0,1-3.27,13A104,104,0,0,1,418.59,306a102,102,0,0,1-17.52,20.65,111.9,111.9,0,0,1-22.28,15.47,127,127,0,0,1-25.15,10,149.8,149.8,0,0,1-26.53,5,166.25,166.25,0,0,1-27,.28q-6.73-.48-13.41-1.51c-2.26-.34-4.4-.75-6.56-1.13s-4.42-.83-6.6-1.3a154.37,154.37,0,0,1-25.69-8.12q-6.21-2.55-12.21-5.44c-4-1.94-7.92-4-11.8-6.07-15.53-8.29-30.22-17.7-46-24.22a87.27,87.27,0,0,0-24.52-6.48,65.89,65.89,0,0,0-25,2.23,42.86,42.86,0,0,0-11.31,5,23,23,0,0,0-8.13,8.5,15.47,15.47,0,0,0-1.09,11.09,16.32,16.32,0,0,0,2.48,5.13,22.41,22.41,0,0,0,4,4.32c6.12,5.14,14.61,7.08,22.73,7.18,8.17-.08,16.46-2.27,24.31-5.29,15.78-6.16,30.14-15.82,43.38-26.61,6.61-5.44,13-11.2,19.13-17.19s12-12.3,17.81-18.65c11.48-12.83,22.28-26.31,32.61-40.16l7.8-10.48c2.65-3.52,5.25-7.07,8-10.52s5.4-7,8.23-10.35,5.56-6.84,8.47-10.17l4.32-5c1.45-1.67,3-3.28,4.43-4.93l4.45-4.9,4.56-4.81c3-3.23,6.18-6.32,9.28-9.47,1.54-1.58,3.18-3.07,4.78-4.6s3.19-3.06,4.86-4.52q9.78-9,20.28-17.18a253,253,0,0,1,21.88-15.19,173.9,173.9,0,0,1,23.74-12.23,122.33,122.33,0,0,1,12.66-4.42c2.16-.6,4.36-1.11,6.57-1.54,1.11-.2,2.22-.4,3.36-.54a34,34,0,0,1,3.52-.28l.15,3.68c-.87.12-2,.35-3,.59s-2,.51-3.05.8c-2,.61-4,1.29-6,2.07a114.75,114.75,0,0,0-11.67,5.22,178.49,178.49,0,0,0-21.9,13.37,247.31,247.31,0,0,0-20.29,15.84c-6.51,5.61-12.87,11.4-19,17.49a502.89,502.89,0,0,0-34.74,38.32c-2.79,3.29-5.45,6.7-8.15,10.08s-5.31,6.82-8,10.23-5.21,6.91-7.78,10.39l-7.82,10.53c-2.61,3.56-5.35,7-8.05,10.5s-5.54,6.88-8.35,10.29-5.71,6.74-8.68,10c-1.49,1.64-2.93,3.31-4.44,4.93l-4.53,4.86a307.26,307.26,0,0,1-39.59,35.52c-14.29,10.57-29.79,19.89-46.89,25.7-8.53,2.87-17.51,4.86-26.83,4.61a47.87,47.87,0,0,1-6.92-.75,46.91,46.91,0,0,1-6.74-1.72,35.42,35.42,0,0,1-12.24-6.93,24.83,24.83,0,0,1-7.77-12.06,20.85,20.85,0,0,1-.56-7.31,20.12,20.12,0,0,1,2.11-7.06,28,28,0,0,1,9.72-10.26,47.79,47.79,0,0,1,12.5-5.65,68.81,68.81,0,0,1,13.29-2.53,76.17,76.17,0,0,1,13.51-.2,100.66,100.66,0,0,1,26.2,5.91,247.25,247.25,0,0,1,24.37,10.54l23.47,11.56c3.9,1.87,7.81,3.68,11.74,5.39s7.88,3.38,11.86,4.88a173.06,173.06,0,0,0,24.32,7.29c2.08.43,4.07.83,6.25,1.17s4.28.81,6.34,1.13c4.17.68,8.38,1.18,12.6,1.51a155.61,155.61,0,0,0,25.36-.06,134.62,134.62,0,0,0,48.62-13,104.51,104.51,0,0,0,21.07-13.7,94.83,94.83,0,0,0,17-18.52,100.67,100.67,0,0,0,11.82-22.42,111.73,111.73,0,0,0,3.87-12.21A128.35,128.35,0,0,0,431.32,255Z" style="fill: url(#linear-gradient-32)"/>
    <g id="Layer_13" data-name="Layer 13">
      <path d="M274.65,152a46.59,46.59,0,0,1,9.52,27.6c.3,10-2.59,19.87-7.06,28.69a87.36,87.36,0,0,1-7.82,12.62,95.84,95.84,0,0,1-9.66,11.29,83.36,83.36,0,0,1-24.48,17.15,74,74,0,0,1-14.35,4.87,70.23,70.23,0,0,1-7.54,1.29c-1.28.13-2.56.24-3.87.3-.65,0-1.3,0-2,0h-1l-.54,0c-.11,0-.61-.05-.71-.07a51.05,51.05,0,0,1-7.65-1.65,62.88,62.88,0,0,1-7.23-2.7,57.53,57.53,0,0,1-6.84-3.64,49.5,49.5,0,0,1-6.34-4.58A43.47,43.47,0,0,1,167,231.07a45.56,45.56,0,0,1-5.13-14.87c-.2-1.29-.38-2.57-.49-3.87l-.13-2,0-2a46.1,46.1,0,0,1,.72-7.88,53.41,53.41,0,0,1,5-14.72c4.66-9.19,11.22-17,18.36-23.9a170.29,170.29,0,0,1,23.17-18.44A219.69,219.69,0,0,1,234,128.62c4.61-2.18,9.12-4,13.76-5.67s9.28-3.23,14-4.63c18.84-5.51,38.54-8.83,58.49-8.24a126.57,126.57,0,0,1,29.69,4.3,103.36,103.36,0,0,1,27.77,12.08,100.76,100.76,0,0,1,22.87,19.91c.84.95,1.63,1.93,2.41,2.92l1.17,1.48.3.37.39.53.62.92a42.64,42.64,0,0,1,3.72,7.35,42.52,42.52,0,0,1-.17,32,53.91,53.91,0,0,1-8.2,13.64,72.22,72.22,0,0,1-11,10.86c-1,.81-2,1.56-3,2.32s-2.06,1.46-3.12,2.14c-2.09,1.41-4.24,2.69-6.42,3.91l-1.65.9-.82.45-.47.25-.49.24c-1.23.6-2.42,1.08-3.62,1.55a74.24,74.24,0,0,1-7.27,2.37,94.21,94.21,0,0,1-14.83,2.77c-2.5.27-5,.43-7.5.51s-5,.08-7.59-.07a9,9,0,0,1-1.15-.14c-.35,0-.69-.11-1-.18a18.92,18.92,0,0,1-2.09-.54,13.12,13.12,0,0,1-2.22-.94,7,7,0,0,1-2.41-2.08,5.52,5.52,0,0,1-.91-4.1c0-.16.06-.34.09-.47l.09-.34a5.25,5.25,0,0,1,.22-.67,8,8,0,0,1,.62-1.33,9.18,9.18,0,0,1,4.33-3.77,17.22,17.22,0,0,1,9.28-.86,25.73,25.73,0,0,1,8.31,2.71l1.64.87,1.58.82c1.07.55,2.18,1.12,3.29,1.73a61.35,61.35,0,0,1,6.61,4.19,41.43,41.43,0,0,1,11.14,12.1,46.23,46.23,0,0,1,5.72,15.56c.25,1.35.41,2.69.57,4s.23,2.67.26,4.07a49.75,49.75,0,0,1-.51,8.21,56.9,56.9,0,0,1-4.6,15.4,70.39,70.39,0,0,1-19.09,24.6,83.92,83.92,0,0,1-12.69,8.74c-2.22,1.28-4.52,2.4-6.83,3.47-1.16.53-2.33,1-3.51,1.52s-2.42,1-3.66,1.36a55.94,55.94,0,0,1-31,1.72,43.94,43.94,0,0,1-14.56-6.37,31.2,31.2,0,0,1-3.24-2.57,21.74,21.74,0,0,1-2.95-3.26c-.23-.31-.45-.66-.66-1l-.55-.94c-.34-.63-.66-1.28-.94-1.94a22.69,22.69,0,0,1-1.32-4.09A24.41,24.41,0,0,1,273.12,293a35,35,0,0,1,10.29-11.85,59.15,59.15,0,0,1,13.2-7.35,87.39,87.39,0,0,1,14.14-4.36,147.4,147.4,0,0,1,29-3.26l.11,1.64a158.42,158.42,0,0,0-28.11,5.36,91,91,0,0,0-13.17,5A53.5,53.5,0,0,0,287,285.56a29.85,29.85,0,0,0-8,10.24,17.4,17.4,0,0,0-1.12,11.8,15.22,15.22,0,0,0,1,2.73c.21.44.45.86.7,1.28l.4.61.37.48a18.61,18.61,0,0,0,4.55,3.75,36.24,36.24,0,0,0,12,4.6,46.85,46.85,0,0,0,25.85-2.61c1-.37,2-.83,3.08-1.25s2.06-.95,3.07-1.45c2-1,4-2.09,5.95-3.28a73,73,0,0,0,10.84-8,61.74,61.74,0,0,0,15.54-21.13,45.44,45.44,0,0,0,3.41-12.28,38.1,38.1,0,0,0,.25-6.21c0-1-.15-2.06-.26-3.13s-.29-2.09-.51-3.11a34.15,34.15,0,0,0-4.4-11.35,45.2,45.2,0,0,0-7.91-9.46c-1.58-1.46-3.27-2.89-5.08-4.31L344,231.32l-1.47-1.13-.76-.59-.37-.29-.26-.21a16.19,16.19,0,0,0-5-2.75,9.84,9.84,0,0,0-5-.52,2.11,2.11,0,0,0-1.21.65,1.62,1.62,0,0,0-.19.29s-.05.12-.09.17l0,.1s0,0,0,0a2.55,2.55,0,0,0-.05-.35.84.84,0,0,0-.16-.31c-.1-.09,0,.1.29.27a5.75,5.75,0,0,0,1.08.52,10.79,10.79,0,0,0,1.39.41c.25.06.5.12.75.16a5.07,5.07,0,0,0,.63.1,60.39,60.39,0,0,0,6.87.05,60.75,60.75,0,0,0,13.65-2.28,62.06,62.06,0,0,0,6.54-2.21,65.92,65.92,0,0,0,6.21-2.84c1-.52,2-1.08,2.87-1.63l2.77-1.87c1.89-1.36,3.79-2.69,5.62-4.09s3.6-2.85,5.33-4.33a73.89,73.89,0,0,0,9.47-9.5c5.58-6.8,9.14-14.89,9.14-23.21a33.23,33.23,0,0,0-2.32-12.22,32.21,32.21,0,0,0-2.8-5.53l-.38-.58-.15-.2-.27-.34L395,155.68c-.71-.91-1.43-1.8-2.19-2.65a89.91,89.91,0,0,0-20.56-17.93,93.23,93.23,0,0,0-25-11.13,117.3,117.3,0,0,0-27.36-4.2c-18.63-.71-37.48,2.18-55.65,7.26-4.54,1.28-9.05,2.7-13.5,4.27s-8.9,3.28-13,5.18a208.28,208.28,0,0,0-24.58,14A162.22,162.22,0,0,0,191,167.82c-6.74,6.41-12.77,13.58-16.9,21.59a45.54,45.54,0,0,0-4.39,12.5,39.42,39.42,0,0,0-.64,6.49l0,1.63.1,1.62c.08,1.1.23,2.21.39,3.3a37.94,37.94,0,0,0,4.13,12.37,36.17,36.17,0,0,0,8.25,10,43.18,43.18,0,0,0,11.41,6.8,56.28,56.28,0,0,0,6.36,2.22,55.18,55.18,0,0,0,6.44,1.5l.19,0,.36,0,.79,0c.54,0,1.09,0,1.64,0,1.11,0,2.23-.06,3.35-.14a59.55,59.55,0,0,0,6.74-.9A67,67,0,0,0,232.42,243c17.06-7,31.18-20.82,40.67-36.9A57.41,57.41,0,0,0,281,179.59a46.69,46.69,0,0,0-1.65-13.9,45,45,0,0,0-2.42-6.63,35.11,35.11,0,0,0-3.49-6.09Z" style="fill: url(#linear-gradient-33)"/>
    </g>
  </g>
</svg>
