<?xml version="1.0" encoding="utf-8"?>
<!-- Generator: Adobe Illustrator 24.1.2, SVG Export Plug-In . SVG Version: 6.00 Build 0)  -->
<svg version="1.1" id="Layer_1" xmlns="http://www.w3.org/2000/svg" xmlns:xlink="http://www.w3.org/1999/xlink" x="0px" y="0px"
	 viewBox="0 0 618.7 618.7" style="enable-background:new 0 0 618.7 618.7;" xml:space="preserve">
<style type="text/css">
	.st0{fill:#FFFFFF;}
	.st1{fill:none;stroke:url(#SVGID_1_);stroke-width:10;stroke-miterlimit:10;}
	.st2{fill:url(#SVGID_2_);}
	.st3{fill:url(#SVGID_3_);}
	.st4{fill:url(#SVGID_4_);}
	.st5{fill:url(#SVGID_5_);}
	.st6{fill:url(#SVGID_6_);}
	.st7{fill:url(#SVGID_7_);}
	.st8{fill:url(#SVGID_8_);}
	.st9{fill:url(#SVGID_9_);}
	.st10{fill:url(#SVGID_10_);}
	.st11{fill:url(#SVGID_11_);}
	.st12{fill:url(#SVGID_12_);}
	.st13{fill:url(#SVGID_13_);}
	.st14{fill:url(#SVGID_14_);}
	.st15{fill:url(#SVGID_15_);}
	.st16{fill:url(#SVGID_16_);}
	.st17{fill:url(#SVGID_17_);}
	.st18{fill:url(#SVGID_18_);}
	.st19{fill:url(#SVGID_19_);}
	.st20{fill:url(#SVGID_20_);}
	.st21{fill:url(#SVGID_21_);}
	.st22{fill:url(#SVGID_22_);}
	.st23{fill:url(#SVGID_23_);}
	.st24{fill:url(#SVGID_24_);}
	.st25{fill:url(#SVGID_25_);}
	.st26{fill:url(#SVGID_26_);}
	.st27{fill:url(#SVGID_27_);}
	.st28{fill:url(#SVGID_28_);}
	.st29{fill:url(#SVGID_29_);}
	.st30{fill:url(#SVGID_30_);}
	.st31{fill:url(#SVGID_31_);}
	.st32{fill:url(#SVGID_32_);}
	.st33{fill:url(#SVGID_33_);}
	.st34{fill:url(#SVGID_34_);}
</style>
<g>
	<g id="Layer_15">
		
			<image style="overflow:visible;opacity:0.7;enable-background:new    ;" width="2578" height="2578" xlink:href="8BABF158.png"  transform="matrix(0.24 0 0 0.24 0 0)">
		</image>
		<circle class="st0" cx="308.5" cy="308.4" r="300"/>
		
			<linearGradient id="SVGID_1_" gradientUnits="userSpaceOnUse" x1="3.48" y1="308.56" x2="613.48" y2="308.56" gradientTransform="matrix(1 0 0 -1 0 617)">
			<stop  offset="0" style="stop-color:#FFC882"/>
			<stop  offset="0.13" style="stop-color:#F0BB72"/>
			<stop  offset="0.34" style="stop-color:#DDAB5D"/>
			<stop  offset="0.48" style="stop-color:#D6A556"/>
			<stop  offset="0.64" style="stop-color:#DFAD61"/>
			<stop  offset="0.9" style="stop-color:#F8C47D"/>
			<stop  offset="0.97" style="stop-color:#FFCA85"/>
		</linearGradient>
		<circle class="st1" cx="308.5" cy="308.4" r="300"/>
	</g>
	<g id="Layer_8">
		
			<image style="overflow:visible;opacity:0.7;" width="377" height="119" xlink:href="8BABF159.png"  transform="matrix(1 0 0 1 121.1496 398.8696)">
		</image>
		<g>
			<g>
				<g id="Layer_10_9_">
					<g>
						
							<linearGradient id="SVGID_2_" gradientUnits="userSpaceOnUse" x1="185.42" y1="123.5562" x2="434.58" y2="123.5562" gradientTransform="matrix(1 0 0 -1 -1.52 615.44)">
							<stop  offset="0" style="stop-color:#DCAA5C"/>
							<stop  offset="0.51" style="stop-color:#FFCA85"/>
							<stop  offset="1" style="stop-color:#D6A556"/>
						</linearGradient>
						<path class="st2" d="M216.5,515.1c-0.2,0-0.3-0.2-0.1-0.5l0.4-1c0.3-0.7,0.4-1.5,0.4-2.2c0-1-0.2-1.9-0.5-2.8
							c-0.4-1.1-1-2-1.9-2.8c-1.3-1.2-2.7-2.1-4.3-2.8c-1.6-0.7-3.3-1.3-5-1.7c-1.7-0.4-3.5-0.8-5.2-1.1c-1,1.4-2.1,2.7-3.3,3.9
							c-1.1,1.1-2.4,2-3.8,2.6c-0.7,0.3-1.4,0.6-2.2,0.8c-0.7,0.2-1.3,0.3-2,0.3c-1.3,0.1-2.6-0.4-3.7-1.2c-0.9-0.7-1.4-1.7-1.4-2.8
							c0-1.1,0.5-2.2,1.4-3c1.3-1.2,2.9-2,4.6-2.4c0.9-0.3,1.9-0.4,2.8-0.5c1.1-0.1,2.2-0.2,3.2-0.2c0.7,0,1.4,0,2.1,0.1
							c0.6,0,1.3,0.1,1.9,0.3c0.8-1.2,1.5-2.4,2.2-3.7c0.7-1.3,1.4-2.6,2.1-4.1c-1.9,0.1-3.7-0.2-5.5-0.9c-1.4-0.6-2.6-1.5-3.6-2.7
							c-1.5-2-1.7-4.7-0.3-6.8c0.7-1.1,1.7-2.1,2.9-2.8c1.6-0.9,3.3-1.6,5.1-2c0.1,0,0.2-0.1,0.4-0.1h0.3c0.4,0,0.6,0.1,0.6,0.2
							c0,0.3-0.4,0.5-1.3,0.6c-1.3,0.1-2.6,0.7-3.7,1.5c-1,0.8-1.9,1.8-2.4,3c-0.6,1.1-0.8,2.3-0.9,3.5c0,1,0.2,2,0.7,2.9
							c0.5,0.9,1.3,1.7,2.3,2.1c1.2,0.6,2.6,0.9,4,0.8c0.6,0,1.3,0,1.9-0.1c0.1-0.2,0.3-0.6,0.5-1.3c0.3-0.7,0.5-1.4,0.9-2.2
							s0.6-1.6,0.9-2.4s0.7-1.7,1.1-2.7c1-2.6,2.2-5,3.8-7.2c1-1.5,2.3-2.7,3.8-3.7c1-0.6,2.1-1,3.3-1.1c0.9,0,1.9,0.3,2.6,0.9
							c0.6,0.5,1,1.3,1.1,2.1c0,0.2,0,0.3,0,0.5v0.4c0,1.6-0.3,3.2-0.9,4.7c-0.6,1.6-1.5,3.1-2.6,4.5c-1.1,1.4-2.4,2.7-3.8,3.9
							c-1.4,1.1-2.9,2.1-4.6,2.9c-1.6,0.8-3.2,1.3-4.9,1.6l-1.1,2.1c-0.3,0.6-0.6,1.3-1,2s-0.9,1.6-1.5,2.8
							c-0.1,0.3-0.3,0.5-0.4,0.7l-0.4,0.7c1.5,0.4,2.9,0.8,4.4,1.3c1.6,0.6,3.1,1.2,4.7,2c1.4,0.7,2.8,1.6,4.1,2.6
							c1.4,1,2.5,2.3,3.2,3.9c0.6,1.2,0.9,2.5,0.9,3.8c0,0.6-0.1,1.2-0.4,1.8c-0.2,0.5-0.6,0.9-1,1.1
							C217,515,216.7,515.1,216.5,515.1z M188.5,506.6c0.6,0,1.3-0.1,1.9-0.2c0.7-0.2,1.5-0.4,2.1-0.8c2.5-1.3,4.7-3.3,6.2-5.7
							c-0.6-0.1-1.3-0.2-1.9-0.3c-0.7-0.1-1.3-0.1-2-0.1c-0.7,0-1.5,0-2.2,0.1c-0.8,0.1-1.5,0.2-2.2,0.4c-1.5,0.3-2.9,1-4.1,1.8
							c-0.8,0.5-1.3,1.3-1.4,2.3c0,0.7,0.4,1.3,1,1.7C186.6,506.4,187.5,506.6,188.5,506.6L188.5,506.6z M206.5,488.9
							c1.9-0.4,3.7-1.2,5.3-2.2c1.7-1,3.3-2.3,4.7-3.8c1.4-1.5,2.5-3.1,3.3-4.9c0.8-1.7,1.2-3.6,1.2-5.4c0-0.4-0.1-0.8-0.4-1.1
							c-0.2-0.3-0.6-0.5-1-0.5c-0.9,0.1-1.7,0.4-2.4,1c-1.2,1-2.4,2.1-3.3,3.4c-1.5,2.1-2.9,4.2-4,6.5l-1.9,3.7
							c-0.7,1.1-1.2,2.2-1.8,3.3H206.5z"/>
						
							<linearGradient id="SVGID_3_" gradientUnits="userSpaceOnUse" x1="185.42" y1="119.4986" x2="434.58" y2="119.4986" gradientTransform="matrix(1 0 0 -1 -1.52 615.44)">
							<stop  offset="0" style="stop-color:#DCAA5C"/>
							<stop  offset="0.51" style="stop-color:#FFCA85"/>
							<stop  offset="1" style="stop-color:#D6A556"/>
						</linearGradient>
						<path class="st3" d="M223.6,503.2c-0.3,0-0.7-0.1-1-0.2c-0.4-0.2-0.8-0.5-1-0.9c-0.3-0.5-0.5-1.2-0.4-1.8
							c0-0.8,0.1-1.6,0.4-2.3c-0.3,0.5-0.7,1.1-1.2,1.9c-0.5,0.7-1,1.3-1.6,1.9c-0.4,0.4-0.9,0.7-1.4,1c-0.4,0.2-0.8,0.3-1.2,0.3
							c-0.7,0-1.3-0.4-1.7-0.9c-0.5-0.7-0.7-1.6-0.6-2.5c0-1.3,0.3-2.5,0.8-3.6c0.6-1.5,1.5-3,2.6-4.2c0.8-0.9,1.7-1.7,2.8-2.3
							c1-0.5,2.1-0.8,3.3-0.9c0.6,0,1.2,0.1,1.8,0.3c0.6,0.2,1.1,0.5,1.5,1c0.2,0.2,0.3,0.4,0.3,0.6c0,0.2-0.1,0.3-0.2,0.4
							c-0.1,0.1-0.3,0.1-0.5,0.1c-0.2-0.9-1-1.5-1.9-1.4c-0.5,0-1.1,0.2-1.6,0.4c-1.1,0.6-2,1.4-2.8,2.4c-0.9,1.1-1.8,2.2-2.5,3.4
							c-0.1,0.2-0.3,0.5-0.5,0.9s-0.4,1-0.7,1.5c-0.2,0.5-0.4,1.1-0.4,1.6c0,0.2,0,0.3,0,0.3v0.3c0,0.9,0.3,1.3,1,1.3
							s1.7-0.6,2.7-1.8c0.7-0.8,1.3-1.7,1.9-2.7c0.6-0.9,1.1-1.9,1.7-3c0.3-0.6,0.7-1.2,1.1-1.8c0.3-0.5,0.9-0.7,1.5-0.7
							c0.3,0,0.6,0,0.9,0.1c0.3,0.1,0.6,0.1,0.9,0c-0.3,0.4-0.6,0.8-0.9,1.2c-0.4,0.6-0.7,1.3-1.1,2c-0.4,0.7-0.8,1.5-1.1,2.3
							c-0.3,0.6-0.5,1.3-0.7,2c0,0.2-0.1,0.4-0.1,0.7c0,0.2-0.1,0.4-0.1,0.6c0,0.8,0.2,1.1,0.6,1.1c0.5-0.1,1-0.3,1.4-0.8
							c0.5-0.6,1-1.2,1.5-1.9c0.5-0.8,0.9-1.5,1.3-2.3s0.7-1.4,1-1.9c0.1-0.3,0.3-0.4,0.5-0.4s0.2,0.1,0.2,0.3
							c0,0.2-0.1,0.3-0.1,0.4c-0.3,0.7-0.7,1.4-1.2,2.3c-0.4,0.8-0.9,1.6-1.5,2.4c-0.5,0.7-1,1.4-1.7,2
							C224.9,502.8,224.3,503.1,223.6,503.2z"/>
						
							<linearGradient id="SVGID_4_" gradientUnits="userSpaceOnUse" x1="185.42" y1="120.2443" x2="434.58" y2="120.2443" gradientTransform="matrix(1 0 0 -1 -1.52 615.44)">
							<stop  offset="0" style="stop-color:#DCAA5C"/>
							<stop  offset="0.51" style="stop-color:#FFCA85"/>
							<stop  offset="1" style="stop-color:#D6A556"/>
						</linearGradient>
						<path class="st4" d="M230,503.2c-1,0.1-2.1-0.3-2.8-1c-0.5-0.6-0.8-1.4-0.8-2.1c0-0.6,0.2-1.2,0.5-1.7
							c0.2-0.4,0.6-0.7,1.1-0.8c0.5-1,1.1-2.2,1.7-3.4s1.2-2.4,1.7-3.6c0.4-0.8,0.9-1.5,1.4-2.2c0.4-0.6,1.1-1.1,1.9-1.3h0.4
							c0.2,0,0.4,0,0.6,0c0.2,0,0.4,0.1,0.5,0.2c0.3,0.1,0.4,0.3,0.4,0.6c0,0.2-0.1,0.2-0.3,0.2c-0.1,0-0.2-0.1-0.3-0.1
							c-0.3-0.1-0.5-0.2-0.8-0.2c-0.2,0-0.3,0-0.4,0.1c-0.5,0.2-0.8,0.6-1.1,1.1c-0.2,0.5-0.3,1-0.3,1.5c0,0.4,0.1,0.9,0.1,1.3
							c0.1,0.4,0.2,0.8,0.3,1.2c0.3,0.8,0.6,1.5,0.9,2.2c0.3,0.7,0.5,1.5,0.5,2.3c0,0.9-0.3,1.8-0.8,2.5c-0.5,0.9-1.2,1.6-2,2.1
							l0.3,0h0.3h0.1c0.6,0,1.2-0.2,1.7-0.5c0.6-0.4,1-0.8,1.5-1.3c0.5-0.7,1-1.5,1.5-2.3c0.6-1,1.1-2,1.6-3
							c0.1-0.1,0.2-0.2,0.3-0.2c0.2,0,0.3,0.1,0.4,0.3c0,0.1,0,0.1,0,0.2c-0.3,0.7-0.7,1.5-1.2,2.4c-0.4,0.9-0.9,1.7-1.5,2.5
							c-0.5,0.8-1.2,1.4-1.9,1.9c-0.7,0.5-1.6,0.8-2.5,0.7c-0.2,0-0.5,0-0.7,0c-0.2,0-0.5-0.1-0.7-0.2c-0.3,0.1-0.5,0.2-0.8,0.3
							C230.5,503.2,230.3,503.2,230,503.2z M229.7,502.6c0.1,0,0.3,0,0.4-0.1l0.4-0.1c-1-0.7-1.6-1.9-1.6-3.1
							c-0.4,0.4-0.7,1-0.7,1.6c0,0.4,0.1,0.8,0.4,1.1C228.8,502.4,229.2,502.6,229.7,502.6L229.7,502.6z M231.2,502
							c0.5-0.5,0.9-1,1.2-1.6c0.4-0.9,0.6-1.9,0.5-2.8c0-1.1-0.1-2.2-0.3-3.3c-0.2-1-0.3-2.1-0.3-3.1c0-0.2,0-0.4,0-0.5l0.1-0.4
							c-0.3,0.7-0.7,1.6-1.2,2.5s-0.9,1.9-1.4,2.8l-1.2,2.2c0.2,0,0.5,0.1,0.6,0.3c0.2,0.3,0.2,0.7,0.2,1c0,0.7,0.1,1.3,0.5,1.9
							C230.2,501.4,230.6,501.8,231.2,502z"/>
						
							<linearGradient id="SVGID_5_" gradientUnits="userSpaceOnUse" x1="185.42" y1="124.3655" x2="434.58" y2="124.3655" gradientTransform="matrix(1 0 0 -1 -1.52 615.44)">
							<stop  offset="0" style="stop-color:#DCAA5C"/>
							<stop  offset="0.51" style="stop-color:#FFCA85"/>
							<stop  offset="1" style="stop-color:#D6A556"/>
						</linearGradient>
						<path class="st5" d="M235.5,503.4c1.1-2.3,2.3-4.7,3.5-7.2c1.2-2.5,2.5-5.1,3.7-7.6c1.3-2.6,2.6-5,3.8-7.3
							c0.4-0.7,0.8-1.3,1.3-1.9c0.4-0.5,0.9-0.7,1.5-0.7c0.3,0,0.6,0,0.8,0.1c0.3,0.1,0.6,0.1,0.9,0c-0.5,0.6-1,1.3-1.4,2
							c-0.6,0.9-1.3,2.1-2,3.4s-1.5,2.7-2.3,4.2s-1.6,3-2.4,4.6s-1.5,3-2.2,4.3c0.5-0.7,1.1-1.3,1.6-2c0.5-0.6,1.1-1.1,1.6-1.6
							c0.7-0.6,1.4-1.2,2.2-1.7c0.9-0.6,1.8-1.1,2.7-1.5c0.7-0.4,1.4-0.6,2.1-0.6c0.1,0,0.3,0,0.4,0c-0.6,1.1-1.1,2-1.5,2.8
							s-0.9,1.7-1.4,2.7s-0.9,1.9-1.2,2.7c-0.3,0.7-0.5,1.4-0.7,2.1c-0.1,0.4-0.1,0.7-0.1,1.1c0,0.3,0,0.6,0.2,0.9
							c0.1,0.1,0.3,0.2,0.5,0.2c0.6-0.1,1.1-0.4,1.5-0.9c0.6-0.6,1.1-1.3,1.6-2.1c0.5-0.8,1-1.6,1.4-2.4s0.7-1.4,0.9-1.8
							s0.3-0.5,0.5-0.5s0.2,0.1,0.2,0.3c0,0.2-0.1,0.3-0.1,0.5l-1.2,2.4c-0.4,0.9-0.9,1.7-1.5,2.5c-0.5,0.7-1.1,1.4-1.8,2
							c-0.6,0.5-1.3,0.7-2.1,0.8c-0.6,0-1.2-0.2-1.6-0.6c-0.6-0.5-0.9-1.2-0.8-2c0-0.3,0-0.6,0.1-0.9c0.1-0.4,0.2-0.8,0.3-1.1
							c0.2-0.6,0.5-1.2,0.8-1.8c0.4-0.7,0.9-1.5,1.4-2.5c0.2-0.3,0.4-0.7,0.4-1.1c0-0.2-0.1-0.4-0.3-0.5c0,0-0.1,0-0.1,0
							c-0.4,0-0.8,0.2-1.1,0.4c-0.6,0.4-1.2,0.9-1.7,1.4c-0.9,0.9-1.7,1.8-2.5,2.8c-1.2,1.6-2.3,3.3-3.2,5.2
							c-0.2,0.3-0.4,0.5-0.6,0.5l-0.9,0l-0.7,0.1C235.9,503.2,235.6,503.3,235.5,503.4z"/>
						
							<linearGradient id="SVGID_6_" gradientUnits="userSpaceOnUse" x1="185.42" y1="119.4803" x2="434.58" y2="119.4803" gradientTransform="matrix(1 0 0 -1 -1.52 615.44)">
							<stop  offset="0" style="stop-color:#DCAA5C"/>
							<stop  offset="0.51" style="stop-color:#FFCA85"/>
							<stop  offset="1" style="stop-color:#D6A556"/>
						</linearGradient>
						<path class="st6" d="M255.5,503.2c-1,0-1.9-0.4-2.7-1c-0.8-0.7-1.3-1.8-1.2-2.9c0-1.3,0.3-2.7,0.9-3.9
							c0.6-1.3,1.3-2.5,2.2-3.6c0.7-0.9,1.6-1.6,2.6-2.2c0.8-0.5,1.8-0.8,2.7-0.9c0.5,0,1.1,0.2,1.5,0.5c0.5,0.4,0.7,0.9,0.7,1.5
							c0,0.8-0.3,1.6-0.8,2.2c-0.6,0.9-1.3,1.6-2.2,2.2c-0.5,0.3-1,0.6-1.5,0.8c-0.6,0.3-1.2,0.5-1.8,0.7c-0.5,0.2-1,0.2-1.5,0.3
							c-0.2,0.4-0.3,0.8-0.4,1.3c-0.1,0.5-0.2,1.1-0.2,1.6c0,0.6,0.1,1.2,0.4,1.8c0.3,0.5,0.9,0.9,1.5,0.8c0.9,0,1.7-0.3,2.4-0.8
							c0.7-0.5,1.4-1.2,1.9-1.9c0.5-0.7,1-1.5,1.4-2.3c0.4-0.8,0.7-1.4,0.9-2c0.2-0.4,0.4-0.6,0.6-0.6c0.1,0,0.2,0.1,0.2,0.2
							c0,0,0,0,0,0c0,0.1-0.1,0.3-0.1,0.4c-0.4,0.8-0.8,1.6-1.2,2.5c-0.4,0.9-0.9,1.7-1.5,2.5c-0.6,0.8-1.3,1.4-2.1,1.9
							C257.6,502.9,256.6,503.2,255.5,503.2z M254.8,496.2c2.5-0.1,4.7-1.6,5.9-3.8c0.3-0.6,0.5-1.2,0.6-1.9c0-0.6-0.2-0.9-0.6-0.9
							c-0.5,0.1-1,0.3-1.3,0.6c-0.8,0.6-1.5,1.4-2.1,2.2c-0.5,0.7-1,1.4-1.4,2.1C255.3,495.3,255,495.8,254.8,496.2L254.8,496.2z"/>
						
							<linearGradient id="SVGID_7_" gradientUnits="userSpaceOnUse" x1="185.42" y1="120.2501" x2="434.58" y2="120.2501" gradientTransform="matrix(1 0 0 -1 -1.52 615.44)">
							<stop  offset="0" style="stop-color:#DCAA5C"/>
							<stop  offset="0.51" style="stop-color:#FFCA85"/>
							<stop  offset="1" style="stop-color:#D6A556"/>
						</linearGradient>
						<path class="st7" d="M263.5,503.2c-1.7,0.2-3.3-1-3.6-2.7c0-0.1,0-0.3,0-0.4c0-0.6,0.2-1.2,0.5-1.7c0.2-0.4,0.6-0.7,1.1-0.8
							l1.7-3.4c0.6-1.2,1.2-2.4,1.7-3.6c0.4-0.8,0.9-1.5,1.4-2.2c0.4-0.6,1.1-1.1,1.9-1.3h0.4c0.2,0,0.4,0,0.6,0
							c0.2,0,0.4,0.1,0.5,0.2c0.3,0.1,0.4,0.3,0.4,0.6c0,0.2-0.1,0.2-0.3,0.2c-0.1,0-0.2-0.1-0.3-0.1c-0.3-0.1-0.5-0.2-0.8-0.2
							c-0.2,0-0.3,0-0.4,0.1c-0.5,0.2-0.9,0.6-1.1,1.1c-0.2,0.5-0.3,1-0.3,1.5c0,0.4,0.1,0.9,0.1,1.3c0.1,0.4,0.2,0.8,0.3,1.2
							c0.3,0.8,0.6,1.5,0.9,2.2c0.3,0.7,0.5,1.5,0.5,2.3c0,0.9-0.3,1.8-0.8,2.5c-0.5,0.9-1.2,1.6-2,2.1l0.3,0h0.3h0.1
							c0.6,0,1.2-0.2,1.7-0.5c0.6-0.4,1-0.8,1.5-1.3c0.5-0.7,1-1.5,1.5-2.3c0.5-1,1.1-2,1.6-3c0.1-0.1,0.2-0.2,0.3-0.2
							c0.1,0,0.2,0,0.3,0.1c0.1,0.1,0.1,0.2,0,0.4c-0.4,0.7-0.7,1.5-1.2,2.4c-0.4,0.9-0.9,1.7-1.5,2.5c-0.5,0.8-1.2,1.4-1.9,1.9
							c-0.7,0.5-1.6,0.8-2.5,0.7c-0.2,0-0.5,0-0.7,0c-0.2,0-0.5-0.1-0.7-0.2c-0.3,0.1-0.5,0.2-0.8,0.3
							C264.1,503.2,263.8,503.2,263.5,503.2z M263.2,502.6c0.1,0,0.3,0,0.4-0.1l0.4-0.1c-0.4-0.3-0.8-0.7-1.1-1.2
							c-0.3-0.6-0.5-1.2-0.5-1.9c-0.4,0.4-0.7,1-0.7,1.6c0,0.4,0.1,0.8,0.4,1.1C262.4,502.4,262.8,502.6,263.2,502.6L263.2,502.6z
							 M264.7,502c0.5-0.5,0.9-1,1.2-1.6c0.4-0.9,0.6-1.9,0.5-2.8c0-1.1-0.1-2.2-0.3-3.3c-0.2-1-0.3-2.1-0.3-3.1c0-0.2,0-0.4,0-0.5
							c0-0.1,0-0.3,0.1-0.4l-1.2,2.5c-0.5,1-0.9,1.9-1.4,2.8l-1.2,2.2c0.2,0,0.5,0.1,0.6,0.3c0.2,0.3,0.2,0.7,0.2,1
							c0,0.7,0.1,1.3,0.5,1.9C263.7,501.4,264.2,501.8,264.7,502L264.7,502z"/>
						
							<linearGradient id="SVGID_8_" gradientUnits="userSpaceOnUse" x1="185.42" y1="125.5795" x2="434.58" y2="125.5795" gradientTransform="matrix(1 0 0 -1 -1.52 615.44)">
							<stop  offset="0" style="stop-color:#DCAA5C"/>
							<stop  offset="0.51" style="stop-color:#FFCA85"/>
							<stop  offset="1" style="stop-color:#D6A556"/>
						</linearGradient>
						<path class="st8" d="M291.6,504.9c-1.9,0.1-3.9-0.3-5.6-1.1c-1.4-0.6-2.5-1.6-3.3-2.8c-0.7-1.1-1.1-2.4-1.1-3.7
							c0-1.6,0.5-3.1,1.3-4.4c1-1.6,2.3-2.9,3.9-3.8c2-1.1,4.2-1.8,6.4-2c-0.4-0.5-0.7-1.1-0.8-1.7c-0.2-0.6-0.3-1.2-0.3-1.9
							c0-1.3,0.4-2.6,1.2-3.7c0.8-1.1,1.8-2,3-2.8c1.2-0.7,2.5-1.3,3.9-1.7c1.3-0.4,2.6-0.6,3.9-0.6c0.8,0,1.5,0.1,2.3,0.3
							c0.7,0.2,1.4,0.5,2,1.1c0.6,0.6,0.8,1.4,0.8,2.2c0,0.8-0.2,1.5-0.7,2.1c-0.4,0.6-1.1,0.9-1.8,0.9c-1,0-1.8-0.8-1.9-1.8
							c0-0.5,0.2-1,0.5-1.4c0.6-0.6,1.5-0.7,2.2-0.3c0.2,0.1,0.4,0.3,0.6,0.5c0-0.1,0-0.3,0-0.4c0-0.6-0.3-1.2-0.9-1.5
							c-0.6-0.3-1.2-0.5-1.9-0.5c-1.3,0-2.5,0.3-3.7,0.8c-1.5,0.6-2.9,1.4-4.1,2.5c-0.5,0.5-1,1.1-1.5,1.7c-0.5,0.7-0.9,1.4-1.3,2.2
							c-0.3,0.8-0.5,1.6-0.5,2.4c0,0.5,0.1,1.1,0.3,1.6c0.4,0,0.9,0,1.4,0s1.1-0.1,1.6-0.1c0.6,0,1.2,0.1,1.6,0.5
							c0.4,0.2,0.6,0.6,0.6,1c0,0.3-0.2,0.6-0.5,0.8c-0.5,0.3-1,0.4-1.5,0.4c-0.8,0-1.6-0.2-2.4-0.6c-0.6-0.3-1.2-0.7-1.7-1.2
							c-1.7,0.2-3.2,0.9-4.5,2c-2.3,2.1-3.7,5-3.8,8.1c0,1.1,0.2,2.2,0.7,3.2c0.4,1,1.1,1.8,2,2.4c1,0.6,2.2,1,3.4,0.9
							c1.4,0,2.7-0.3,3.9-0.8c2.1-0.9,3.9-2.6,5-4.6c0.4-0.8,0.7-1.7,0.7-2.6c0-0.7-0.3-1.3-0.7-1.8c-0.6-0.5-1.2-0.8-1.9-1
							c-0.8-0.2-1.7-0.3-2.6-0.3c-0.9,0-1.9,0.1-2.8,0.4c-0.9,0.2-1.6,0.6-2.3,1.2c-0.6,0.5-1,1.2-1.2,2c0,0.1,0,0.1,0,0.2
							c0,0.1,0,0.1,0,0.2c0,0.6,0.3,1.3,0.7,1.8c0.6,0.7,1.3,1.2,2.1,1.6c0.2,0.1,0.4,0.3,0.4,0.6c0,0.3-0.1,0.4-0.4,0.2
							c-1.2-0.6-2.3-1.5-3.2-2.5c-0.6-0.7-1-1.7-1-2.6c0.1-1.3,0.8-2.5,1.9-3.1c1.7-1,3.6-1.4,5.5-1.3h7.1c0.6,0,1.3-0.1,1.9-0.3
							c0.9-0.2,1.7-0.5,2.6-0.8c0.8-0.3,1.6-0.7,2.3-1.3c0.6-0.4,0.9-1,0.9-1.7c0-0.4-0.1-0.8-0.4-1.1c-0.1-0.1-0.1-0.2-0.1-0.3
							c0-0.2,0.1-0.2,0.2-0.2c0.1,0,0.2,0.1,0.3,0.2c0.4,0.5,0.6,1.2,0.6,1.8c0,0.7-0.3,1.5-0.8,2c-0.6,0.7-1.3,1.2-2.1,1.6
							c-0.9,0.5-1.9,0.8-2.9,1.1c-1.1,0.2-2.2,0.3-3.3,0.3c0.9,0.8,1.5,1.9,1.5,3.1c0,1.1-0.3,2.1-0.9,3c-0.6,1.1-1.5,2.1-2.5,2.9
							C297.6,503.9,294.7,505,291.6,504.9L291.6,504.9z M297.7,488.9c0.9,0,1.3-0.2,1.3-0.5c0-0.1-0.1-0.3-0.3-0.4
							c-0.3-0.2-0.6-0.3-0.9-0.3c-0.3,0-0.5,0-0.8,0h-2.2C295.6,488.5,296.6,488.9,297.7,488.9z"/>
						
							<linearGradient id="SVGID_9_" gradientUnits="userSpaceOnUse" x1="185.42" y1="126.6087" x2="434.58" y2="126.6087" gradientTransform="matrix(1 0 0 -1 -1.52 615.44)">
							<stop  offset="0" style="stop-color:#DCAA5C"/>
							<stop  offset="0.51" style="stop-color:#FFCA85"/>
							<stop  offset="1" style="stop-color:#D6A556"/>
						</linearGradient>
						<path class="st9" d="M337.7,505.6c-1,0.1-2-0.5-2.5-1.4c-0.5-1-0.7-2.1-0.7-3.2c0-1.1,0.2-2.2,0.5-3.2
							c0.2-0.9,0.6-1.7,1.1-2.4c-0.7,0.9-1.6,1.8-2.7,2.9c-1.1,1.1-2.3,2.2-3.5,3.2c-1.2,1-2.6,1.8-4,2.5c-1.2,0.6-2.6,1-4,1
							c-0.4,0-0.8,0-1.2-0.1c-0.4-0.1-0.8-0.2-1.1-0.3c-1-0.4-1.8-1.2-2.2-2.1c-0.5-1.2-0.8-2.4-0.7-3.7c0-1.7,0.3-3.3,0.8-4.9
							c0.6-1.9,1.3-3.6,2.3-5.3c0.5-0.9,1-1.8,1.6-2.6c0.6-0.9,1.2-1.7,1.9-2.5c-0.8-0.4-1.6-0.8-2.3-1.3c-0.7-0.4-1.2-0.9-1.8-1.5
							c-0.3-0.4-0.6-0.8-0.7-1.3c-0.2-0.5-0.2-1-0.2-1.5c-0.1-0.6,0.1-1.3,0.6-1.7c0.1-0.2,0.3-0.3,0.5-0.3c0.2,0,0.4,0.1,0.4,0.4
							c0,0.2-0.1,0.4-0.2,0.6c-0.1,0.3-0.2,0.7-0.2,1c0,0.4,0.1,0.8,0.3,1.2c0.2,0.4,0.5,0.7,0.8,1c1,1.1,2.2,2,3.5,2.5
							c1.7-1.9,3.6-3.6,5.6-5.2c2-1.6,4.2-2.8,6.6-3.8c2.3-1,4.9-1.5,7.4-1.5c1.8-0.1,3.6,0.4,5.1,1.4c1.2,0.8,1.9,2.2,1.8,3.7
							c0,0.8-0.2,1.6-0.6,2.3c-0.5,1-1.2,1.8-2.1,2.5c-1.2,0.9-2.4,1.5-3.8,2c-1.9,0.6-3.9,1-5.9,1.2c-0.8,0.1-1.6,0.1-2.2,0.2
							c-0.6,0-1.4,0.1-2.1,0.1c-1.3,0-2.7-0.1-4-0.3c-1.3-0.2-2.6-0.5-3.9-0.9c-0.5,0.7-1.1,1.6-1.8,2.7s-1.5,2.4-2.2,3.7
							c-0.7,1.2-1.3,2.4-1.8,3.7c-0.4,1-0.7,2-1,3.1c-0.2,0.8-0.3,1.6-0.3,2.5c-0.1,1.1,0.2,2.1,0.9,2.9c0.6,0.7,1.5,1,2.5,1
							c1.2,0,2.4-0.3,3.5-0.9c1.5-0.7,2.8-1.6,4.1-2.6c1.5-1.2,2.9-2.6,4.1-4c1.3-1.4,2.6-2.9,3.7-4.5c1-1.3,1.9-2.7,2.7-4.2
							c0.3-0.7,0.8-1.3,1.3-1.8c0.3-0.3,0.7-0.5,1.1-0.5c0.3,0,0.5,0.1,0.7,0.3c0.2,0.3,0.3,0.6,0.2,0.9c0,0.8-0.4,1.6-1,2.2
							c-0.8,0.9-1.6,1.9-2.2,3c-0.7,1.2-1.4,2.5-1.9,3.8c-0.5,1.3-0.9,2.6-1.2,3.9c-0.1,0.4-0.1,0.8-0.2,1.2c0,0.4,0,0.7,0,1
							c-0.1,0.7,0.1,1.5,0.5,2.1c0.3,0.4,0.7,0.7,1.2,0.6c0.8-0.1,1.5-0.4,2.1-0.9c0.9-0.6,1.7-1.4,2.3-2.2c0.7-0.9,1.3-1.8,1.9-2.7
							c0.6-1,1.2-2,1.7-3c0.1-0.2,0.2-0.3,0.3-0.4c0.1-0.1,0.2-0.1,0.3-0.1c0.1,0,0.2,0.1,0.2,0.2c0,0.2-0.1,0.3-0.1,0.5
							c-0.2,0.5-0.6,1.2-1,1.9c-0.4,0.7-0.9,1.5-1.3,2.3c-0.5,0.7-0.9,1.5-1.5,2.2c-0.7,0.9-1.6,1.8-2.6,2.4
							C340,505.2,338.8,505.6,337.7,505.6z M333.3,484.4c1.4,0,2.9-0.1,4.6-0.3c2-0.1,3.9-0.6,5.8-1.3c1.4-0.6,2.7-1.5,3.8-2.6
							c0.9-1,1.3-2.3,1.3-3.6c0-1.1-0.5-2.1-1.5-2.7c-1.1-0.7-2.4-1-3.7-0.9c-2.3,0-4.7,0.5-6.8,1.5c-2,1-3.9,2.3-5.6,3.8
							c-1.7,1.6-3.3,3.3-4.8,5.1C328.6,484.1,331,484.5,333.3,484.4z"/>
						
							<linearGradient id="SVGID_10_" gradientUnits="userSpaceOnUse" x1="185.42" y1="119.3734" x2="434.58" y2="119.3734" gradientTransform="matrix(1 0 0 -1 -1.52 615.44)">
							<stop  offset="0" style="stop-color:#DCAA5C"/>
							<stop  offset="0.51" style="stop-color:#FFCA85"/>
							<stop  offset="1" style="stop-color:#D6A556"/>
						</linearGradient>
						<path class="st10" d="M350.1,503.2c-1.2,0.1-2.3-0.3-3.2-1.1c-0.6-0.8-1-1.7-0.9-2.7c0-1.3,0.3-2.6,0.8-3.8
							c0.5-1.2,1.1-2.4,1.9-3.5c0.7-1,1.6-1.8,2.6-2.4c0.8-0.5,1.8-0.8,2.8-0.9c0.8-0.1,1.6,0.2,2.2,0.8c0.5,0.5,0.7,1.3,0.6,2
							c-0.1,0.6-0.3,1.1-0.8,1.6c-0.3,0.4-0.8,0.7-1.4,0.8c-0.2,0-0.4-0.1-0.6-0.2c0.2-0.3,0.5-0.7,0.7-1c0.2-0.3,0.4-0.7,0.5-1.1
							c0.1-0.3,0.2-0.7,0.2-1c0-0.7-0.3-1-1-1c-0.9,0.1-1.7,0.5-2.3,1.1c-0.8,0.7-1.5,1.5-2.1,2.4c-0.3,0.5-0.6,1-0.9,1.5
							c-0.3,0.7-0.7,1.5-0.9,2.3c-0.3,0.8-0.4,1.6-0.4,2.4c0,0.7,0.2,1.5,0.5,2.1c0.4,0.6,1.1,1,1.8,1c1.1,0,2.2-0.4,3-1.1
							c0.9-0.8,1.6-1.7,2.2-2.7c0.6-1.1,1.3-2.1,1.8-3.2c0.2-0.3,0.3-0.5,0.5-0.5s0.2,0.1,0.2,0.3c0,0.1,0,0.3-0.1,0.4
							c-0.6,1.4-1.3,2.7-2,3.8c-0.6,1.1-1.4,2-2.4,2.7C352.6,502.8,351.3,503.2,350.1,503.2z"/>
						
							<linearGradient id="SVGID_11_" gradientUnits="userSpaceOnUse" x1="185.42" y1="119.4982" x2="434.58" y2="119.4982" gradientTransform="matrix(1 0 0 -1 -1.52 615.44)">
							<stop  offset="0" style="stop-color:#DCAA5C"/>
							<stop  offset="0.51" style="stop-color:#FFCA85"/>
							<stop  offset="1" style="stop-color:#D6A556"/>
						</linearGradient>
						<path class="st11" d="M365.8,503.2c-0.3,0-0.7,0-1-0.2c-0.4-0.2-0.8-0.5-1-0.9c-0.3-0.5-0.5-1.2-0.4-1.8
							c0-0.8,0.1-1.6,0.4-2.3c-0.3,0.5-0.7,1.1-1.2,1.9c-0.5,0.7-1,1.3-1.6,1.9c-0.4,0.4-0.9,0.7-1.4,1c-0.4,0.2-0.8,0.3-1.2,0.3
							c-0.7,0-1.3-0.3-1.7-0.9c-0.5-0.7-0.7-1.6-0.6-2.5c0-1.3,0.3-2.5,0.8-3.6c0.6-1.5,1.5-3,2.6-4.2c0.8-0.9,1.7-1.7,2.8-2.3
							c1-0.5,2.1-0.8,3.3-0.9c0.6,0,1.2,0.1,1.8,0.3c0.6,0.2,1.1,0.5,1.5,1c0.2,0.2,0.3,0.4,0.3,0.6c0,0.2-0.1,0.3-0.2,0.4
							c-0.1,0.1-0.3,0.1-0.5,0.1c-0.2-0.9-1-1.5-1.9-1.4c-0.5,0-1.1,0.2-1.6,0.4c-1.1,0.6-2,1.4-2.8,2.4c-0.9,1.1-1.8,2.2-2.5,3.4
							c-0.2,0.3-0.4,0.6-0.5,0.9c-0.2,0.5-0.5,1-0.7,1.5c-0.2,0.5-0.4,1.1-0.4,1.6c0,0.1,0,0.2,0,0.3v0.3c0,0.9,0.3,1.3,1,1.3
							s1.7-0.6,2.7-1.8c0.7-0.8,1.3-1.7,1.9-2.7c0.6-0.9,1.1-1.9,1.7-3c0.3-0.6,0.7-1.2,1.1-1.8c0.3-0.5,0.9-0.7,1.5-0.7
							c0.3,0,0.6,0,0.9,0.1c0.3,0.1,0.6,0.1,0.9,0c-0.3,0.4-0.6,0.8-0.9,1.2c-0.4,0.6-0.7,1.3-1.1,2c-0.4,0.7-0.8,1.5-1.1,2.3
							c-0.3,0.6-0.5,1.3-0.7,2c0,0.2-0.1,0.4-0.1,0.7c0,0.2-0.1,0.4-0.1,0.6c0,0.8,0.2,1.1,0.6,1.1c0.5-0.1,1-0.3,1.4-0.8
							c0.5-0.6,1-1.2,1.5-1.9c0.5-0.8,0.9-1.5,1.3-2.3s0.7-1.4,1-1.9c0.1-0.3,0.3-0.4,0.5-0.4s0.2,0.1,0.2,0.3
							c0,0.2-0.1,0.3-0.1,0.4c-0.3,0.7-0.7,1.4-1.2,2.3s-1,1.6-1.5,2.4c-0.5,0.7-1,1.4-1.7,2C367.1,502.8,366.5,503.1,365.8,503.2z"
							/>
						
							<linearGradient id="SVGID_12_" gradientUnits="userSpaceOnUse" x1="185.42" y1="124.9604" x2="434.58" y2="124.9604" gradientTransform="matrix(1 0 0 -1 -1.52 615.44)">
							<stop  offset="0" style="stop-color:#DCAA5C"/>
							<stop  offset="0.51" style="stop-color:#FFCA85"/>
							<stop  offset="1" style="stop-color:#D6A556"/>
						</linearGradient>
						<path class="st12" d="M380.1,503.1c-0.7,0-1.4-0.4-1.8-1.1c-0.2-0.3-0.3-0.5-0.4-0.8c-0.1-0.4-0.2-0.8-0.2-1.2
							c0-0.2,0-0.5,0-0.7c0-0.3,0.1-0.5,0.2-0.8c-0.4,0.6-0.8,1.2-1.3,1.9c-0.5,0.7-1,1.3-1.7,1.8c-0.6,0.5-1.3,0.8-2.1,0.8
							c-0.3,0-0.6,0-0.8-0.1c-0.6-0.1-1.2-0.6-1.5-1.1c-0.3-0.6-0.5-1.3-0.5-1.9c0-0.9,0.2-1.8,0.5-2.7c0.3-1,0.8-2,1.3-2.9
							c0.5-0.8,1-1.7,1.6-2.4c0.8-0.9,1.7-1.7,2.8-2.2c1-0.5,2.1-0.8,3.2-0.8c1,0,1.9,0.3,2.7,0.8c0.4-0.8,0.8-1.6,1.3-2.5
							s0.9-1.8,1.4-2.8s0.9-1.7,1.2-2.5s0.6-1.3,0.8-1.7c0.2-0.7,0.6-1.3,1.1-1.8c0.4-0.3,0.8-0.4,1.3-0.4c0.3,0,0.7,0,1,0.1
							c0.3,0.1,0.7,0.1,1.1,0c-0.4,0.4-0.7,0.9-1,1.4c-0.5,0.8-1.1,1.7-1.7,2.9c-0.7,1.2-1.4,2.5-2.1,3.9c-0.8,1.4-1.5,2.8-2.2,4.2
							s-1.4,2.8-2,4s-1.1,2.4-1.5,3.3c-0.2,0.4-0.3,0.9-0.5,1.3c-0.2,0.5-0.3,1.1-0.3,1.7c0,0.3,0.1,0.6,0.2,0.9
							c0.2,0.3,0.5,0.4,0.8,0.4c0.6,0,1.2-0.3,1.5-0.8c0.6-0.6,1.1-1.2,1.5-1.9c0.5-0.8,0.9-1.5,1.3-2.2s0.6-1.3,0.8-1.7
							s0.3-0.5,0.5-0.5s0.2,0.1,0.2,0.4v0.2c0,0.1,0,0.2-0.1,0.2c-0.2,0.6-0.6,1.3-1,2.1c-0.4,0.9-0.9,1.7-1.5,2.5
							c-0.5,0.8-1.1,1.5-1.9,2.1C381.7,502.8,380.9,503.1,380.1,503.1z M373.2,501.9c0.5-0.1,1-0.3,1.4-0.6c0.7-0.6,1.3-1.2,1.8-2
							c0.7-1.1,1.6-2.4,2.6-4s1.9-3.3,2.8-5.1c-0.3-0.3-0.8-0.5-1.2-0.5c-0.9,0.1-1.8,0.4-2.5,1c-1,0.8-1.9,1.7-2.7,2.6
							c-0.8,1-1.6,2.1-2.2,3.2c-0.4,0.6-0.6,1.3-0.9,2c-0.2,0.5-0.2,1.1-0.3,1.6C372.1,501.3,372.5,501.9,373.2,501.9L373.2,501.9z"
							/>
						
							<linearGradient id="SVGID_13_" gradientUnits="userSpaceOnUse" x1="185.42" y1="119.4803" x2="434.58" y2="119.4803" gradientTransform="matrix(1 0 0 -1 -1.52 615.44)">
							<stop  offset="0" style="stop-color:#DCAA5C"/>
							<stop  offset="0.51" style="stop-color:#FFCA85"/>
							<stop  offset="1" style="stop-color:#D6A556"/>
						</linearGradient>
						<path class="st13" d="M388.9,503.2c-1,0-1.9-0.4-2.7-1c-0.8-0.7-1.3-1.8-1.2-2.9c0-1.3,0.3-2.7,0.9-3.9
							c0.5-1.3,1.3-2.5,2.2-3.6c0.7-0.9,1.6-1.6,2.6-2.2c0.8-0.5,1.7-0.8,2.7-0.9c0.5,0,1.1,0.2,1.5,0.5c0.5,0.4,0.7,0.9,0.7,1.5
							c0,0.8-0.3,1.6-0.8,2.2c-0.6,0.9-1.3,1.6-2.2,2.2c-0.5,0.3-1,0.6-1.5,0.8c-0.6,0.3-1.2,0.5-1.8,0.7c-0.5,0.2-1,0.2-1.5,0.3
							c-0.4,0.9-0.5,1.9-0.6,2.9c0,0.6,0.1,1.2,0.4,1.8c0.3,0.6,0.9,0.9,1.5,0.8c0.9,0,1.7-0.3,2.4-0.8c0.7-0.5,1.4-1.2,1.9-1.9
							c0.5-0.7,1-1.5,1.4-2.3c0.4-0.8,0.7-1.4,0.9-2c0.2-0.4,0.4-0.6,0.6-0.6c0.1,0,0.2,0.1,0.2,0.2c0,0,0,0,0,0
							c0,0.1-0.1,0.3-0.1,0.4l-1.2,2.5c-0.4,0.9-0.9,1.7-1.5,2.5c-0.6,0.8-1.3,1.4-2.1,1.9C390.9,502.9,389.9,503.2,388.9,503.2z
							 M388.1,496.2c1.6-0.2,3.1-0.8,4.3-1.8c0.7-0.6,1.2-1.2,1.6-2c0.3-0.6,0.5-1.2,0.6-1.9c0-0.6-0.2-0.9-0.6-0.9
							c-0.5,0.1-1,0.3-1.3,0.6c-0.8,0.6-1.5,1.4-2.1,2.2c-0.5,0.7-1,1.4-1.4,2.1C388.6,495.3,388.3,495.8,388.1,496.2L388.1,496.2z"
							/>
						
							<linearGradient id="SVGID_14_" gradientUnits="userSpaceOnUse" x1="185.42" y1="119.0262" x2="434.58" y2="119.0262" gradientTransform="matrix(1 0 0 -1 -1.52 615.44)">
							<stop  offset="0" style="stop-color:#DCAA5C"/>
							<stop  offset="0.51" style="stop-color:#FFCA85"/>
							<stop  offset="1" style="stop-color:#D6A556"/>
						</linearGradient>
						<path class="st14" d="M392.2,503.3c1-1.9,1.9-3.8,2.8-5.7s1.8-3.7,2.7-5.4c0.4-0.7,0.8-1.4,1.3-2c0.4-0.4,0.9-0.6,1.5-0.6
							c0.2,0,0.5,0,0.7,0.1c0.2,0.1,0.5,0.1,0.7,0.1c0.1,0,0.2,0,0.4,0c-0.6,0.4-1.1,1-1.4,1.6c-0.6,0.9-1.2,1.9-1.8,2.9
							c-0.6,1.1-1.2,2.1-1.6,3.1c0.5-0.6,1-1.2,1.6-1.8c0.6-0.6,1.2-1.2,1.8-1.8c0.6-0.5,1.2-1.1,1.9-1.6c0.6-0.6,1.3-1.1,1.9-1.5
							c0.5-0.4,1.1-0.6,1.7-0.6c0.1,0,0.2,0,0.4,0c0.4,0.1,0.7,0.5,0.8,1c0,0.2-0.1,0.5-0.2,0.7c-0.4,1-0.8,1.9-1.3,2.8
							c-0.5,1-1.1,1.9-1.5,2.9c0.4-0.5,0.9-1.1,1.5-1.8c0.6-0.7,1.2-1.3,1.8-1.9c0.7-0.6,1.4-1.2,2.2-1.7c0.9-0.6,1.7-1.1,2.7-1.5
							c0.7-0.4,1.4-0.6,2.1-0.6c0.1,0,0.3,0,0.4,0c-0.6,1-1.1,2-1.5,2.8s-0.9,1.7-1.3,2.7s-0.9,1.9-1.2,2.7
							c-0.3,0.7-0.5,1.4-0.7,2.2c-0.1,0.3-0.1,0.7-0.1,1c0,0.3,0,0.6,0.2,0.8c0.1,0.1,0.3,0.2,0.5,0.2c0.6,0,1.2-0.3,1.6-0.8
							c0.6-0.6,1.1-1.3,1.6-2c0.5-0.7,1-1.5,1.4-2.3c0.4-0.8,0.7-1.3,0.9-1.7s0.3-0.5,0.5-0.5s0.2,0.1,0.2,0.3c0,0.2,0,0.3-0.1,0.4
							l-1.1,2.2c-0.4,0.9-0.9,1.7-1.5,2.5c-0.5,0.8-1.1,1.4-1.9,2c-0.6,0.5-1.4,0.8-2.2,0.8c-0.6,0-1.2-0.2-1.7-0.6
							c-0.6-0.5-1-1.3-0.9-2.1c0-0.7,0.1-1.4,0.4-2c0.2-0.6,0.5-1.3,0.9-1.9c0.4-0.7,0.9-1.5,1.4-2.4c0.2-0.3,0.4-0.7,0.4-1.1
							c0-0.2-0.1-0.4-0.3-0.5c0,0-0.1,0-0.1,0c-0.4,0-0.8,0.2-1.1,0.4c-0.6,0.4-1.2,0.9-1.7,1.4c-0.5,0.5-1,1.1-1.5,1.6
							c-0.6,0.7-1.2,1.5-1.7,2.3c-0.6,0.8-1.1,1.6-1.5,2.4c-0.4,0.7-0.7,1.4-0.8,2.1c-0.4,0-0.8-0.2-1-0.5c-0.2-0.3-0.4-0.8-0.4-1.2
							v-0.3c0-0.1,0-0.2,0-0.3c0.1-0.8,0.3-1.6,0.6-2.3c0.3-0.7,0.6-1.5,1-2.3c0.3-0.6,0.6-1.2,0.9-1.8c0.2-0.5,0.4-1,0.4-1.5
							c0-0.2-0.1-0.3-0.2-0.3c-0.3,0.1-0.7,0.2-0.9,0.4c-0.6,0.4-1.2,0.9-1.8,1.5c-0.9,0.9-1.7,1.8-2.4,2.8
							c-1.2,1.6-2.2,3.3-3.1,5.1c-0.1,0.2-0.3,0.4-0.6,0.5c-0.3,0.1-0.7,0.1-1,0.1h-0.7C392.5,503.1,392.3,503.2,392.2,503.3z"/>
						
							<linearGradient id="SVGID_15_" gradientUnits="userSpaceOnUse" x1="185.42" y1="112.8807" x2="434.58" y2="112.8807" gradientTransform="matrix(1 0 0 -1 -1.52 615.44)">
							<stop  offset="0" style="stop-color:#DCAA5C"/>
							<stop  offset="0.51" style="stop-color:#FFCA85"/>
							<stop  offset="1" style="stop-color:#D6A556"/>
						</linearGradient>
						<path class="st15" d="M410.9,515.8c-1.1,0.1-2.1-0.2-3-0.8c-0.6-0.5-0.9-1.2-0.9-2c0-0.3,0.1-0.7,0.2-1
							c0.1-0.4,0.3-0.8,0.5-1.1c0.4-0.8,0.9-1.5,1.6-2c0.7-0.6,1.4-1,2.2-1.4c1.5-0.7,3.1-1.2,4.7-1.6c1.8-0.4,3.5-0.8,5.1-1.3
							c0.5-1,1-2,1.4-3c0.4-1.1,0.8-2.2,1.2-3.3l0.8-2.7c-0.3,0.6-0.7,1.3-1.2,2.1c-0.5,0.9-1.1,1.7-1.7,2.5c-0.6,0.8-1.2,1.4-2,2
							c-0.6,0.5-1.4,0.8-2.2,0.8c-0.4,0-0.7-0.1-1.1-0.2c-0.4-0.1-0.8-0.4-1.1-0.7c-0.3-0.5-0.5-1-0.5-1.6c0-0.7,0.2-1.4,0.5-2
							c0.3-0.6,0.6-1.3,0.9-1.9c-0.1,0-0.2,0-0.3-0.1c-0.1,0-0.1-0.1-0.1-0.3c0-0.1,0-0.2,0.1-0.3c0.1-0.2,0.2-0.4,0.4-0.7
							s0.3-0.5,0.4-0.8c0.4-0.8,0.8-1.6,1.2-2.4s0.7-1.4,1-2c0.3-0.6,0.9-0.9,1.5-0.9h2.5c-0.2,0.2-0.5,0.4-0.7,0.5
							c-0.3,0.2-0.6,0.6-0.8,0.9c-0.7,1.2-1.4,2.4-1.9,3.5s-1.1,2.4-1.7,3.6c-0.3,0.5-0.5,1.1-0.6,1.7c-0.1,0.4-0.2,0.9-0.2,1.3
							c0,0.9,0.3,1.3,0.9,1.3s1.4-0.5,2.3-1.6c0.8-1,1.6-2,2.3-3.1c0.8-1.2,1.5-2.5,2.2-3.8s1.3-2.5,1.9-3.6
							c0.3-0.6,0.9-0.9,1.6-0.9h2.2c-0.8,0.5-1.4,1.2-1.8,2.1c-0.4,0.9-0.9,2-1.4,3.3s-1.1,3-1.6,4.5s-1,3.1-1.7,4.7
							c1-0.4,2-0.8,3-1.4c1.1-0.7,2.1-1.6,2.8-2.6c0.6-0.8,1.1-1.7,1.6-2.6l0.9-1.8c0.1-0.3,0.3-0.4,0.4-0.4s0.3,0.1,0.3,0.4
							c0,0.2,0,0.3-0.1,0.4c-0.7,1.4-1.3,2.6-1.9,3.5c-0.5,0.9-1.1,1.7-1.8,2.4c-0.7,0.7-1.5,1.3-2.4,1.8c-1.1,0.6-2.3,1.1-3.6,1.6
							c-0.6,1.1-1.4,2.3-2.2,3.6c-0.8,1.2-1.7,2.4-2.8,3.5c-1,1.1-2.1,1.9-3.4,2.6C413.7,515.5,412.3,515.8,410.9,515.8z M409.9,515
							c1,0,1.9-0.3,2.7-0.8c1-0.6,1.9-1.2,2.7-2c0.8-0.8,1.7-1.6,2.4-2.5c0.7-0.8,1.3-1.6,1.8-2.2c0.2-0.2,0.3-0.5,0.4-0.7l0.5-0.8
							l-4.3,1.1c-1.4,0.4-2.7,0.8-4.1,1.4c-1.2,0.5-2.2,1.3-3,2.3c-0.6,0.7-1,1.7-1.1,2.7c0,0.4,0.2,0.9,0.5,1.2
							C408.9,514.9,409.4,515.1,409.9,515L409.9,515z"/>
					</g>
				</g>
				<g id="Layer_9_9_">
					
						<linearGradient id="SVGID_16_" gradientUnits="userSpaceOnUse" x1="122.22" y1="170.28" x2="487.42" y2="170.28" gradientTransform="matrix(1 0 0 -1 0 617)">
						<stop  offset="0" style="stop-color:#D6A556"/>
						<stop  offset="0.2" style="stop-color:#E8B56B"/>
						<stop  offset="0.5" style="stop-color:#FFCA85"/>
						<stop  offset="0.74" style="stop-color:#EDBA71"/>
						<stop  offset="1" style="stop-color:#D6A556"/>
					</linearGradient>
					<rect x="122.2" y="445.7" class="st16" width="365.2" height="2"/>
				</g>
				<g>
					
						<linearGradient id="SVGID_17_" gradientUnits="userSpaceOnUse" x1="123.77" y1="198.75" x2="497.68" y2="198.75" gradientTransform="matrix(1 0 0 -1 -1.52 615.44)">
						<stop  offset="0" style="stop-color:#DCAB5D"/>
						<stop  offset="0.52" style="stop-color:#FFCA85"/>
						<stop  offset="1" style="stop-color:#D6A556"/>
					</linearGradient>
					<path class="st17" d="M126.2,407.5c0-3.4-0.2-4.3-2.3-4.5l-1.5-0.1c-0.3-0.3-0.4-0.7-0.1-1c0,0,0.1-0.1,0.1-0.1
						c2.5-0.2,5.6-0.4,9.9-0.4c2.9,0,5.7,0.2,7.7,1.3c2.2,1,3.6,3.3,3.5,5.8c0,3.3-1.9,5-4.7,6.3c0,0.5,0.4,0.6,0.9,0.7
						c3.7,0.7,6.3,4,6.2,7.7c0,5.3-3.9,8.9-12.2,8.9c-1.3,0-3.6-0.1-5.5-0.1c-1.9,0-3.6,0.1-5.3,0.1c-0.3-0.3-0.3-0.8-0.1-1.1
						l0.8-0.1c2.4-0.4,2.5-0.9,2.5-5.8L126.2,407.5z M130,413.6c0,1.3,0,1.4,2.4,1.3c4.7-0.2,7.2-1.6,7.2-5.9c0-4.5-3.4-6.2-6.9-6.2
						c-0.7,0-1.4,0-2.1,0.3c-0.5,0.1-0.6,0.4-0.6,1.2V413.6z M130,424.3c0,1.7,0.1,4,1,5c1,1,2.3,1.4,3.6,1.3c4.1,0,7.2-1.8,7.2-6.5
						c0-3.6-1.8-7.9-9.2-7.9c-2.5,0-2.7,0.3-2.7,1.2L130,424.3z"/>
					
						<linearGradient id="SVGID_18_" gradientUnits="userSpaceOnUse" x1="123.77" y1="198.745" x2="497.68" y2="198.745" gradientTransform="matrix(1 0 0 -1 -1.52 615.44)">
						<stop  offset="0" style="stop-color:#DCAB5D"/>
						<stop  offset="0.52" style="stop-color:#FFCA85"/>
						<stop  offset="1" style="stop-color:#D6A556"/>
					</linearGradient>
					<path class="st18" d="M154.1,408.4c0-4.8-0.1-5.5-2.8-5.8l-0.7-0.1c-0.3-0.2-0.2-1,0.1-1.1c2,0.1,3.5,0.1,5.4,0.1h8.6
						c2.1,0.1,4.1,0,6.2-0.1c0.4,2,0.6,4.1,0.7,6.1c-0.3,0.3-0.8,0.3-1.1,0.1c-0.7-2.2-1.1-3.8-3.5-4.4c-1.5-0.2-3-0.3-4.5-0.3h-3.3
						c-1.4,0-1.4,0.1-1.4,1.8v9.2c0,1.3,0.1,1.3,1.5,1.3h2.7c1.3,0.1,2.6,0,3.9-0.3c0.6-0.2,0.9-0.5,1.1-1.6l0.4-1.9
						c0.4-0.3,0.9-0.3,1.2,0c0,1.1-0.2,2.9-0.2,4.6s0.2,3.4,0.2,4.4c-0.3,0.3-0.9,0.3-1.2,0l-0.4-1.8c-0.1-0.8-0.6-1.5-1.4-1.7
						c-1.2-0.2-2.4-0.3-3.5-0.2h-2.7c-1.4,0-1.5,0-1.5,1.2v6.5c0,2.4,0.1,4,0.9,4.8c0.6,0.5,1.5,1.1,5.6,1.1c3.6,0,4.9-0.2,5.9-0.7
						c0.8-0.5,2.1-2.1,3.3-4.5c0.4-0.2,0.9-0.1,1.1,0.3c-0.5,2.2-1.2,4.3-2.1,6.4c-4.1-0.1-8.2-0.1-12.3-0.1H156c-2,0-3.5,0-6.3,0.1
						c-0.3-0.3-0.3-0.8-0.1-1.1l1.5-0.1c2.6-0.2,2.9-0.9,2.9-5.8L154.1,408.4z"/>
					
						<linearGradient id="SVGID_19_" gradientUnits="userSpaceOnUse" x1="123.77" y1="198.71" x2="497.68" y2="198.71" gradientTransform="matrix(1 0 0 -1 -1.52 615.44)">
						<stop  offset="0" style="stop-color:#DCAB5D"/>
						<stop  offset="0.52" style="stop-color:#FFCA85"/>
						<stop  offset="1" style="stop-color:#D6A556"/>
					</linearGradient>
					<path class="st19" d="M180.9,408.4c0-4.8-0.1-5.6-3-5.8l-1.1-0.1c-0.3-0.2-0.2-1,0.1-1.1c2.6,0.1,4.1,0.1,6,0.1s3.4,0,5.7-0.1
						c0.3,0.1,0.4,1,0.1,1.1l-1.1,0.1c-2.7,0.2-2.8,1-2.8,5.8v16c0,2.9,0.1,4.1,1,5c0.5,0.5,1.4,1.1,5,1.1c3.9,0,4.9-0.2,5.6-0.6
						c0.9-0.5,2.1-2.2,3-4.6c0.3-0.2,1.1,0,1.1,0.3c-0.4,2.2-1.1,4.4-1.9,6.4c-2.3-0.1-6.7-0.1-11.4-0.1h-4.2c-1.9,0-3.4,0-6,0.1
						c-0.3-0.3-0.3-0.8-0.1-1.1l1.4-0.1c2.7-0.3,2.8-0.9,2.8-5.8L180.9,408.4z"/>
					
						<linearGradient id="SVGID_20_" gradientUnits="userSpaceOnUse" x1="123.77" y1="198.71" x2="497.68" y2="198.71" gradientTransform="matrix(1 0 0 -1 -1.52 615.44)">
						<stop  offset="0" style="stop-color:#DCAB5D"/>
						<stop  offset="0.52" style="stop-color:#FFCA85"/>
						<stop  offset="1" style="stop-color:#D6A556"/>
					</linearGradient>
					<path class="st20" d="M206.4,408.4c0-4.8-0.1-5.6-3-5.8l-1.1-0.1c-0.3-0.2-0.2-1,0.1-1.1c2.6,0.1,4.1,0.1,6,0.1s3.4,0,5.7-0.1
						c0.3,0.1,0.4,1,0.1,1.1l-1.1,0.1c-2.7,0.2-2.8,1-2.8,5.8v16c0,2.9,0.1,4.1,1,5c0.5,0.5,1.4,1.1,5,1.1c3.9,0,4.9-0.2,5.6-0.6
						c0.9-0.5,2.1-2.2,3-4.6c0.3-0.2,1.1,0,1.1,0.3c-0.4,2.2-1.1,4.4-1.9,6.4c-2.3-0.1-6.7-0.1-11.4-0.1h-4.2c-1.9,0-3.4,0-6,0.1
						c-0.3-0.3-0.3-0.8-0.1-1.1l1.4-0.1c2.7-0.3,2.8-0.9,2.8-5.8L206.4,408.4z"/>
					
						<linearGradient id="SVGID_21_" gradientUnits="userSpaceOnUse" x1="123.77" y1="198.745" x2="497.68" y2="198.745" gradientTransform="matrix(1 0 0 -1 -1.52 615.44)">
						<stop  offset="0" style="stop-color:#DCAB5D"/>
						<stop  offset="0.52" style="stop-color:#FFCA85"/>
						<stop  offset="1" style="stop-color:#D6A556"/>
					</linearGradient>
					<path class="st21" d="M231.8,408.4c0-4.8-0.1-5.5-2.8-5.8l-0.7-0.1c-0.3-0.2-0.2-1,0.1-1.1c2,0.1,3.5,0.1,5.4,0.1h8.7
						c2.1,0.1,4.1,0,6.2-0.1c0.4,2,0.6,4.1,0.7,6.1c-0.3,0.3-0.8,0.3-1.1,0.1c-0.7-2.2-1.1-3.8-3.5-4.4c-1.5-0.2-3-0.3-4.5-0.3H237
						c-1.4,0-1.4,0.1-1.4,1.8v9.2c0,1.3,0.1,1.3,1.5,1.3h2.7c1.3,0.1,2.6,0,3.9-0.3c0.6-0.2,0.9-0.5,1.1-1.6l0.4-1.9
						c0.4-0.3,0.9-0.3,1.2,0c0,1.1-0.2,2.9-0.2,4.6s0.2,3.4,0.2,4.4c-0.3,0.3-0.9,0.3-1.2,0l-0.4-1.8c-0.1-0.8-0.6-1.5-1.4-1.7
						c-1.2-0.2-2.4-0.3-3.5-0.2h-2.7c-1.4,0-1.5,0-1.5,1.2v6.5c0,2.4,0.1,4,0.9,4.8c0.6,0.5,1.5,1.1,5.6,1.1c3.6,0,4.9-0.2,5.9-0.7
						c0.8-0.5,2.1-2.1,3.3-4.5c0.4-0.2,0.9-0.1,1.1,0.3c-0.5,2.2-1.2,4.3-2.1,6.4c-4.1-0.1-8.2-0.1-12.3-0.1h-4.2
						c-2,0-3.5,0-6.3,0.1c-0.3-0.3-0.3-0.8-0.1-1.1l1.5-0.1c2.6-0.2,2.9-0.9,2.9-5.8L231.8,408.4z"/>
					
						<linearGradient id="SVGID_22_" gradientUnits="userSpaceOnUse" x1="123.77" y1="199.3072" x2="497.68" y2="199.3072" gradientTransform="matrix(1 0 0 -1 -1.52 615.44)">
						<stop  offset="0" style="stop-color:#DCAB5D"/>
						<stop  offset="0.52" style="stop-color:#FFCA85"/>
						<stop  offset="1" style="stop-color:#D6A556"/>
					</linearGradient>
					<path class="st22" d="M269,411.1c2.4-3.4,3.7-5.1,4.5-6.5c0.3-0.4,0.5-0.8,0.5-1.3c0-0.2-0.5-0.4-1.6-0.4h-6.8
						c-3.7,0-5.8,0.3-6.9,1.5c-0.8,0.9-1.5,2-2,3.1c-0.4,0.2-0.9,0.1-1.2-0.3c0.8-2.3,1.4-4.6,1.9-6.9c0.2-0.1,0.5-0.1,0.8,0
						c0.1,1.1,0.8,1.1,4.6,1.1h12.1c1.8,0.1,3.5,0,5.3-0.1c0.2,0.1,0.3,0.2,0.3,0.4c-1.2,1-5.1,6.4-7.5,9.8l-7.6,11
						c-0.5,0.7-4.5,6.4-4.5,7.1c0,0.5,0.5,0.5,1.3,0.6c1.2,0.1,3.6,0.1,6.8,0.1c3,0,6.8-0.1,8.5-1.1c1.5-1.1,2.6-2.5,3.2-4.2
						c0.4-0.1,1-0.1,1.1,0.3c-0.4,2.3-1.1,4.5-2.1,6.5c-2.5-0.1-5.2-0.1-8.4-0.1h-11.9c-2.4,0-4.1,0.1-5.2,0.1
						c-0.2-0.1-0.2-0.3-0.2-0.5c1.8-2,3.5-4.1,5-6.3L269,411.1z"/>
					
						<linearGradient id="SVGID_23_" gradientUnits="userSpaceOnUse" x1="123.77" y1="199.0675" x2="497.68" y2="199.0675" gradientTransform="matrix(1 0 0 -1 -1.52 615.44)">
						<stop  offset="0" style="stop-color:#DCAB5D"/>
						<stop  offset="0.52" style="stop-color:#FFCA85"/>
						<stop  offset="1" style="stop-color:#D6A556"/>
					</linearGradient>
					<path class="st23" d="M301.5,421.2c-0.3-1-0.5-1.1-1.9-1.1h-7c-1.1,0-1.4,0.1-1.7,1.1l-1.6,4.8c-0.5,1.2-0.8,2.5-1,3.8
						c0,0.5,0.2,0.8,1.3,0.9l1.5,0.1c0.3,0.3,0.3,0.8,0,1c0,0-0.1,0.1-0.1,0.1c-1.2-0.1-2.6-0.1-4.8-0.1c-1.5,0-3.2,0.1-4.4,0.1
						c-0.3-0.3-0.3-0.8-0.1-1.1l1.5-0.1c1.3-0.1,2.4-1,2.7-2.3c0.8-2.1,2.1-5.1,4-10.3l4.7-12.4c0.6-1.7,0.9-2.5,0.8-3.3
						c1-0.3,1.8-0.9,2.4-1.8c0.3,0,0.6,0.1,0.7,0.4c0.6,2,1.3,4.1,2,6.2l6.3,18.5c1.3,4,1.9,4.6,3.9,4.9l1.2,0.1
						c0.3,0.2,0.2,1,0,1.1c-1.9-0.1-3.5-0.1-5.6-0.1s-4,0.1-5.3,0.1c-0.3-0.3-0.4-0.7-0.2-1.1c0,0,0-0.1,0.1-0.1l1.3-0.1
						c1-0.1,1.6-0.4,1.6-0.8c-0.1-0.8-0.3-1.7-0.6-2.4L301.5,421.2z M292.5,417.1c-0.4,1-0.3,1.1,1,1.1h5.7c1.3,0,1.4-0.2,1-1.4
						l-2.5-7.5c-0.3-1-0.7-1.9-1.2-2.8l0,0c-0.4,0.9-0.8,1.8-1.1,2.7L292.5,417.1z"/>
					
						<linearGradient id="SVGID_24_" gradientUnits="userSpaceOnUse" x1="123.77" y1="198.7476" x2="497.68" y2="198.7476" gradientTransform="matrix(1 0 0 -1 -1.52 615.44)">
						<stop  offset="0" style="stop-color:#DCAB5D"/>
						<stop  offset="0.52" style="stop-color:#FFCA85"/>
						<stop  offset="1" style="stop-color:#D6A556"/>
					</linearGradient>
					<path class="st24" d="M333.3,432.6c-2.5,0.1-5-0.5-7.2-1.7c-0.7-2.1-1.2-4.2-1.2-6.4c0.2-0.3,0.9-0.4,1.1-0.1
						c0.7,2.4,2.6,6.9,7.9,6.9c3.9,0,5.8-2.5,5.8-5.3c0-2-0.4-4.3-3.8-6.4l-4.4-2.8c-2.3-1.5-5-4.1-5-7.9c0-4.4,3.4-7.9,9.4-7.9
						c1.4,0,2.9,0.2,4.3,0.6c0.5,0.2,1.1,0.3,1.6,0.3c0.5,1.8,0.8,3.7,0.8,5.6c-0.3,0.3-0.7,0.4-1.1,0.2c-0.6-2.2-1.8-5.2-6.3-5.2
						s-5.5,3-5.5,5.1c0,2.7,2.2,4.6,3.9,5.7l3.7,2.3c2.9,1.8,5.8,4.5,5.8,8.8C343.1,429.2,339.3,432.6,333.3,432.6z"/>
					
						<linearGradient id="SVGID_25_" gradientUnits="userSpaceOnUse" x1="123.77" y1="199.4214" x2="497.68" y2="199.4214" gradientTransform="matrix(1 0 0 -1 -1.52 615.44)">
						<stop  offset="0" style="stop-color:#DCAB5D"/>
						<stop  offset="0.52" style="stop-color:#FFCA85"/>
						<stop  offset="1" style="stop-color:#D6A556"/>
					</linearGradient>
					<path class="st25" d="M362.4,425c0,4.8,0.1,5.5,2.8,5.8l1.5,0.1c0.2,0.4,0.2,0.8-0.1,1.1c-2.6-0.1-4.2-0.1-6-0.1
						s-3.5,0-6.4,0.1c-0.3-0.3-0.3-0.8,0-1.1c0,0,0,0,0,0l1.7-0.1c2.6-0.2,2.9-0.9,2.9-5.8v-20.5c0-1.4,0-1.5-1.4-1.5h-2.5
						c-2,0-4.5,0.1-5.7,1.1c-0.9,0.9-1.6,2-2.1,3.2c-0.4,0.2-0.9,0.1-1.2-0.3c0,0,0,0,0,0c0.7-2.2,1.3-4.5,1.7-6.9
						c0.3-0.1,0.6-0.1,0.9,0c0.3,1.5,1.8,1.4,3.9,1.4H371c2.5,0,2.9-0.1,3.6-1.3c0.2-0.1,0.7,0,0.8,0.1c-0.5,2.3-0.8,4.6-0.7,7
						c-0.3,0.4-0.8,0.4-1.2,0.1c-0.1-1.1-0.5-2.9-1.1-3.4c-1.1-0.8-2.8-1.1-5.3-1.1h-3.3c-1.4,0-1.3,0-1.3,1.6L362.4,425z"/>
					
						<linearGradient id="SVGID_26_" gradientUnits="userSpaceOnUse" x1="123.77" y1="198.75" x2="497.68" y2="198.75" gradientTransform="matrix(1 0 0 -1 -1.52 615.44)">
						<stop  offset="0" style="stop-color:#DCAB5D"/>
						<stop  offset="0.52" style="stop-color:#FFCA85"/>
						<stop  offset="1" style="stop-color:#D6A556"/>
					</linearGradient>
					<path class="st26" d="M391.8,424.9c0,4.9,0.3,5.7,2.8,5.8l1.8,0.1c0.3,0.4,0.2,0.8-0.1,1.1c-2.9-0.1-4.4-0.1-6.3-0.1
						s-3.6,0-6,0.1c-0.3-0.3-0.3-0.8-0.1-1.1l1.4-0.1c2.7-0.3,2.8-0.9,2.8-5.8v-2.4c0-2.5-0.1-3.1-1.5-5.7l-5.4-10.6
						c-1.6-3-2.3-3.3-3.6-3.5l-1.3-0.2c-0.3-0.3-0.2-0.9,0.1-1.1c1.5,0.1,3.1,0.1,5.3,0.1s3.8,0,4.9-0.1c0.4,0.1,0.4,0.9,0.1,1.1
						l-0.6,0.1c-1.6,0.2-1.9,0.5-1.9,0.8c0.4,1.2,0.8,2.4,1.4,3.5c1.7,3.4,3.4,7,5.2,10.2c1.4-2.4,2.9-5.1,4.3-7.8
						c1.3-2.4,3-5.5,3-6.1c0-0.3-0.8-0.6-1.9-0.7l-0.8-0.1c-0.3-0.3-0.3-0.8,0-1.1c0,0,0,0,0.1-0.1c1.6,0.1,3,0.1,4.4,0.1
						s2.7,0,4.3-0.1c0.3,0.2,0.4,0.7,0.2,1.1c0,0,0,0.1-0.1,0.1l-1.3,0.2c-2.4,0.4-3.8,3.3-6.1,7.3l-2.9,5c-2,3.5-2.2,3.9-2.2,7.5
						L391.8,424.9z"/>
					
						<linearGradient id="SVGID_27_" gradientUnits="userSpaceOnUse" x1="123.77" y1="198.71" x2="497.68" y2="198.71" gradientTransform="matrix(1 0 0 -1 -1.52 615.44)">
						<stop  offset="0" style="stop-color:#DCAB5D"/>
						<stop  offset="0.52" style="stop-color:#FFCA85"/>
						<stop  offset="1" style="stop-color:#D6A556"/>
					</linearGradient>
					<path class="st27" d="M408.7,408.4c0-4.8-0.1-5.6-3-5.8l-1.1-0.1c-0.3-0.2-0.2-1,0.1-1.1c2.6,0.1,4.1,0.1,6,0.1s3.4,0,5.7-0.1
						c0.3,0.1,0.4,1,0.1,1.1l-1.1,0.1c-2.7,0.2-2.8,1-2.8,5.8v16c0,2.9,0.1,4.1,1,5c0.5,0.5,1.4,1.1,5,1.1c3.9,0,4.9-0.2,5.6-0.6
						c0.9-0.5,2.1-2.2,3-4.6c0.3-0.2,1.1,0,1.1,0.3c-0.4,2.2-1.1,4.4-1.9,6.4c-2.4-0.1-6.7-0.1-11.5-0.1h-4.2c-1.9,0-3.4,0-6,0.1
						c-0.3-0.3-0.4-0.8-0.1-1.1l1.4-0.1c2.7-0.3,2.8-0.9,2.8-5.8L408.7,408.4z"/>
					
						<linearGradient id="SVGID_28_" gradientUnits="userSpaceOnUse" x1="123.77" y1="198.75" x2="497.68" y2="198.75" gradientTransform="matrix(1 0 0 -1 -1.52 615.44)">
						<stop  offset="0" style="stop-color:#DCAB5D"/>
						<stop  offset="0.52" style="stop-color:#FFCA85"/>
						<stop  offset="1" style="stop-color:#D6A556"/>
					</linearGradient>
					<path class="st28" d="M434.1,408.5c0-4.9-0.1-5.7-2.8-5.9l-1.1-0.1c-0.3-0.2-0.2-1,0.1-1.1c2.3,0.1,3.9,0.1,5.8,0.1
						s3.4,0,5.7-0.1c0.3,0.1,0.4,1,0.1,1.1l-1.1,0.1c-2.7,0.2-2.8,1-2.8,5.9v16.4c0,4.9,0.1,5.5,2.8,5.8l1.1,0.1
						c0.3,0.2,0.2,1-0.1,1.1c-2.3-0.1-3.9-0.1-5.7-0.1s-3.5,0-5.8,0.1c-0.3-0.3-0.4-0.8-0.1-1.1l1.1-0.1c2.7-0.3,2.8-1,2.8-5.8
						V408.5z"/>
					
						<linearGradient id="SVGID_29_" gradientUnits="userSpaceOnUse" x1="123.77" y1="198.7476" x2="497.68" y2="198.7476" gradientTransform="matrix(1 0 0 -1 -1.52 615.44)">
						<stop  offset="0" style="stop-color:#DCAB5D"/>
						<stop  offset="0.52" style="stop-color:#FFCA85"/>
						<stop  offset="1" style="stop-color:#D6A556"/>
					</linearGradient>
					<path class="st29" d="M454.1,432.6c-2.5,0.1-5-0.5-7.2-1.7c-0.7-2.1-1.2-4.2-1.2-6.4c0.2-0.3,0.9-0.4,1.1-0.1
						c0.7,2.4,2.6,6.9,7.9,6.9c3.9,0,5.8-2.5,5.8-5.3c0-2-0.4-4.3-3.8-6.4l-4.4-2.9c-2.3-1.5-5-4.1-5-7.9c0-4.4,3.4-7.9,9.4-7.9
						c1.4,0,2.9,0.2,4.3,0.6c0.5,0.2,1.1,0.3,1.6,0.3c0.5,1.8,0.8,3.7,0.8,5.6c-0.2,0.3-0.9,0.4-1.1,0.1c-0.6-2.2-1.8-5.2-6.3-5.2
						s-5.5,3-5.5,5.1c0,2.7,2.2,4.6,3.9,5.7l3.7,2.3c2.9,1.8,5.8,4.5,5.8,8.8C463.9,429.2,460.1,432.6,454.1,432.6z"/>
					
						<linearGradient id="SVGID_30_" gradientUnits="userSpaceOnUse" x1="123.77" y1="199.4212" x2="497.68" y2="199.4212" gradientTransform="matrix(1 0 0 -1 -1.52 615.44)">
						<stop  offset="0" style="stop-color:#DCAB5D"/>
						<stop  offset="0.52" style="stop-color:#FFCA85"/>
						<stop  offset="1" style="stop-color:#D6A556"/>
					</linearGradient>
					<path class="st30" d="M483.2,425c0,4.8,0.1,5.5,2.8,5.8l1.5,0.1c0.3,0.2,0.2,1-0.1,1.1c-2.6-0.1-4.2-0.1-6-0.1s-3.5,0-6.4,0.1
						c-0.3-0.3-0.3-0.8,0-1.1c0,0,0,0,0,0l1.6-0.1c2.6-0.2,2.9-0.9,2.9-5.8v-20.5c0-1.4,0-1.5-1.4-1.5h-2.6c-2,0-4.5,0.1-5.6,1.1
						c-0.9,0.9-1.6,2-2.1,3.2c-0.4,0.2-1,0.1-1.2-0.3c0.8-2.2,1.3-4.5,1.8-6.9c0.3-0.1,0.6-0.1,0.9,0c0.3,1.5,1.8,1.4,3.9,1.4h18.6
						c2.5,0,2.9-0.1,3.6-1.3c0.2-0.1,0.7,0,0.8,0.1c-0.5,2.3-0.8,4.6-0.7,7c-0.2,0.4-1,0.4-1.2,0.1c-0.1-1.1-0.5-2.9-1.1-3.4
						c-1-0.8-2.8-1.1-5.3-1.1h-3.3c-1.4,0-1.3,0-1.3,1.6L483.2,425z"/>
				</g>
			</g>
		</g>
	</g>
	<g id="Layer_12">
		
			<image style="overflow:visible;opacity:0.7;" width="375" height="260" xlink:href="8BABF15F.png"  transform="matrix(1 0 0 1 120.748 114.468)">
		</image>
		<g>
			<g>
				<g>
					
						<linearGradient id="SVGID_31_" gradientUnits="userSpaceOnUse" x1="412.888" y1="303.4871" x2="472.258" y2="262.9371" gradientTransform="matrix(1 0 0 -1 -1.52 615.44)">
						<stop  offset="2.000000e-02" style="stop-color:#FFC882"/>
						<stop  offset="0.34" style="stop-color:#FEC780"/>
						<stop  offset="0.48" style="stop-color:#F9C378"/>
						<stop  offset="0.6" style="stop-color:#F1BB6C"/>
						<stop  offset="0.67" style="stop-color:#E8B35D"/>
						<stop  offset="0.8" style="stop-color:#EFBA69"/>
						<stop  offset="1" style="stop-color:#FFCA85"/>
					</linearGradient>
					<path class="st31" d="M412.7,340.2c1,2.2-3.1,7.1,10.8,13.6c-18.2-1.1-19.6-9.7-19.6-9.7l-1.9,0.6c2.5,4.1,4.5,8.4,11.5,10.9
						c-12.7,0.5-16.5-6.4-16.5-6.4l-1.2,0.8c1.3,3.6,4,6.3,8.8,7.5l0,0c-6.3,1.1-14.2-0.6-18.1-4.1l-9,0.5c0,0,49-7.5,75.9-67.8
						c0,0,9.8,26.5,36.6,14.1c-7.5,10-24.7,22.9-47.4,14c9.5,8,22.7,10.2,34.3,5.8c-19.5,19.4-41.7,8.4-44,5.3
						c-0.4-0.6,0.3-0.7,0.5-0.1c0.5,1.7,0.6,5,5.7,8.2c4.3,2.6,14.2,3.9,19.2,3.2c-22.2,8.8-32-2.2-32-2.2c-0.6,0.3,0.7-0.2,0,0
						c0,0-1.4,9.4,17.6,10.5c-7.9,4-19.9,3.8-25.9-6.4c-0.8,0.1,0.9-1.1,0.1-1c0.3,0.8,0.3,4.4,2.5,7c2.6,3.3,6.4,5.4,10.6,5.8
						c-16.9-0.1-20.5-9-20.5-9"/>
					
						<linearGradient id="SVGID_32_" gradientUnits="userSpaceOnUse" x1="486.27" y1="315" x2="486.27" y2="315" gradientTransform="matrix(1 0 0 -1 -1.52 615.44)">
						<stop  offset="0" style="stop-color:#FDF4F8"/>
						<stop  offset="3.000000e-02" style="stop-color:#FBF1F1"/>
						<stop  offset="0.29" style="stop-color:#EDD7AB"/>
						<stop  offset="0.53" style="stop-color:#E2C273"/>
						<stop  offset="0.74" style="stop-color:#DAB34B"/>
						<stop  offset="0.9" style="stop-color:#D5A933"/>
						<stop  offset="1" style="stop-color:#D3A62A"/>
					</linearGradient>
					<path class="st32" d="M484.8,300.4"/>
					
						<linearGradient id="SVGID_33_" gradientUnits="userSpaceOnUse" x1="181.2" y1="384.003" x2="435.69" y2="384.003" gradientTransform="matrix(1 0 0 -1 -1.52 615.44)">
						<stop  offset="0" style="stop-color:#FFC882"/>
						<stop  offset="0.13" style="stop-color:#F0BB72"/>
						<stop  offset="0.34" style="stop-color:#DDAB5D"/>
						<stop  offset="0.48" style="stop-color:#D6A556"/>
						<stop  offset="0.64" style="stop-color:#DFAD61"/>
						<stop  offset="0.9" style="stop-color:#F8C47D"/>
						<stop  offset="0.97" style="stop-color:#FFCA85"/>
					</linearGradient>
					<path class="st33" d="M295.5,163c6,7.9,9.4,17.6,9.5,27.6c0.3,10-2.6,19.9-7.1,28.7c-2.2,4.4-4.9,8.6-7.8,12.6
						c-2.9,4-6.2,7.8-9.7,11.3c-7.1,7.1-15.4,13-24.5,17.2c-4.6,2.1-9.4,3.7-14.4,4.9c-2.5,0.6-5,1-7.6,1.3
						c-1.3,0.1-2.6,0.3-3.9,0.3c-0.6,0-1.3,0-2,0h-1h-0.5l-0.7-0.1c-2.6-0.4-5.1-0.9-7.6-1.7c-2.5-0.7-4.9-1.6-7.2-2.7
						c-2.4-1.1-4.6-2.3-6.8-3.6c-2.2-1.4-4.3-2.9-6.3-4.6c-4.1-3.4-7.5-7.5-10.1-12.1c-2.6-4.6-4.3-9.7-5.1-14.9
						c-0.2-1.3-0.4-2.6-0.5-3.9l-0.1-2v-2c0-2.6,0.3-5.3,0.7-7.9c0.9-5.1,2.6-10.1,5-14.7c4.7-9.2,11.2-17,18.4-23.9
						c7.2-6.8,14.9-13,23.1-18.4c8.2-5.5,16.7-10.5,25.5-14.8c4.6-2.2,9.1-4,13.8-5.7s9.3-3.2,14-4.6c18.8-5.5,38.5-8.8,58.5-8.3
						c10,0.3,20,1.7,29.7,4.3c9.8,2.6,19.1,6.7,27.7,12c8.6,5.4,16.3,12.2,22.9,19.9c0.8,1,1.6,1.9,2.4,2.9l1.2,1.5l0.3,0.4
						c0.1,0.2,0.3,0.4,0.4,0.5c0.2,0.3,0.4,0.6,0.6,0.9c1.5,2.3,2.7,4.8,3.7,7.3c2,5.1,3,10.5,3,16c0,5.5-1.1,10.9-3.2,16
						c-2,4.9-4.8,9.5-8.2,13.6c-3.3,4-7,7.6-11,10.9c-1,0.8-2,1.6-3,2.3s-2.1,1.5-3.1,2.1c-2.1,1.4-4.3,2.7-6.4,3.9l-1.6,0.9
						l-0.8,0.4l-0.5,0.3l-0.5,0.2c-1.2,0.6-2.4,1.1-3.6,1.6c-2.4,0.9-4.8,1.7-7.3,2.4c-4.9,1.3-9.8,2.2-14.8,2.8
						c-2.5,0.3-5,0.4-7.5,0.5c-2.5,0.1-5,0.1-7.6-0.1c-0.5,0-0.8-0.1-1.1-0.1s-0.7-0.1-1-0.2c-0.7-0.1-1.4-0.3-2.1-0.5
						c-0.8-0.2-1.5-0.6-2.2-0.9c-1-0.5-1.8-1.2-2.4-2.1c-0.8-1.2-1.2-2.7-0.9-4.1c0-0.1,0.1-0.3,0.1-0.5l0.1-0.3
						c0.1-0.2,0.1-0.5,0.2-0.7c0.2-0.5,0.4-0.9,0.6-1.3c1-1.7,2.5-3,4.3-3.8c3-1.1,6.2-1.4,9.3-0.9c2.9,0.4,5.7,1.3,8.3,2.7l1.6,0.9
						l1.6,0.8c1.1,0.6,2.2,1.1,3.3,1.7c2.3,1.2,4.5,2.6,6.6,4.2c4.5,3.2,8.3,7.4,11.1,12.1c2.8,4.8,4.8,10.1,5.7,15.6
						c0.3,1.3,0.4,2.7,0.6,4s0.2,2.7,0.3,4.1c0.1,2.7-0.1,5.5-0.5,8.2c-0.8,5.3-2.3,10.5-4.6,15.4c-4.4,9.5-11,17.9-19.1,24.6
						c-4,3.3-8.2,6.2-12.7,8.7c-2.2,1.3-4.5,2.4-6.8,3.5c-1.2,0.5-2.3,1-3.5,1.5s-2.4,1-3.7,1.4c-10,3.5-20.7,4.1-31,1.8
						c-5.2-1.2-10.1-3.4-14.5-6.4c-1.1-0.8-2.2-1.6-3.2-2.6c-1.1-1-2.1-2.1-3-3.3c-0.2-0.3-0.5-0.7-0.7-1l-0.5-0.9
						c-0.3-0.6-0.7-1.3-0.9-1.9c-0.6-1.3-1-2.7-1.3-4.1c-1.2-5.5-0.4-11.3,2.3-16.3c2.5-4.7,6-8.7,10.3-11.9c4.1-3,8.5-5.5,13.2-7.4
						c4.6-1.8,9.3-3.3,14.2-4.3c9.5-2,19.2-3.1,29-3.3l0.1,1.6c-9.5,0.9-19,2.7-28.2,5.3c-4.5,1.3-8.9,3-13.2,5
						c-4.2,2-8.1,4.4-11.6,7.4c-3.4,2.8-6.1,6.3-8,10.2c-1.7,3.7-2.1,7.9-1.1,11.8c0.2,0.9,0.6,1.9,1,2.7c0.2,0.4,0.4,0.9,0.7,1.3
						l0.4,0.6l0.4,0.5c1.3,1.5,2.8,2.8,4.5,3.8c3.7,2.2,7.8,3.8,12,4.6c8.7,1.6,17.7,0.7,25.9-2.6c1-0.4,2.1-0.8,3.1-1.3
						s2.1-1,3.1-1.5c2-1,4-2.1,6-3.3c3.8-2.3,7.5-5,10.8-8c6.6-5.9,11.9-13.1,15.5-21.1c1.7-3.9,2.9-8.1,3.4-12.3
						c0.3-2.1,0.3-4.1,0.3-6.2c0-1-0.1-2.1-0.3-3.1s-0.3-2.1-0.5-3.1c-0.8-4-2.3-7.9-4.4-11.3c-2.2-3.5-4.8-6.7-7.9-9.5
						c-1.6-1.5-3.3-2.9-5.1-4.3l-2.8-2.2l-1.5-1.1l-0.8-0.6l-0.4-0.3l-0.3-0.2c-1.5-1.2-3.2-2.1-5-2.7c-1.6-0.6-3.3-0.8-5-0.5
						c-0.5,0.1-0.9,0.3-1.2,0.7c-0.1,0.1-0.1,0.2-0.2,0.3c0,0.1-0.1,0.1-0.1,0.2v0.1l0,0c0-0.1,0-0.2,0-0.4c0-0.1-0.1-0.2-0.1-0.3
						c-0.1-0.1,0,0.1,0.3,0.3c0.3,0.2,0.7,0.4,1.1,0.5c0.5,0.2,0.9,0.3,1.4,0.4l0.8,0.2c0.2,0,0.6,0.1,0.6,0.1
						c2.3,0.1,4.6,0.1,6.9,0c2.3-0.1,4.6-0.4,6.9-0.7c2.3-0.4,4.5-0.9,6.8-1.5c2.2-0.6,4.4-1.4,6.5-2.2c2.1-0.8,4.2-1.8,6.2-2.8
						c1-0.5,2-1.1,2.9-1.6l2.8-1.9c1.9-1.4,3.8-2.7,5.6-4.1s3.6-2.8,5.3-4.3c3.4-2.9,6.6-6.1,9.5-9.5c5.6-6.8,9.1-14.9,9.1-23.2
						c0-4.2-0.8-8.3-2.4-12.2c-0.7-1.9-1.7-3.8-2.8-5.5l-0.4-0.6l-0.1-0.2l-0.3-0.3l-1.1-1.4c-0.7-0.9-1.4-1.8-2.2-2.7
						c-5.9-7-12.8-13-20.6-17.9c-7.7-4.9-16.2-8.7-25-11.1c-8.9-2.5-18.1-3.9-27.4-4.2c-18.6-0.7-37.5,2.2-55.6,7.3
						c-4.5,1.3-9,2.7-13.5,4.3s-8.9,3.3-13,5.2c-8.5,4.1-16.7,8.8-24.6,14c-7.9,5.1-15.3,10.9-22.1,17.4
						c-6.7,6.4-12.8,13.6-16.9,21.6c-2.1,3.9-3.5,8.1-4.4,12.5c-0.4,2.1-0.6,4.3-0.6,6.5v1.6l0.1,1.6c0.1,1.1,0.2,2.2,0.4,3.3
						c0.7,4.3,2,8.5,4.1,12.4c2.1,3.8,4.9,7.2,8.3,10c3.4,2.8,7.3,5.1,11.4,6.8c2.1,0.9,4.2,1.6,6.4,2.2c2.1,0.6,4.3,1.1,6.4,1.5
						c0.1,0,0.1,0,0.2,0h0.4h0.8c0.5,0,1.1,0,1.6,0c1.1,0,2.2-0.1,3.4-0.1c2.3-0.2,4.5-0.5,6.7-0.9c4.5-0.9,8.9-2.2,13.1-3.9
						c17.1-7,31.2-20.8,40.7-36.9c4.8-8.1,7.5-17.2,7.9-26.5c0.2-4.7-0.4-9.4-1.6-13.9c-0.6-2.3-1.4-4.5-2.4-6.6
						c-1-2.1-2.1-4.2-3.5-6.1L295.5,163z"/>
					
						<linearGradient id="SVGID_34_" gradientUnits="userSpaceOnUse" x1="122.2" y1="371.6969" x2="462.99" y2="371.6969" gradientTransform="matrix(1 0 0 -1 -1.52 615.44)">
						<stop  offset="0" style="stop-color:#FFC882"/>
						<stop  offset="8.000000e-02" style="stop-color:#F0BB72"/>
						<stop  offset="0.2" style="stop-color:#DDAB5D"/>
						<stop  offset="0.28" style="stop-color:#D6A556"/>
						<stop  offset="0.5" style="stop-color:#D8A759"/>
						<stop  offset="0.63" style="stop-color:#DFAE61"/>
						<stop  offset="0.74" style="stop-color:#ECB96F"/>
						<stop  offset="0.83" style="stop-color:#FDC983"/>
						<stop  offset="0.84" style="stop-color:#FFCA85"/>
					</linearGradient>
					<path class="st34" d="M457.1,266.4c-0.4,4.4-1,8.8-1.8,13.2c-0.8,4.4-1.9,8.7-3.3,13c-2.7,8.6-6.5,16.8-11.3,24.4
						c-4.9,7.6-10.8,14.6-17.5,20.6c-6.8,6-14.2,11.2-22.3,15.5c-8,4.2-16.4,7.6-25.1,10c-8.7,2.5-17.6,4.1-26.5,5
						c-9,0.8-18,0.9-27,0.3c-4.5-0.3-9-0.8-13.4-1.5c-2.3-0.4-4.4-0.8-6.5-1.1s-4.4-0.8-6.6-1.3c-8.8-2-17.4-4.7-25.7-8.1
						c-4.1-1.7-8.2-3.5-12.2-5.4c-4-2-7.9-4-11.8-6.1c-15.5-8.3-30.2-17.7-46.1-24.2c-7.8-3.3-16.1-5.5-24.5-6.5
						c-8.4-0.9-16.9-0.1-25,2.2c-4,1.1-7.8,2.8-11.3,5c-3.4,2.1-6.2,5-8.1,8.5c-1.7,3.4-2.1,7.4-1.1,11.1c0.5,1.8,1.4,3.6,2.5,5.1
						c1.1,1.6,2.5,3.1,4,4.3c6.1,5.1,14.6,7.1,22.7,7.2c8.2-0.1,16.5-2.3,24.3-5.3c15.8-6.2,30.1-15.8,43.4-26.6
						c6.6-5.4,13-11.2,19.1-17.2s12-12.3,17.8-18.7c11.5-12.8,22.3-26.3,32.6-40.1l7.8-10.5c2.6-3.5,5.3-7.1,8-10.5s5.4-7,8.2-10.4
						s5.6-6.8,8.5-10.2l4.3-5c1.4-1.7,3-3.3,4.4-4.9l4.5-4.9l4.6-4.8c3-3.2,6.2-6.3,9.3-9.5c1.5-1.6,3.2-3.1,4.8-4.6
						s3.2-3.1,4.9-4.5c6.5-6,13.3-11.7,20.3-17.2c7-5.4,14.3-10.5,21.9-15.2c7.6-4.7,15.5-8.8,23.7-12.2c4.1-1.7,8.4-3.2,12.7-4.4
						c2.2-0.6,4.4-1.1,6.6-1.6c1.1-0.2,2.2-0.4,3.4-0.5c1.2-0.2,2.3-0.3,3.5-0.3l0.1,3.7c-0.9,0.1-2,0.3-3,0.6s-2,0.5-3,0.8
						c-2,0.6-4,1.3-6,2.1c-4,1.5-7.9,3.3-11.7,5.2c-7.6,3.9-14.9,8.4-21.9,13.4c-7,4.9-13.8,10.2-20.3,15.8
						c-6.5,5.6-12.9,11.4-19,17.5c-12.2,12.2-23.8,25-34.7,38.3c-2.8,3.3-5.5,6.7-8.2,10.1s-5.3,6.8-8,10.2s-5.2,6.9-7.8,10.4
						l-7.8,10.5c-2.6,3.5-5.4,7-8,10.5s-5.5,6.9-8.4,10.3s-5.7,6.8-8.7,10c-1.5,1.6-2.9,3.3-4.4,4.9l-4.5,4.9
						c-12.1,13-25.4,24.8-39.6,35.5c-14.3,10.6-29.8,19.9-46.9,25.7c-8.5,2.9-17.5,4.9-26.8,4.6c-2.3-0.1-4.6-0.3-6.9-0.8
						c-2.3-0.4-4.5-1-6.8-1.7c-4.5-1.5-8.7-3.8-12.2-6.9c-3.7-3.2-6.4-7.4-7.8-12.1c-0.6-2.4-0.8-4.9-0.6-7.3c0.3-2.5,1-4.9,2.1-7
						c2.3-4.2,5.7-7.8,9.8-10.4c3.9-2.5,8.1-4.4,12.5-5.6c4.3-1.3,8.8-2.1,13.3-2.5c4.5-0.5,9-0.5,13.5-0.2c9,0.8,17.8,2.8,26.2,5.9
						c8.3,3.1,16.4,6.6,24.4,10.5l23.5,11.5c3.9,1.9,7.8,3.7,11.8,5.4s7.9,3.4,11.9,4.9c7.9,3,16,5.4,24.3,7.3
						c2.1,0.4,4.1,0.8,6.3,1.2s4.3,0.8,6.4,1.1c4.2,0.7,8.4,1.2,12.6,1.5c8.4,0.7,16.9,0.6,25.4-0.1c16.9-1.2,33.4-5.6,48.6-13
						c7.5-3.7,14.6-8.3,21.1-13.7c6.5-5.4,12.2-11.6,17-18.5c4.9-6.9,8.8-14.5,11.8-22.4c1.5-4,2.8-8.1,3.9-12.2
						c1.1-4.1,2-8.3,2.7-12.6L457.1,266.4z"/>
				</g>
			</g>
		</g>
	</g>
</g>
</svg>
