<?xml version="1.0" encoding="utf-8"?>
<!-- Generator: Adobe Illustrator 24.1.2, SVG Export Plug-In . SVG Version: 6.00 Build 0)  -->
<svg version="1.1" xmlns="http://www.w3.org/2000/svg" xmlns:xlink="http://www.w3.org/1999/xlink" x="0px" y="0px"
	 viewBox="0 0 1600 100" style="enable-background:new 0 0 1600 100;" xml:space="preserve">
<style type="text/css">
	.st0{fill:url(#SVGID_1_);}
	.st1{fill:url(#SVGID_2_);}
	.st2{fill:url(#SVGID_3_);}
</style>
<g id="Layer_1">
	<g>
		<g>
			<linearGradient id="SVGID_1_" gradientUnits="userSpaceOnUse" x1="713.169" y1="70.3122" x2="798.9491" y2="70.3122">
				<stop  offset="0" style="stop-color:#C7982F"/>
				<stop  offset="0.1507" style="stop-color:#B37F2C"/>
				<stop  offset="0.4298" style="stop-color:#F8DE7C"/>
				<stop  offset="0.5909" style="stop-color:#FFF2A6"/>
				<stop  offset="0.7264" style="stop-color:#F8DE7C"/>
				<stop  offset="0.9257" style="stop-color:#B37F2C"/>
				<stop  offset="0.9316" style="stop-color:#B5822C"/>
				<stop  offset="1" style="stop-color:#CB9F33"/>
			</linearGradient>
			<path class="st0" d="M714.1,78.6c8.7,3.5,18-0.2,26.5-2.6c0.9-0.3,4.3-1.7,5.1-1.2c0.7,0.4,1.1,3,1.7,3.8
				c1.4,1.8,3.6,3.1,5.9,3.4c1.7,0.3,3.6-0.1,5-1.2c0.2-0.1,0.4-0.3,0.4-0.5c0.2-0.6-0.5-1-1-1.3c-5.5-3.2-2.4-10.4,1.7-13.2
				c7.8-5.3,16.5-10.4,25.5-7.6c10,3.1,15,16,7.1,24c-1,1.1-2.3,2-3.8,2.2c-1.5,0.2-3.1-0.3-3.8-1.6c-0.8-1.5-0.2-3.5-0.6-5.2
				c-0.8-3.1-5.4-4-7.7-1.8c-2.3,2.2-2,6.2,0.1,8.6c2.1,2.4,5.5,3.2,8.7,2.9c8.2-0.9,14.2-9.3,14-17.6c0-1.2-0.1-2.4-0.4-3.5
				c-0.8-3.7-2.9-7.1-6-9.4c-3.5-2.7-8.1-3.7-12.5-3.6c-0.5,0-1.1,0-1.6,0.1c-8.5,0.8-16.4,4.8-23.6,9.6c-4.3,2.2-8.7,3.9-13.7,4
				c-2.5,0.1-5,0-7.4-0.4c-2.1-0.4-6.6-3.1-3.7-6.2c0.5-0.5,0.2-1.2-0.4-1.2c-3.6,0.1-7.4,2.2-8.5,6.3c-0.3,1.1-0.3,2.3-0.1,3.4
				c0.2,1,0.9,1.8,1.1,2.7c-2.7,1-4.9,3-7.5,4.2C713.5,76.3,712.2,77.9,714.1,78.6z"/>
			<linearGradient id="SVGID_2_" gradientUnits="userSpaceOnUse" x1="801.0508" y1="70.3122" x2="886.831" y2="70.3122">
				<stop  offset="0" style="stop-color:#C7982F"/>
				<stop  offset="0.1507" style="stop-color:#B37F2C"/>
				<stop  offset="0.4298" style="stop-color:#F8DE7C"/>
				<stop  offset="0.5909" style="stop-color:#FFF2A6"/>
				<stop  offset="0.7264" style="stop-color:#F8DE7C"/>
				<stop  offset="0.9257" style="stop-color:#B37F2C"/>
				<stop  offset="0.9316" style="stop-color:#B5822C"/>
				<stop  offset="1" style="stop-color:#CB9F33"/>
			</linearGradient>
			<path class="st1" d="M885.9,78.6c-8.7,3.5-18-0.2-26.5-2.6c-0.9-0.3-4.3-1.7-5.1-1.2c-0.7,0.4-1.1,3-1.7,3.8
				c-1.4,1.8-3.6,3.1-5.9,3.4c-1.7,0.3-3.6-0.1-5-1.2c-0.2-0.1-0.4-0.3-0.4-0.5c-0.2-0.6,0.5-1,1-1.3c5.5-3.2,2.4-10.4-1.7-13.2
				c-7.8-5.3-16.5-10.4-25.5-7.6c-10,3.1-15,16-7.1,24c1,1.1,2.3,2,3.8,2.2c1.5,0.2,3.1-0.3,3.8-1.6c0.8-1.5,0.2-3.5,0.6-5.2
				c0.8-3.1,5.4-4,7.7-1.8c2.3,2.2,2,6.2-0.1,8.6c-2.1,2.4-5.5,3.2-8.7,2.9c-8.2-0.9-14.2-9.3-14-17.6c0-1.2,0.1-2.4,0.4-3.5
				c0.8-3.7,2.9-7.1,6-9.4c3.5-2.7,8.1-3.7,12.5-3.6c0.5,0,1.1,0,1.6,0.1c8.5,0.8,16.4,4.8,23.6,9.6c4.3,2.2,8.7,3.9,13.7,4
				c2.5,0.1,5,0,7.4-0.4c2.1-0.4,6.6-3.1,3.7-6.2c-0.5-0.5-0.2-1.2,0.4-1.2c3.6,0.1,7.4,2.2,8.5,6.3c0.3,1.1,0.3,2.3,0.1,3.4
				c-0.2,1-0.9,1.8-1.1,2.7c2.7,1,4.9,3,7.5,4.2C886.5,76.3,887.8,77.9,885.9,78.6z"/>
		</g>
	</g>
</g>
<g id="Layer_3">
	<g id="Layer_2">
		<linearGradient id="SVGID_3_" gradientUnits="userSpaceOnUse" x1="0" y1="41.1178" x2="1600" y2="41.1178">
			<stop  offset="0" style="stop-color:#C7982F"/>
			<stop  offset="0.1507" style="stop-color:#B37F2C"/>
			<stop  offset="0.4298" style="stop-color:#F8DE7C"/>
			<stop  offset="0.5909" style="stop-color:#FFF2A6"/>
			<stop  offset="0.7264" style="stop-color:#F8DE7C"/>
			<stop  offset="0.9257" style="stop-color:#B37F2C"/>
			<stop  offset="0.9316" style="stop-color:#B5822C"/>
			<stop  offset="1" style="stop-color:#CB9F33"/>
		</linearGradient>
		<rect y="37.9" class="st2" width="1600" height="6.5"/>
	</g>
</g>
</svg>
